<?xml version="1.0" encoding="UTF-8"?>
<svg xmlns="http://www.w3.org/2000/svg" xmlns:xlink="http://www.w3.org/1999/xlink" version="1.2" >
<font id="DB Office Italic">
<font-face  font-family="DB Office" units-per-em="2048" ascent="1491" descent="-431" font-style="italic" font-weight="400" font-stretch="normal" slope="-11" cap-height="1536" x-height="1024" underline-position="-335" underline-thickness="137" />
<missing-glyph  horiz-adv-x="569" d="M57 0 L57 1489 L512 1489 L512 0 L57 0 Z M455 57 L455 1432 L114 1432 L114 57 L455 57 Z " />
<glyph glyph-name="&amp;#x20;" unicode="&#x20;" horiz-adv-x="569" d="" />
<glyph glyph-name="&amp;#xa0;" unicode="&#xa0;" horiz-adv-x="569" d="" />
<glyph glyph-name="exclam" unicode="&#x21;" horiz-adv-x="569" d="M213 248 Q273 248 312 208 Q347 172 347 116 Q347 54 309 13 Q267 -31 203 -31 Q143 -31 104 8 Q69 45 69 102 Q69 164 108 204 Q150 248 213 248 Z M206 449 L368 1489 L585 1489 L335 449 L206 449 Z " />
<glyph glyph-name="quotedbl" unicode="&#x22;" horiz-adv-x="727" d="M561 952 L629 1489 L823 1489 L686 952 L561 952 Z M211 952 L279 1489 L473 1489 L336 952 L211 952 Z " />
<glyph glyph-name="numbersign" unicode="&#x23;" horiz-adv-x="1139" d="M191 885 L191 1051 L419 1051 L509 1505 L655 1505 L565 1051 L782 1051 L872 1505 L1017 1505 L927 1051 L1121 1051 L1121 885 L895 885 L846 637 L1042 637 L1042 471 L814 471 L721 0 L576 0 L668 471 L451 471 L359 0 L215 0 L308 471 L112 471 L112 637 L340 637 L387 885 L191 885 Z M533 885 L483 637 L700 637 L750 885 L533 885 Z " />
<glyph glyph-name="dollar" unicode="&#x24;" horiz-adv-x="1139" d="M207 -291 L297 -12 Q179 15 72 88 L103 246 Q211 162 344 129 L529 698 Q409 795 359 863 Q289 960 289 1088 Q289 1257 394 1362 Q513 1481 712 1481 Q739 1481 783 1477 L836 1638 L959 1638 L899 1456 Q981 1430 1057 1385 L1026 1227 Q942 1284 852 1313 L686 805 Q803 706 853 641 Q934 534 934 406 Q934 222 813 102 Q681 -29 451 -29 Q431 -29 414 -27 L328 -291 L207 -291 Z M461 119 Q613 129 684 204 Q752 275 752 388 Q752 469 708 532 Q682 569 625 621 L461 119 Z M736 1333 Q628 1334 566 1298 Q463 1239 463 1103 Q463 1025 504 967 Q529 931 588 881 L736 1333 Z " />
<glyph glyph-name="percent" unicode="&#x25;" horiz-adv-x="1821" d="M604 1475 Q741 1475 813 1386 Q872 1312 872 1195 Q872 1073 822 945 Q734 721 511 721 Q375 721 303 816 Q246 893 246 1003 Q246 1130 298 1264 Q381 1475 604 1475 Z M597 1358 Q492 1358 451 1248 Q432 1194 415 1094 Q401 1012 401 967 Q401 838 519 838 Q619 838 657 939 Q677 993 697 1097 Q713 1182 713 1225 Q713 1358 597 1358 Z M286 0 L1472 1446 L1622 1446 L432 0 L286 0 Z M1391 727 Q1529 727 1600 638 Q1659 564 1659 447 Q1659 325 1609 197 Q1521 -27 1298 -27 Q1162 -27 1091 68 Q1033 145 1033 255 Q1033 382 1085 516 Q1168 727 1391 727 Z M1385 610 Q1279 610 1238 500 Q1218 445 1202 347 Q1188 264 1188 219 Q1188 90 1306 90 Q1406 90 1444 191 Q1464 245 1484 349 Q1500 433 1500 477 Q1500 610 1385 610 Z " />
<glyph glyph-name="ampersand" unicode="&#x26;" horiz-adv-x="1366" d="M970 270 Q979 255 983 248 Q1015 189 1035 168 Q1068 135 1125 135 Q1166 135 1220 154 L1190 -2 Q1127 -27 1072 -27 Q967 -27 900 39 Q869 70 837 124 Q662 -31 452 -31 Q305 -31 203 33 Q56 126 56 329 Q56 464 112 585 Q180 731 333 816 Q385 845 456 875 Q384 1011 384 1138 Q384 1321 510 1432 Q615 1524 764 1524 Q905 1524 988 1443 Q1063 1370 1063 1245 Q1063 1061 896 935 Q825 880 693 819 L893 418 L1136 848 L1318 848 L1106 483 Q1014 325 970 270 Z M515 762 Q428 715 390 681 Q311 611 276 501 Q250 420 250 339 Q250 129 476 129 Q593 129 682 182 Q720 205 773 253 L515 762 Z M637 926 Q645 930 654 935 Q740 980 792 1029 Q879 1111 879 1238 Q879 1379 755 1379 Q672 1379 620 1310 Q568 1239 568 1138 Q568 1038 637 926 Z " />
<glyph glyph-name="quotesingle" unicode="&#x27;" horiz-adv-x="391" d="M218 952 L286 1489 L480 1489 L343 952 L218 952 Z " />
<glyph glyph-name="parenleft" unicode="&#x28;" horiz-adv-x="682" d="M318 -332 Q233 -210 186 -101 Q91 121 91 382 Q91 850 355 1243 Q468 1411 650 1577 L815 1577 Q598 1352 482 1145 Q283 788 283 365 Q283 110 367 -121 Q402 -217 461 -332 L318 -332 Z " />
<glyph glyph-name="parenright" unicode="&#x29;" horiz-adv-x="682" d="M-94 -332 Q123 -108 240 100 Q439 457 439 879 Q439 1135 355 1366 Q321 1458 260 1577 L404 1577 Q488 1454 535 1346 Q631 1125 631 862 Q631 395 366 2 Q253 -166 72 -332 L-94 -332 Z " />
<glyph glyph-name="asterisk" unicode="&#x2a;" horiz-adv-x="797" d="M369 811 L483 1104 L234 926 L166 1075 L443 1155 L202 1260 L306 1395 L496 1204 L500 1489 L672 1489 L562 1200 L806 1383 L861 1221 L593 1147 L840 1040 L734 903 L543 1102 L540 811 L369 811 Z " />
<glyph glyph-name="plus" unicode="&#x2b;" horiz-adv-x="1196" d="M450 190 L532 611 L151 611 L180 758 L561 758 L643 1180 L810 1180 L729 758 L1109 758 L1081 611 L700 611 L618 190 L450 190 Z " />
<glyph glyph-name="comma" unicode="&#x2c;" horiz-adv-x="569" d="M-33 -207 Q70 -174 117 -136 Q171 -92 199 -4 Q178 -6 167 -6 Q123 -6 94 20 Q58 53 58 108 Q58 165 95 204 Q136 248 202 248 Q279 248 321 187 Q351 144 351 76 Q351 -74 253 -173 Q183 -243 73 -276 Q32 -288 -51 -301 L-33 -207 Z " />
<glyph glyph-name="hyphen" unicode="&#x2d;" horiz-adv-x="682" d="M106 604 L136 758 L638 758 L608 604 L106 604 Z " />
<glyph glyph-name="period" unicode="&#x2e;" horiz-adv-x="569" d="M210 248 Q270 248 309 208 Q344 172 344 116 Q344 54 305 13 Q264 -31 199 -31 Q139 -31 101 9 Q65 45 65 102 Q65 164 104 204 Q146 248 210 248 Z " />
<glyph glyph-name="slash" unicode="&#x2f;" horiz-adv-x="569" d="M-190 -332 L572 1577 L738 1577 L-24 -332 L-190 -332 Z " />
<glyph glyph-name="zero" unicode="0" horiz-adv-x="1139" d="M708 1483 Q913 1483 1016 1364 Q1113 1250 1113 1040 Q1113 886 1059 624 Q998 321 918 192 Q839 64 728 11 Q641 -31 520 -31 Q105 -31 105 438 Q105 649 192 976 Q245 1173 322 1286 Q456 1483 708 1483 Z M710 1338 Q571 1338 500 1241 Q425 1138 365 864 Q293 536 293 392 Q293 244 346 180 Q400 114 517 114 Q652 114 717 206 Q791 312 851 577 Q925 905 925 1082 Q925 1338 710 1338 Z " />
<glyph glyph-name="one" unicode="1" horiz-adv-x="1139" d="M152 0 L177 131 L435 131 L658 1263 L361 1157 L388 1294 L779 1456 L879 1456 L621 131 L867 131 L842 0 L152 0 Z " />
<glyph glyph-name="two" unicode="2" horiz-adv-x="1139" d="M6 0 L31 129 Q408 452 541 587 Q718 767 774 923 Q810 1025 810 1126 Q810 1325 624 1325 Q482 1325 295 1223 L325 1385 Q481 1483 652 1483 Q840 1483 931 1371 Q1001 1285 1001 1135 Q1001 933 889 753 Q781 578 462 311 Q410 268 268 154 L893 154 L850 0 L6 0 Z " />
<glyph glyph-name="three" unicode="3" horiz-adv-x="1139" d="M0 -92 L29 62 Q199 80 285 99 Q756 203 756 534 Q756 696 565 696 Q505 696 418 682 L367 674 L395 819 L494 836 Q645 861 712 909 Q779 958 809 1052 Q827 1110 827 1169 Q827 1327 633 1327 Q484 1327 293 1241 L319 1397 Q487 1483 666 1483 Q829 1483 919 1407 Q1010 1331 1010 1183 Q1010 1009 907 897 Q843 827 709 785 Q826 768 882 712 Q946 648 946 541 Q946 395 871 268 Q747 57 386 -34 Q252 -68 0 -92 Z " />
<glyph glyph-name="four" unicode="4" horiz-adv-x="1139" d="M43 319 L66 429 L846 1524 L1028 1524 L274 458 L698 458 L795 954 L985 981 L883 458 L1049 458 L1020 319 L856 319 L795 0 L610 0 L672 319 L43 319 Z " />
<glyph glyph-name="five" unicode="5" horiz-adv-x="1139" d="M578 1296 L455 856 Q547 882 629 882 Q801 882 889 780 Q955 704 955 582 Q955 416 870 276 Q740 62 384 -32 Q247 -68 35 -88 L64 67 Q214 84 288 101 Q765 210 765 554 Q765 664 695 702 Q636 735 526 735 Q385 735 256 700 L463 1446 L1106 1446 L1063 1296 L578 1296 Z " />
<glyph glyph-name="six" unicode="6" horiz-adv-x="1139" d="M369 778 Q526 895 708 895 Q878 895 965 792 Q1038 706 1038 564 Q1038 423 989 285 Q935 134 803 47 Q684 -31 527 -31 Q323 -31 218 97 Q123 213 123 413 Q123 600 187 850 Q229 1016 291 1117 Q453 1380 769 1479 Q907 1523 1114 1536 L1081 1384 Q873 1368 735 1306 Q448 1176 375 809 L369 778 Z M340 639 Q339 633 339 630 Q338 627 337 619 Q337 619 336 615 Q336 611 326 558 Q312 480 312 391 Q312 116 541 116 Q720 116 787 275 Q813 337 830 430 Q845 510 845 564 Q845 643 807 691 Q758 752 655 752 Q553 752 454 708 Q416 691 384 671 Q341 643 340 639 Z " />
<glyph glyph-name="seven" unicode="7" horiz-adv-x="1139" d="M146 -90 L965 1292 L261 1292 L306 1446 L1170 1446 L1147 1327 L349 -90 L146 -90 Z " />
<glyph glyph-name="eight" unicode="8" horiz-adv-x="1139" d="M791 772 Q900 704 948 643 Q1012 560 1012 432 Q1012 211 870 83 Q743 -31 524 -31 Q359 -31 245 34 Q78 129 78 334 Q78 515 211 638 Q291 713 443 772 Q365 827 325 884 Q268 965 268 1075 Q268 1268 412 1384 Q535 1483 728 1483 Q912 1483 1013 1389 Q1104 1305 1104 1154 Q1104 992 989 888 Q923 828 791 772 Z M545 713 Q533 707 519 701 Q264 585 264 345 Q264 212 364 155 Q431 116 529 116 Q679 116 758 204 Q828 282 828 407 Q828 488 785 545 Q746 598 648 656 Q618 674 579 695 Q545 713 545 713 Z M682 829 Q694 836 707 843 Q926 958 926 1151 Q926 1227 886 1272 Q829 1338 712 1338 Q582 1338 514 1263 Q456 1199 456 1092 Q456 1020 488 973 Q520 924 602 874 Q678 827 682 829 Z " />
<glyph glyph-name="nine" unicode="9" horiz-adv-x="1139" d="M51 -88 L80 68 Q427 94 599 219 Q734 317 800 507 Q826 581 846 676 Q695 557 521 557 Q361 557 273 653 Q192 742 192 888 Q192 1038 248 1188 Q314 1365 472 1440 Q562 1483 690 1483 Q836 1483 919 1436 Q1095 1338 1095 1059 Q1095 860 1028 600 Q983 420 921 321 Q758 55 416 -37 Q277 -73 51 -88 Z M874 815 L875 820 L876 823 Q876 826 876 828 Q905 982 905 1079 Q905 1229 839 1289 Q788 1335 692 1335 Q520 1335 455 1206 Q423 1140 401 1028 Q387 951 387 901 Q387 702 582 702 Q677 702 770 747 Q804 764 834 784 Q874 812 874 815 Z " />
<glyph glyph-name="colon" unicode="&#x3a;" horiz-adv-x="569" d="M209 248 Q269 248 308 208 Q343 172 343 116 Q343 54 305 13 Q263 -31 199 -31 Q139 -31 100 8 Q65 45 65 102 Q65 164 104 204 Q146 248 209 248 Z M348 961 Q408 961 447 921 Q482 886 482 829 Q482 767 444 726 Q402 682 337 682 Q277 682 239 722 Q203 758 203 815 Q203 877 242 917 Q285 961 348 961 Z " />
<glyph glyph-name="semicolon" unicode="&#x3b;" horiz-adv-x="569" d="M348 961 Q408 961 447 921 Q482 885 482 829 Q482 767 444 726 Q402 682 338 682 Q278 682 240 722 Q204 758 204 815 Q204 877 243 917 Q285 961 348 961 Z M-31 -208 Q93 -169 143 -114 Q179 -76 202 -2 Q176 -4 168 -4 Q125 -4 96 22 Q60 54 60 108 Q60 164 96 202 Q137 246 201 246 Q278 246 320 186 Q349 143 349 76 Q349 -74 252 -172 Q183 -241 73 -274 Q33 -286 -48 -299 L-31 -208 Z " />
<glyph glyph-name="less" unicode="&#x3c;" horiz-adv-x="1196" d="M985 246 L149 592 L184 774 L1155 1122 L1122 952 L320 684 L1018 416 L985 246 Z " />
<glyph glyph-name="equal" unicode="&#x3d;" horiz-adv-x="1196" d="M182 775 L211 922 L1141 922 L1112 775 L182 775 Z M119 448 L148 595 L1077 595 L1049 448 L119 448 Z " />
<glyph glyph-name="greater" unicode="&#x3e;" horiz-adv-x="1196" d="M104 246 L137 416 L939 684 L241 952 L274 1122 L1110 776 L1075 594 L104 246 Z " />
<glyph glyph-name="question" unicode="&#x3f;" horiz-adv-x="1139" d="M390 248 Q450 248 489 208 Q524 172 524 116 Q524 54 486 13 Q444 -31 380 -31 Q320 -31 281 8 Q246 45 246 102 Q246 164 285 204 Q327 248 390 248 Z M528 449 L368 449 L389 560 Q406 646 455 708 Q505 771 653 867 Q782 950 824 997 Q899 1080 899 1190 Q899 1366 667 1366 Q507 1366 296 1276 L330 1448 Q524 1524 711 1524 Q912 1524 1016 1418 Q1097 1336 1097 1202 Q1097 1057 1011 951 Q956 883 777 771 Q668 703 627 669 Q560 614 545 537 L528 449 Z " />
<glyph glyph-name="at" unicode="&#x40;" horiz-adv-x="2079" d="M1130 238 Q999 72 842 72 Q758 72 707 120 Q643 180 643 310 Q643 447 703 639 Q761 827 867 902 Q951 963 1069 963 Q1160 963 1228 920 Q1252 905 1284 875 L1343 963 L1458 963 L1306 344 Q1300 318 1300 293 Q1300 199 1415 199 Q1556 199 1651 333 Q1759 487 1759 740 Q1759 992 1610 1140 Q1436 1313 1132 1313 Q795 1313 574 1091 Q454 971 390 799 Q323 619 323 405 Q323 70 509 -98 Q675 -247 977 -247 Q1181 -247 1362 -186 Q1457 -154 1585 -90 L1585 -206 Q1454 -272 1347 -305 Q1171 -358 974 -358 Q592 -358 375 -140 Q176 59 176 400 Q176 710 319 958 Q444 1174 656 1296 Q874 1422 1143 1422 Q1506 1422 1717 1209 Q1896 1029 1896 741 Q1896 509 1797 338 Q1724 212 1608 144 Q1504 84 1387 84 Q1183 84 1130 238 Z M1239 791 Q1163 842 1083 842 Q955 842 895 663 Q817 431 817 307 Q817 197 909 197 Q978 197 1044 250 Q1077 277 1124 332 L1239 791 Z " />
<glyph glyph-name="A" unicode="A" horiz-adv-x="1366" d="M989 406 L385 406 L167 0 L-17 0 L804 1497 L1011 1497 L1243 0 L1048 0 L989 406 Z M968 547 L859 1289 L461 547 L968 547 Z " />
<glyph glyph-name="B" unicode="B" horiz-adv-x="1366" d="M143 0 L432 1489 L923 1489 Q1110 1489 1213 1407 Q1320 1322 1320 1162 Q1320 1009 1232 913 Q1176 852 1092 820 Q1058 806 988 790 Q1127 765 1196 695 Q1277 612 1277 474 Q1277 219 1088 96 Q941 0 695 0 L143 0 Z M370 150 L704 150 Q1081 150 1081 491 Q1081 718 810 718 L481 718 L370 150 Z M508 868 L835 868 Q980 868 1053 949 Q1118 1021 1118 1147 Q1118 1339 894 1339 L601 1339 L508 868 Z " />
<glyph glyph-name="C" unicode="C" horiz-adv-x="1479" d="M1528 1347 L1423 1205 Q1247 1370 997 1370 Q697 1370 557 1109 Q490 983 447 777 Q414 618 414 494 Q414 324 512 230 Q625 122 846 122 Q1082 122 1277 284 L1369 129 Q1294 77 1221 45 Q1053 -31 830 -31 Q637 -31 516 20 Q349 89 274 227 Q211 341 211 528 Q211 771 308 1029 Q416 1315 614 1434 Q765 1524 979 1524 Q1321 1524 1528 1347 Z " />
<glyph glyph-name="D" unicode="D" horiz-adv-x="1479" d="M133 0 L422 1489 L862 1489 Q1076 1489 1209 1411 Q1425 1283 1425 975 Q1425 817 1381 630 Q1231 0 610 0 L133 0 Z M360 150 L607 150 Q906 150 1055 347 Q1138 455 1182 655 Q1222 836 1222 972 Q1222 1182 1099 1271 Q1006 1339 829 1339 L591 1339 L360 150 Z " />
<glyph glyph-name="E" unicode="E" horiz-adv-x="1366" d="M153 0 L442 1489 L1413 1489 L1384 1339 L610 1339 L512 838 L1149 838 L1120 688 L483 688 L379 150 L1224 150 L1179 0 L153 0 Z " />
<glyph glyph-name="F" unicode="F" horiz-adv-x="1251" d="M138 0 L427 1489 L1366 1489 L1337 1339 L595 1339 L494 817 L1122 817 L1093 667 L465 667 L335 0 L138 0 Z " />
<glyph glyph-name="G" unicode="G" horiz-adv-x="1593" d="M951 569 L980 719 L1441 719 L1314 66 Q1087 -31 841 -31 Q534 -31 378 119 Q298 195 265 300 Q235 392 235 523 Q235 771 333 1029 Q440 1315 639 1434 Q789 1524 1003 1524 Q1346 1524 1553 1347 L1447 1205 Q1273 1370 1021 1370 Q719 1370 578 1109 Q508 981 467 778 Q431 603 431 491 Q431 385 470 298 Q548 123 864 123 Q1007 123 1144 168 L1222 569 L951 569 Z " />
<glyph glyph-name="H" unicode="H" horiz-adv-x="1479" d="M128 0 L417 1489 L614 1489 L487 838 L1178 838 L1305 1489 L1501 1489 L1212 0 L1015 0 L1149 688 L458 688 L325 0 L128 0 Z " />
<glyph glyph-name="I" unicode="I" horiz-adv-x="569" d="M116 0 L405 1489 L602 1489 L313 0 L116 0 Z " />
<glyph glyph-name="J" unicode="J" horiz-adv-x="1024" d="M851 1489 L1048 1489 L855 494 Q811 262 719 143 Q584 -31 321 -31 Q152 -31 24 55 L53 211 Q187 123 327 123 Q463 123 532 188 Q585 238 619 341 Q643 417 661 508 L851 1489 Z " />
<glyph glyph-name="K" unicode="K" horiz-adv-x="1366" d="M128 0 L417 1489 L614 1489 L473 766 L1255 1489 L1476 1489 L668 746 L1251 0 L1030 0 L466 728 L325 0 L128 0 Z " />
<glyph glyph-name="L" unicode="L" horiz-adv-x="1139" d="M153 0 L442 1489 L639 1489 L379 150 L1082 150 L1037 0 L153 0 Z " />
<glyph glyph-name="M" unicode="M" horiz-adv-x="1706" d="M111 0 L451 1489 L672 1489 L850 426 L1473 1489 L1719 1489 L1430 0 L1233 0 L1466 1199 L844 154 L721 154 L554 1199 L281 0 L111 0 Z " />
<glyph glyph-name="N" unicode="N" horiz-adv-x="1479" d="M129 0 L418 1489 L587 1489 L1109 358 L1329 1489 L1499 1489 L1209 0 L1077 0 L528 1176 L299 0 L129 0 Z " />
<glyph glyph-name="O" unicode="O" horiz-adv-x="1593" d="M987 1524 Q1268 1524 1411 1348 Q1532 1198 1532 949 Q1532 735 1447 488 Q1355 221 1155 84 Q988 -31 754 -31 Q477 -31 332 147 Q213 292 213 541 Q213 753 285 970 Q375 1243 565 1387 Q745 1524 987 1524 Z M982 1370 Q661 1370 526 1046 Q474 920 439 749 Q412 614 412 504 Q412 299 521 201 Q608 123 758 123 Q993 123 1134 304 Q1225 420 1279 632 Q1333 840 1333 992 Q1333 1182 1241 1277 Q1150 1370 982 1370 Z " />
<glyph glyph-name="P" unicode="P" horiz-adv-x="1366" d="M451 647 L326 0 L129 0 L418 1489 L949 1489 Q1171 1489 1275 1406 Q1389 1314 1389 1137 Q1389 1005 1328 877 Q1203 614 798 614 Q653 614 451 647 Z M480 793 Q665 761 789 761 Q1026 761 1120 889 Q1190 982 1190 1132 Q1190 1255 1111 1305 Q1056 1339 941 1339 L586 1339 L480 793 Z " />
<glyph glyph-name="Q" unicode="Q" horiz-adv-x="1593" d="M1201 -404 Q924 -391 794 -314 Q677 -245 659 -104 Q656 -75 653 -23 Q445 8 332 147 Q213 292 213 542 Q213 754 285 970 Q374 1241 565 1387 Q743 1524 987 1524 Q1268 1524 1411 1348 Q1532 1199 1532 949 Q1532 739 1447 488 Q1356 217 1147 78 Q1021 -5 848 -26 Q848 -34 848 -38 Q852 -127 889 -169 Q938 -225 1087 -249 Q1140 -257 1228 -263 L1201 -404 Z M982 1370 Q661 1370 526 1046 Q474 920 439 749 Q412 614 412 504 Q412 299 521 201 Q608 123 758 123 Q993 123 1134 304 Q1225 420 1279 632 Q1333 840 1333 992 Q1333 1182 1241 1277 Q1150 1370 982 1370 Z " />
<glyph glyph-name="R" unicode="R" horiz-adv-x="1479" d="M146 0 L435 1489 L954 1489 Q1083 1489 1159 1469 Q1298 1431 1360 1326 Q1400 1257 1400 1162 Q1400 1010 1333 899 Q1248 758 1017 712 Q1118 667 1168 532 L1367 0 L1162 0 L986 487 Q950 586 896 625 Q842 663 730 663 L472 663 L343 0 L146 0 Z M501 813 L859 813 Q1033 813 1115 893 Q1156 934 1181 1010 Q1203 1079 1203 1150 Q1203 1258 1118 1306 Q1062 1339 964 1339 L603 1339 L501 813 Z " />
<glyph glyph-name="S" unicode="S" horiz-adv-x="1366" d="M41 138 L139 302 Q361 123 654 123 Q810 123 911 175 Q1038 241 1038 379 Q1038 477 952 546 Q900 588 840 620 Q792 646 688 700 Q504 795 421 877 Q319 977 319 1119 Q319 1313 467 1430 Q587 1524 806 1524 Q1140 1524 1349 1316 L1240 1187 Q1051 1370 809 1370 Q672 1370 593 1312 Q511 1251 511 1134 Q511 1042 579 982 Q619 948 664 924 Q706 901 807 850 Q1007 748 1111 658 Q1239 547 1239 389 Q1239 236 1132 128 Q974 -31 641 -31 Q286 -31 41 138 Z " />
<glyph glyph-name="T" unicode="T" horiz-adv-x="1251" d="M457 0 L717 1339 L290 1339 L333 1489 L1356 1489 L1327 1339 L914 1339 L654 0 L457 0 Z " />
<glyph glyph-name="U" unicode="U" horiz-adv-x="1479" d="M413 1489 L610 1489 L430 559 Q413 473 413 408 Q413 270 488 201 Q566 129 737 129 Q859 129 934 168 Q1034 221 1087 345 Q1121 427 1142 537 L1327 1489 L1502 1489 L1314 522 Q1268 289 1174 161 Q1032 -31 733 -31 Q219 -31 219 411 Q219 490 236 575 L413 1489 Z " />
<glyph glyph-name="V" unicode="V" horiz-adv-x="1366" d="M533 0 L297 1489 L487 1489 L674 276 L1325 1489 L1507 1489 L700 0 L533 0 Z " />
<glyph glyph-name="W" unicode="W" horiz-adv-x="1933" d="M405 0 L319 1489 L509 1489 L563 307 L1110 1489 L1261 1489 L1348 309 L1875 1489 L2056 1489 L1368 0 L1200 0 L1121 1178 L569 0 L405 0 Z " />
<glyph glyph-name="X" unicode="X" horiz-adv-x="1366" d="M26 0 L647 782 L352 1489 L552 1489 L792 909 L1243 1489 L1441 1489 L876 768 L1197 0 L999 0 L733 641 L225 0 L26 0 Z " />
<glyph glyph-name="Y" unicode="Y" horiz-adv-x="1366" d="M529 0 L647 608 L329 1489 L528 1489 L784 770 L1271 1489 L1466 1489 L836 586 L723 0 L529 0 Z " />
<glyph glyph-name="Z" unicode="Z" horiz-adv-x="1251" d="M36 0 L61 125 L1083 1339 L347 1339 L388 1489 L1351 1489 L1326 1366 L298 150 L1095 150 L1054 0 L36 0 Z " />
<glyph glyph-name="bracketleft" unicode="&#x5b;" horiz-adv-x="569" d="M-18 -332 L353 1577 L711 1577 L685 1446 L509 1446 L189 -201 L365 -201 L340 -332 L-18 -332 Z " />
<glyph glyph-name="backslash" unicode="&#x5c;" horiz-adv-x="569" d="M350 -332 L160 1577 L310 1577 L500 -332 L350 -332 Z " />
<glyph glyph-name="bracketright" unicode="&#x5d;" horiz-adv-x="569" d="M97 -201 L417 1446 L240 1446 L266 1577 L624 1577 L253 -332 L-105 -332 L-80 -201 L97 -201 Z " />
<glyph glyph-name="asciicircum" unicode="&#x5e;" horiz-adv-x="961" d="M129 877 L594 1489 L754 1489 L973 877 L823 877 L645 1307 L289 877 L129 877 Z " />
<glyph glyph-name="underscore" unicode="&#x5f;" horiz-adv-x="1139" d="M6 -369 L32 -235 L810 -235 L784 -369 L6 -369 Z " />
<glyph glyph-name="grave" unicode="&#x60;" horiz-adv-x="682" d="M581 1200 L435 1200 L255 1548 L448 1548 L581 1200 Z " />
<glyph glyph-name="a" unicode="a" horiz-adv-x="1139" d="M684 131 Q529 -33 365 -33 Q239 -33 159 35 Q78 105 78 228 Q78 446 267 533 Q361 576 542 598 Q587 603 736 614 L771 617 L787 697 Q797 745 797 775 Q797 929 611 929 Q497 929 388 893 Q327 872 238 832 L266 985 Q458 1079 637 1079 Q819 1079 907 990 Q981 914 981 789 Q981 740 971 688 L883 238 Q875 196 875 182 Q875 129 941 129 Q970 129 1002 137 L977 10 Q913 -14 854 -14 Q708 -14 684 131 Z M746 487 Q478 464 395 438 Q260 395 260 246 Q260 106 408 106 Q563 106 701 262 L746 487 Z " />
<glyph glyph-name="b" unicode="b" horiz-adv-x="1139" d="M64 0 L355 1497 Q462 1501 513 1548 L552 1548 L427 905 Q609 1079 776 1079 Q910 1079 984 972 Q1049 879 1049 730 Q1049 553 984 355 Q914 146 777 45 Q670 -33 536 -33 Q366 -33 240 111 L179 0 L64 0 Z M287 186 Q388 112 502 112 Q665 112 747 267 Q796 362 828 514 Q855 641 855 716 Q855 798 819 856 Q780 921 693 921 Q613 921 526 872 Q481 846 404 787 L287 186 Z " />
<glyph glyph-name="c" unicode="c" horiz-adv-x="1024" d="M838 238 L923 99 Q756 -33 514 -33 Q309 -33 201 69 Q90 175 90 364 Q90 555 160 739 Q290 1079 634 1079 Q931 1079 1032 848 L888 772 Q871 819 854 846 Q793 944 646 944 Q454 944 371 764 Q324 664 297 524 Q278 430 278 359 Q278 228 350 164 Q413 108 523 108 Q699 108 838 238 Z " />
<glyph glyph-name="d" unicode="d" horiz-adv-x="1139" d="M873 0 L758 0 L738 166 Q558 -33 372 -33 Q242 -33 165 53 Q83 144 83 307 Q83 476 144 672 Q214 898 362 1001 Q474 1079 616 1079 Q762 1079 875 971 L978 1499 Q1078 1503 1129 1550 L1174 1550 L873 0 Z M853 854 Q757 925 641 925 Q461 925 371 752 Q330 673 301 521 Q277 394 277 321 Q277 231 316 171 Q354 112 439 112 Q524 112 622 176 Q661 201 738 264 L853 854 Z " />
<glyph glyph-name="e" unicode="e" horiz-adv-x="1139" d="M1016 488 L304 488 Q289 420 289 354 Q289 236 351 179 Q419 117 565 117 Q680 117 790 157 Q848 178 930 219 L900 62 Q743 -31 536 -31 Q310 -31 199 88 Q105 189 105 365 Q105 531 159 699 Q219 889 355 989 Q480 1080 662 1080 Q1045 1080 1045 712 Q1045 618 1016 488 Z M853 623 Q865 697 865 750 Q865 945 661 945 Q483 945 394 794 Q358 732 330 623 L853 623 Z " />
<glyph glyph-name="f" unicode="f" horiz-adv-x="569" d="M242 924 L137 924 L164 1061 L268 1061 L297 1219 Q357 1548 657 1548 L750 1548 L721 1398 Q686 1403 656 1403 Q561 1403 519 1347 Q490 1307 471 1210 L442 1061 L633 1061 L606 924 L418 924 L184 -279 L8 -279 L242 924 Z " />
<glyph glyph-name="g" unicode="g" horiz-adv-x="1139" d="M896 950 L962 1063 L1079 1063 L872 -2 Q789 -430 362 -430 Q173 -430 10 -356 L39 -209 Q125 -243 153 -252 Q245 -281 349 -281 Q507 -281 591 -197 Q661 -127 687 6 L724 199 Q550 2 377 2 Q253 2 177 76 Q86 165 86 336 Q86 489 144 675 Q213 900 363 1002 Q476 1079 620 1079 Q774 1079 896 950 Z M851 850 Q762 925 645 925 Q506 925 421 829 Q353 751 316 591 Q280 436 280 344 Q280 259 317 205 Q356 147 444 147 Q529 147 619 206 Q662 235 745 307 L851 850 Z " />
<glyph glyph-name="h" unicode="h" horiz-adv-x="1139" d="M64 0 L355 1497 Q462 1501 513 1548 L551 1548 L420 875 Q515 959 583 1001 Q707 1079 818 1079 Q933 1079 992 1011 Q1040 954 1040 858 Q1040 810 1029 754 L883 0 L696 0 L833 704 Q846 771 846 805 Q846 921 738 921 Q646 921 544 861 Q487 827 397 756 L251 0 L64 0 Z " />
<glyph glyph-name="i" unicode="i" horiz-adv-x="455" d="M397 1489 Q448 1489 482 1455 Q512 1424 512 1375 Q512 1321 478 1286 Q442 1247 386 1247 Q333 1247 300 1281 Q270 1312 270 1363 Q270 1416 304 1450 Q341 1489 397 1489 Z M32 0 L233 1032 Q333 1036 386 1084 L427 1073 L219 0 L32 0 Z " />
<glyph glyph-name="j" unicode="j" horiz-adv-x="455" d="M398 1489 Q450 1489 483 1455 Q513 1424 513 1375 Q513 1321 479 1286 Q443 1247 387 1247 Q334 1247 301 1281 Q271 1312 271 1363 Q271 1416 305 1450 Q342 1489 398 1489 Z M-239 -418 L-210 -270 Q-127 -257 -79 -223 Q2 -165 28 -31 L235 1032 Q334 1036 388 1084 L429 1073 L213 -37 Q170 -258 13 -348 Q-78 -400 -239 -418 Z " />
<glyph glyph-name="k" unicode="k" horiz-adv-x="1024" d="M63 0 L353 1493 Q453 1496 505 1544 L549 1544 L353 535 L858 1061 L1055 1061 L629 627 L893 0 L699 0 L486 508 L315 338 L249 0 L63 0 Z " />
<glyph glyph-name="l" unicode="l" horiz-adv-x="455" d="M32 0 L323 1497 Q430 1501 481 1548 L519 1548 L219 0 L32 0 Z " />
<glyph glyph-name="m" unicode="m" horiz-adv-x="1706" d="M64 0 L265 1032 Q357 1036 407 1084 L459 1073 L420 871 Q628 1079 790 1079 Q888 1079 945 1022 Q993 975 1007 871 Q1222 1079 1404 1079 Q1610 1079 1610 870 Q1610 821 1598 758 L1450 0 L1264 0 L1405 727 Q1416 781 1416 815 Q1416 921 1313 921 Q1232 921 1149 869 Q1101 839 998 756 L851 0 L665 0 L801 702 Q816 777 816 805 Q816 921 700 921 Q621 921 538 867 Q495 839 397 756 L250 0 L64 0 Z " />
<glyph glyph-name="n" unicode="n" horiz-adv-x="1139" d="M64 0 L265 1032 Q365 1036 418 1084 L459 1073 L420 875 Q649 1079 819 1079 Q934 1079 991 1011 Q1039 955 1039 856 Q1039 812 1022 725 L881 0 L695 0 L833 711 Q845 773 845 804 Q845 921 738 921 Q648 921 545 861 Q489 828 397 756 L251 0 L64 0 Z " />
<glyph glyph-name="o" unicode="o" horiz-adv-x="1139" d="M633 1079 Q839 1079 947 960 Q1049 848 1049 671 Q1049 517 991 348 Q860 -33 495 -33 Q302 -33 193 88 Q90 201 90 392 Q90 535 139 688 Q205 899 361 1003 Q476 1079 633 1079 Z M632 944 Q447 944 364 753 Q325 665 298 516 Q280 418 280 357 Q280 106 497 106 Q676 106 763 269 Q796 333 828 484 Q856 614 856 696 Q856 944 632 944 Z " />
<glyph glyph-name="p" unicode="p" horiz-adv-x="1139" d="M-16 -397 L262 1032 Q362 1036 416 1084 L457 1079 L420 887 Q605 1079 776 1079 Q902 1079 977 983 Q1051 888 1051 718 Q1051 566 994 380 Q936 191 827 86 Q703 -33 537 -33 Q382 -33 266 92 L170 -397 L-16 -397 Z M286 199 Q385 112 500 112 Q641 112 729 235 Q788 320 824 477 Q857 622 857 712 Q857 808 812 867 Q772 921 694 921 Q612 921 524 864 Q479 836 396 766 L286 199 Z " />
<glyph glyph-name="q" unicode="q" horiz-adv-x="1139" d="M613 -397 L721 154 Q550 -33 377 -33 Q239 -33 161 63 Q87 154 87 311 Q87 476 145 664 Q215 892 360 997 Q475 1079 621 1079 Q782 1079 898 950 L968 1063 L1084 1063 L800 -397 L613 -397 Z M857 854 Q762 925 646 925 Q465 925 375 752 Q335 675 305 521 Q281 399 281 323 Q281 211 333 155 Q373 112 442 112 Q526 112 617 172 Q662 201 743 270 L857 854 Z " />
<glyph glyph-name="r" unicode="r" horiz-adv-x="682" d="M53 0 L254 1032 Q354 1036 407 1084 L448 1073 L405 856 Q566 1047 734 1079 L698 895 Q532 863 385 754 L239 0 L53 0 Z " />
<glyph glyph-name="s" unicode="s" horiz-adv-x="1024" d="M-38 103 L41 248 Q117 187 173 161 Q291 106 438 106 Q571 106 644 165 Q703 213 703 289 Q703 349 652 389 Q609 423 492 472 Q334 537 283 576 Q183 650 183 772 Q183 915 294 1003 Q390 1080 563 1080 Q733 1080 870 1014 Q923 989 965 952 L883 830 Q757 945 561 945 Q462 945 408 905 Q350 862 350 788 Q350 725 413 685 Q452 661 560 617 Q722 552 788 499 Q881 424 881 302 Q881 182 800 91 Q688 -33 439 -33 Q237 -33 85 32 Q32 55 -38 103 Z " />
<glyph glyph-name="t" unicode="t" horiz-adv-x="569" d="M224 924 L133 924 L160 1061 L166 1061 Q250 1061 297 1165 L352 1290 L480 1290 L435 1061 L631 1061 L604 924 L409 924 L290 310 Q278 251 278 221 Q278 120 376 120 Q437 120 481 135 L452 -4 Q393 -23 334 -23 Q222 -23 159 36 Q94 97 94 212 Q94 253 106 313 L224 924 Z " />
<glyph glyph-name="u" unicode="u" horiz-adv-x="1139" d="M256 1063 L442 1063 L305 356 Q290 278 290 243 Q290 114 419 114 Q502 114 594 165 Q643 193 737 260 L893 1063 L1079 1063 L873 0 L758 0 L731 158 Q633 75 561 34 Q444 -33 334 -33 Q215 -33 151 40 Q98 101 98 205 Q98 249 114 330 L256 1063 Z " />
<glyph glyph-name="v" unicode="v" horiz-adv-x="1024" d="M324 0 L154 1061 L342 1061 L457 244 L906 1061 L1080 1061 L482 0 L324 0 Z " />
<glyph glyph-name="w" unicode="w" horiz-adv-x="1479" d="M248 0 L160 1061 L346 1061 L396 266 L787 1061 L920 1061 L1004 266 L1358 1061 L1528 1061 L1026 0 L877 0 L797 791 L400 0 L248 0 Z " />
<glyph glyph-name="x" unicode="x" horiz-adv-x="1024" d="M-35 0 L407 559 L194 1061 L387 1061 L540 668 L835 1061 L1018 1061 L620 557 L854 0 L665 0 L487 438 L149 0 L-35 0 Z " />
<glyph glyph-name="y" unicode="y" horiz-adv-x="1024" d="M21 -399 L351 129 L154 1061 L343 1061 L478 344 L904 1061 L1080 1061 L199 -399 L21 -399 Z " />
<glyph glyph-name="z" unicode="z" horiz-adv-x="1024" d="M11 0 L34 116 L759 920 L237 920 L264 1061 L1012 1061 L990 947 L259 141 L837 141 L809 0 L11 0 Z " />
<glyph glyph-name="braceleft" unicode="&#x7b;" horiz-adv-x="684" d="M220 635 Q305 612 344 573 Q394 521 394 432 Q394 394 383 338 L324 39 Q312 -22 312 -64 Q312 -136 348 -170 Q383 -201 461 -201 L478 -201 L453 -332 L447 -332 Q316 -332 241 -286 Q136 -222 136 -57 Q136 -2 152 80 L204 348 Q216 412 216 433 Q216 513 158 547 Q129 564 68 575 L97 717 Q190 730 235 768 Q292 817 314 928 L375 1239 Q415 1441 532 1518 Q621 1577 783 1577 L824 1577 L798 1446 L781 1446 Q671 1446 618 1376 Q572 1316 543 1170 L494 915 Q469 786 402 721 Q345 665 220 635 Z " />
<glyph glyph-name="bar" unicode="&#x7c;" horiz-adv-x="532" d="M217 -334 L217 1616 L393 1616 L393 -334 L217 -334 Z " />
<glyph glyph-name="braceright" unicode="&#x7d;" horiz-adv-x="684" d="M511 657 Q426 680 387 719 Q337 771 337 862 Q337 900 348 954 L397 1206 Q410 1270 410 1309 Q410 1382 373 1415 Q339 1446 260 1446 L243 1446 L269 1577 L275 1577 Q405 1577 480 1531 Q585 1467 585 1303 Q585 1245 570 1165 L527 945 Q515 882 515 859 Q515 779 573 745 Q601 729 663 717 L634 575 Q541 563 496 524 Q439 475 417 364 L347 6 Q307 -196 190 -273 Q101 -332 -61 -332 L-102 -332 L-77 -201 L-59 -201 Q51 -201 104 -131 Q150 -71 178 75 L237 377 Q262 506 329 571 Q386 627 511 657 Z " />
<glyph glyph-name="asciitilde" unicode="&#x7e;" horiz-adv-x="1196" d="M260 543 L180 616 Q339 799 498 799 Q559 799 670 765 Q764 737 809 737 Q873 737 941 786 Q966 803 1002 834 L1081 758 Q1012 679 955 638 Q862 573 763 573 Q702 573 592 606 Q496 635 452 635 Q373 635 260 543 Z " />
<glyph glyph-name="Adieresis" unicode="&#xc4;" horiz-adv-x="1366" d="M989 406 L385 406 L167 0 L-17 0 L804 1497 L1011 1497 L1243 0 L1048 0 L989 406 Z M968 547 L859 1289 L461 547 L968 547 Z M774 1866 Q822 1866 854 1833 Q883 1803 883 1756 Q883 1706 851 1672 Q817 1636 764 1636 Q714 1636 682 1669 Q653 1699 653 1745 Q653 1797 684 1830 Q719 1866 774 1866 Z M1122 1865 Q1171 1865 1203 1833 Q1232 1802 1232 1756 Q1232 1705 1200 1672 Q1166 1636 1114 1636 Q1064 1636 1032 1668 Q1003 1698 1003 1747 Q1003 1797 1034 1829 Q1069 1865 1122 1865 Z " />
<glyph glyph-name="Aring" unicode="&#xc5;" horiz-adv-x="1366" d="M989 406 L385 406 L167 0 L-17 0 L804 1497 L1011 1497 L1243 0 L1048 0 L989 406 Z M968 547 L859 1289 L461 547 L968 547 Z M955 2013 Q1057 2013 1119 1951 Q1175 1895 1175 1809 Q1175 1717 1115 1655 Q1049 1587 941 1587 Q838 1587 776 1649 Q720 1705 720 1794 Q720 1885 780 1945 Q848 2013 955 2013 Z M955 1921 Q894 1921 860 1876 Q835 1843 835 1792 Q835 1745 857 1717 Q886 1679 940 1679 Q1001 1679 1035 1724 Q1060 1757 1060 1809 Q1060 1856 1038 1883 Q1008 1921 955 1921 Z " />
<glyph glyph-name="Ccedilla" unicode="&#xc7;" horiz-adv-x="1479" d="M1528 1347 L1423 1205 Q1249 1370 997 1370 Q697 1370 557 1109 Q490 983 447 778 Q414 619 414 495 Q414 324 512 231 Q625 123 846 123 Q1083 123 1277 284 L1369 129 Q1243 43 1112 4 Q995 -30 819 -31 L696 -348 L505 -348 L669 -20 Q484 7 366 111 Q279 188 243 295 Q211 390 211 526 Q211 772 308 1029 Q416 1315 614 1434 Q765 1524 979 1524 Q1321 1524 1528 1347 Z " />
<glyph glyph-name="Eacute" unicode="&#xc9;" horiz-adv-x="1366" d="M153 0 L442 1489 L1413 1489 L1384 1339 L610 1339 L512 838 L1149 838 L1120 688 L483 688 L379 150 L1224 150 L1179 0 L153 0 Z M850 1612 L1045 1931 L1244 1931 L1006 1612 L850 1612 Z " />
<glyph glyph-name="Ntilde" unicode="&#xd1;" horiz-adv-x="1479" d="M129 0 L418 1489 L587 1489 L1109 358 L1329 1489 L1499 1489 L1209 0 L1077 0 L528 1176 L299 0 L129 0 Z M766 1641 L692 1709 Q783 1852 903 1852 Q950 1852 1022 1821 Q1082 1795 1116 1795 Q1179 1795 1235 1863 L1307 1795 Q1218 1652 1100 1652 Q1052 1652 981 1683 Q919 1709 884 1709 Q824 1709 766 1641 Z " />
<glyph glyph-name="Odieresis" unicode="&#xd6;" horiz-adv-x="1593" d="M987 1524 Q1268 1524 1411 1348 Q1532 1198 1532 949 Q1532 735 1447 488 Q1355 221 1155 84 Q988 -31 754 -31 Q477 -31 332 147 Q213 292 213 541 Q213 753 285 970 Q375 1243 565 1387 Q745 1524 987 1524 Z M982 1370 Q661 1370 526 1046 Q474 920 439 749 Q412 614 412 504 Q412 299 521 201 Q608 123 758 123 Q993 123 1134 304 Q1225 420 1279 632 Q1333 840 1333 992 Q1333 1182 1241 1277 Q1150 1370 982 1370 Z M901 1866 Q949 1866 981 1833 Q1010 1803 1010 1756 Q1010 1706 978 1672 Q944 1636 891 1636 Q841 1636 809 1669 Q780 1699 780 1745 Q780 1797 811 1830 Q846 1866 901 1866 Z M1249 1865 Q1298 1865 1330 1833 Q1359 1802 1359 1756 Q1359 1705 1327 1672 Q1293 1636 1241 1636 Q1191 1636 1159 1668 Q1130 1698 1130 1747 Q1130 1797 1161 1829 Q1196 1865 1249 1865 Z " />
<glyph glyph-name="Udieresis" unicode="&#xdc;" horiz-adv-x="1479" d="M413 1489 L610 1489 L430 559 Q413 473 413 408 Q413 270 488 201 Q566 129 737 129 Q859 129 934 168 Q1034 221 1087 345 Q1121 427 1142 537 L1327 1489 L1502 1489 L1314 522 Q1268 289 1174 161 Q1032 -31 733 -31 Q219 -31 219 411 Q219 490 236 575 L413 1489 Z M831 1866 Q879 1866 911 1833 Q940 1803 940 1756 Q940 1706 908 1672 Q874 1636 821 1636 Q771 1636 739 1669 Q710 1699 710 1745 Q710 1797 741 1830 Q776 1866 831 1866 Z M1179 1865 Q1228 1865 1260 1833 Q1289 1802 1289 1756 Q1289 1705 1257 1672 Q1223 1636 1171 1636 Q1121 1636 1089 1668 Q1060 1698 1060 1747 Q1060 1797 1091 1829 Q1126 1865 1179 1865 Z " />
<glyph glyph-name="aacute" unicode="&#xe1;" horiz-adv-x="1139" d="M684 131 Q529 -33 365 -33 Q239 -33 159 35 Q78 105 78 228 Q78 446 267 533 Q361 576 542 598 Q587 603 736 614 L771 617 L787 697 Q797 745 797 775 Q797 929 611 929 Q497 929 388 893 Q327 872 238 832 L266 985 Q458 1079 637 1079 Q819 1079 907 990 Q981 914 981 789 Q981 740 971 688 L883 238 Q875 196 875 182 Q875 129 941 129 Q970 129 1002 137 L977 10 Q913 -14 854 -14 Q708 -14 684 131 Z M746 487 Q478 464 395 438 Q260 395 260 246 Q260 106 408 106 Q563 106 701 262 L746 487 Z M571 1200 L788 1548 L987 1548 L727 1200 L571 1200 Z " />
<glyph glyph-name="agrave" unicode="&#xe0;" horiz-adv-x="1139" d="M684 131 Q529 -33 365 -33 Q239 -33 159 35 Q78 105 78 228 Q78 446 267 533 Q361 576 542 598 Q587 603 736 614 L771 617 L787 697 Q797 745 797 775 Q797 929 611 929 Q497 929 388 893 Q327 872 238 832 L266 985 Q458 1079 637 1079 Q819 1079 907 990 Q981 914 981 789 Q981 740 971 688 L883 238 Q875 196 875 182 Q875 129 941 129 Q970 129 1002 137 L977 10 Q913 -14 854 -14 Q708 -14 684 131 Z M746 487 Q478 464 395 438 Q260 395 260 246 Q260 106 408 106 Q563 106 701 262 L746 487 Z M810 1200 L664 1200 L484 1548 L677 1548 L810 1200 Z " />
<glyph glyph-name="acircumflex" unicode="&#xe2;" horiz-adv-x="1139" d="M684 131 Q529 -33 365 -33 Q239 -33 159 35 Q78 105 78 228 Q78 446 267 533 Q361 576 542 598 Q587 603 736 614 L771 617 L787 697 Q797 745 797 775 Q797 929 611 929 Q497 929 388 893 Q327 872 238 832 L266 985 Q458 1079 637 1079 Q819 1079 907 990 Q981 914 981 789 Q981 740 971 688 L883 238 Q875 196 875 182 Q875 129 941 129 Q970 129 1002 137 L977 10 Q913 -14 854 -14 Q708 -14 684 131 Z M746 487 Q478 464 395 438 Q260 395 260 246 Q260 106 408 106 Q563 106 701 262 L746 487 Z M369 1208 L658 1534 L811 1534 L977 1208 L840 1208 L715 1399 L514 1208 L369 1208 Z " />
<glyph glyph-name="adieresis" unicode="&#xe4;" horiz-adv-x="1139" d="M684 131 Q529 -33 365 -33 Q239 -33 159 35 Q78 105 78 228 Q78 446 267 533 Q361 576 542 598 Q587 603 736 614 L771 617 L787 697 Q797 745 797 775 Q797 929 611 929 Q497 929 388 893 Q327 872 238 832 L266 985 Q458 1079 637 1079 Q819 1079 907 990 Q981 914 981 789 Q981 740 971 688 L883 238 Q875 196 875 182 Q875 129 941 129 Q970 129 1002 137 L977 10 Q913 -14 854 -14 Q708 -14 684 131 Z M746 487 Q478 464 395 438 Q260 395 260 246 Q260 106 408 106 Q563 106 701 262 L746 487 Z M547 1482 Q595 1482 627 1450 Q656 1420 656 1373 Q656 1322 625 1289 Q591 1253 537 1253 Q488 1253 456 1285 Q427 1315 427 1362 Q427 1413 458 1446 Q493 1482 547 1482 Z M895 1482 Q945 1482 977 1450 Q1006 1420 1006 1373 Q1006 1322 975 1289 Q941 1253 888 1253 Q838 1253 806 1285 Q777 1315 777 1364 Q777 1414 808 1446 Q843 1482 895 1482 Z " />
<glyph glyph-name="atilde" unicode="&#xe3;" horiz-adv-x="1139" d="M684 131 Q529 -33 365 -33 Q239 -33 159 35 Q78 105 78 228 Q78 446 267 533 Q361 576 542 598 Q587 603 736 614 L771 617 L787 697 Q797 745 797 775 Q797 929 611 929 Q497 929 388 893 Q327 872 238 832 L266 985 Q458 1079 637 1079 Q819 1079 907 990 Q981 914 981 789 Q981 740 971 688 L883 238 Q875 196 875 182 Q875 129 941 129 Q970 129 1002 137 L977 10 Q913 -14 854 -14 Q708 -14 684 131 Z M746 487 Q478 464 395 438 Q260 395 260 246 Q260 106 408 106 Q563 106 701 262 L746 487 Z M447 1259 L373 1326 Q463 1469 584 1469 Q632 1469 703 1438 Q763 1412 797 1412 Q861 1412 916 1480 L987 1412 Q899 1269 781 1269 Q734 1269 662 1300 Q600 1326 565 1326 Q505 1326 447 1259 Z " />
<glyph glyph-name="aring" unicode="&#xe5;" horiz-adv-x="1139" d="M684 131 Q529 -33 365 -33 Q239 -33 159 35 Q78 105 78 228 Q78 446 267 533 Q361 576 542 598 Q587 603 736 614 L771 617 L787 697 Q797 745 797 775 Q797 929 611 929 Q497 929 388 893 Q327 872 238 832 L266 985 Q458 1079 637 1079 Q819 1079 907 990 Q981 914 981 789 Q981 740 971 688 L883 238 Q875 196 875 182 Q875 129 941 129 Q970 129 1002 137 L977 10 Q913 -14 854 -14 Q708 -14 684 131 Z M746 487 Q478 464 395 438 Q260 395 260 246 Q260 106 408 106 Q563 106 701 262 L746 487 Z M732 1630 Q834 1630 896 1568 Q952 1512 952 1426 Q952 1334 892 1272 Q826 1204 718 1204 Q615 1204 553 1266 Q497 1322 497 1411 Q497 1502 557 1562 Q625 1630 732 1630 Z M732 1538 Q671 1538 637 1493 Q612 1460 612 1409 Q612 1362 634 1334 Q663 1296 717 1296 Q778 1296 812 1341 Q837 1374 837 1427 Q837 1473 815 1500 Q785 1538 732 1538 Z " />
<glyph glyph-name="ccedilla" unicode="&#xe7;" horiz-adv-x="1024" d="M838 238 L923 99 Q770 -22 552 -32 L429 -348 L239 -348 L401 -24 Q277 -1 204 67 Q90 172 90 364 Q90 556 160 739 Q290 1079 634 1079 Q931 1079 1032 848 L888 772 Q871 819 854 846 Q793 944 646 944 Q454 944 371 764 Q324 664 297 524 Q278 430 278 359 Q278 228 350 164 Q413 108 523 108 Q699 108 838 238 Z " />
<glyph glyph-name="eacute" unicode="&#xe9;" horiz-adv-x="1139" d="M1016 488 L304 488 Q289 420 289 354 Q289 236 351 179 Q419 117 565 117 Q680 117 790 157 Q848 178 930 219 L900 62 Q743 -31 536 -31 Q310 -31 199 88 Q105 189 105 365 Q105 531 159 699 Q219 889 355 989 Q480 1080 662 1080 Q1045 1080 1045 712 Q1045 618 1016 488 Z M853 623 Q865 697 865 750 Q865 945 661 945 Q483 945 394 794 Q358 732 330 623 L853 623 Z M607 1200 L824 1548 L1023 1548 L763 1200 L607 1200 Z " />
<glyph glyph-name="egrave" unicode="&#xe8;" horiz-adv-x="1139" d="M1016 488 L304 488 Q289 420 289 354 Q289 236 351 179 Q419 117 565 117 Q680 117 790 157 Q848 178 930 219 L900 62 Q743 -31 536 -31 Q310 -31 199 88 Q105 189 105 365 Q105 531 159 699 Q219 889 355 989 Q480 1080 662 1080 Q1045 1080 1045 712 Q1045 618 1016 488 Z M853 623 Q865 697 865 750 Q865 945 661 945 Q483 945 394 794 Q358 732 330 623 L853 623 Z M810 1200 L664 1200 L484 1548 L677 1548 L810 1200 Z " />
<glyph glyph-name="ecircumflex" unicode="&#xea;" horiz-adv-x="1139" d="M1016 488 L304 488 Q289 420 289 354 Q289 236 351 179 Q419 117 565 117 Q680 117 790 157 Q848 178 930 219 L900 62 Q743 -31 536 -31 Q310 -31 199 88 Q105 189 105 365 Q105 531 159 699 Q219 889 355 989 Q480 1080 662 1080 Q1045 1080 1045 712 Q1045 618 1016 488 Z M853 623 Q865 697 865 750 Q865 945 661 945 Q483 945 394 794 Q358 732 330 623 L853 623 Z M388 1208 L677 1534 L830 1534 L996 1208 L859 1208 L734 1399 L533 1208 L388 1208 Z " />
<glyph glyph-name="edieresis" unicode="&#xeb;" horiz-adv-x="1139" d="M1016 488 L304 488 Q289 420 289 354 Q289 236 351 179 Q419 117 565 117 Q680 117 790 157 Q848 178 930 219 L900 62 Q743 -31 536 -31 Q310 -31 199 88 Q105 189 105 365 Q105 531 159 699 Q219 889 355 989 Q480 1080 662 1080 Q1045 1080 1045 712 Q1045 618 1016 488 Z M853 623 Q865 697 865 750 Q865 945 661 945 Q483 945 394 794 Q358 732 330 623 L853 623 Z M566 1482 Q614 1482 646 1450 Q675 1420 675 1373 Q675 1322 644 1289 Q610 1253 557 1253 Q507 1253 475 1285 Q446 1315 446 1362 Q446 1414 477 1446 Q512 1482 566 1482 Z M915 1482 Q964 1482 996 1450 Q1025 1420 1025 1373 Q1025 1322 994 1289 Q960 1253 907 1253 Q857 1253 825 1285 Q796 1315 796 1364 Q796 1414 827 1446 Q862 1482 915 1482 Z " />
<glyph glyph-name="iacute" unicode="&#xed;" horiz-adv-x="569" d="M89 0 L290 1032 Q390 1036 443 1084 L484 1073 L276 0 L89 0 Z M346 1200 L563 1548 L762 1548 L502 1200 L346 1200 Z " />
<glyph glyph-name="igrave" unicode="&#xec;" horiz-adv-x="569" d="M89 0 L290 1032 Q390 1036 443 1084 L484 1073 L276 0 L89 0 Z M501 1200 L355 1200 L175 1548 L368 1548 L501 1200 Z " />
<glyph glyph-name="icircumflex" unicode="&#xee;" horiz-adv-x="569" d="M89 0 L290 1032 Q390 1036 443 1084 L484 1073 L276 0 L89 0 Z M103 1208 L392 1534 L545 1534 L711 1208 L574 1208 L449 1399 L248 1208 L103 1208 Z " />
<glyph glyph-name="idieresis" unicode="&#xef;" horiz-adv-x="569" d="M89 0 L290 1032 Q390 1036 443 1084 L484 1073 L276 0 L89 0 Z M281 1482 Q329 1482 361 1450 Q390 1420 390 1373 Q390 1322 359 1289 Q325 1253 271 1253 Q222 1253 190 1285 Q161 1315 161 1362 Q161 1413 192 1446 Q227 1482 281 1482 Z M629 1482 Q679 1482 711 1450 Q740 1420 740 1373 Q740 1322 709 1289 Q675 1253 622 1253 Q572 1253 540 1285 Q511 1315 511 1364 Q511 1414 542 1446 Q577 1482 629 1482 Z " />
<glyph glyph-name="ntilde" unicode="&#xf1;" horiz-adv-x="1139" d="M64 0 L265 1032 Q365 1036 418 1084 L459 1073 L420 875 Q649 1079 819 1079 Q934 1079 991 1011 Q1039 955 1039 856 Q1039 812 1022 725 L881 0 L695 0 L833 711 Q845 773 845 804 Q845 921 738 921 Q648 921 545 861 Q489 828 397 756 L251 0 L64 0 Z M484 1259 L410 1326 Q500 1469 621 1469 Q669 1469 740 1438 Q800 1412 834 1412 Q898 1412 953 1480 L1024 1412 Q936 1269 818 1269 Q771 1269 699 1300 Q637 1326 602 1326 Q542 1326 484 1259 Z " />
<glyph glyph-name="oacute" unicode="&#xf3;" horiz-adv-x="1139" d="M633 1079 Q839 1079 947 960 Q1049 848 1049 671 Q1049 517 991 348 Q860 -33 495 -33 Q302 -33 193 88 Q90 201 90 392 Q90 535 139 688 Q205 899 361 1003 Q476 1079 633 1079 Z M632 944 Q447 944 364 753 Q325 665 298 516 Q280 418 280 357 Q280 106 497 106 Q676 106 763 269 Q796 333 828 484 Q856 614 856 696 Q856 944 632 944 Z M607 1200 L824 1548 L1023 1548 L763 1200 L607 1200 Z " />
<glyph glyph-name="ograve" unicode="&#xf2;" horiz-adv-x="1139" d="M633 1079 Q839 1079 947 960 Q1049 848 1049 671 Q1049 517 991 348 Q860 -33 495 -33 Q302 -33 193 88 Q90 201 90 392 Q90 535 139 688 Q205 899 361 1003 Q476 1079 633 1079 Z M632 944 Q447 944 364 753 Q325 665 298 516 Q280 418 280 357 Q280 106 497 106 Q676 106 763 269 Q796 333 828 484 Q856 614 856 696 Q856 944 632 944 Z M810 1200 L664 1200 L484 1548 L677 1548 L810 1200 Z " />
<glyph glyph-name="ocircumflex" unicode="&#xf4;" horiz-adv-x="1139" d="M633 1079 Q839 1079 947 960 Q1049 848 1049 671 Q1049 517 991 348 Q860 -33 495 -33 Q302 -33 193 88 Q90 201 90 392 Q90 535 139 688 Q205 899 361 1003 Q476 1079 633 1079 Z M632 944 Q447 944 364 753 Q325 665 298 516 Q280 418 280 357 Q280 106 497 106 Q676 106 763 269 Q796 333 828 484 Q856 614 856 696 Q856 944 632 944 Z M381 1208 L670 1534 L823 1534 L989 1208 L852 1208 L727 1399 L526 1208 L381 1208 Z " />
<glyph glyph-name="odieresis" unicode="&#xf6;" horiz-adv-x="1139" d="M633 1079 Q839 1079 947 960 Q1049 848 1049 671 Q1049 517 991 348 Q860 -33 495 -33 Q302 -33 193 88 Q90 201 90 392 Q90 535 139 688 Q205 899 361 1003 Q476 1079 633 1079 Z M632 944 Q447 944 364 753 Q325 665 298 516 Q280 418 280 357 Q280 106 497 106 Q676 106 763 269 Q796 333 828 484 Q856 614 856 696 Q856 944 632 944 Z M565 1482 Q613 1482 645 1450 Q674 1420 674 1373 Q674 1322 643 1289 Q609 1253 555 1253 Q506 1253 474 1285 Q445 1315 445 1362 Q445 1413 476 1446 Q511 1482 565 1482 Z M914 1482 Q964 1482 996 1450 Q1025 1420 1025 1373 Q1025 1322 994 1289 Q960 1253 907 1253 Q857 1253 825 1285 Q796 1315 796 1364 Q796 1414 827 1446 Q862 1482 914 1482 Z " />
<glyph glyph-name="otilde" unicode="&#xf5;" horiz-adv-x="1139" d="M633 1079 Q839 1079 947 960 Q1049 848 1049 671 Q1049 517 991 348 Q860 -33 495 -33 Q302 -33 193 88 Q90 201 90 392 Q90 535 139 688 Q205 899 361 1003 Q476 1079 633 1079 Z M632 944 Q447 944 364 753 Q325 665 298 516 Q280 418 280 357 Q280 106 497 106 Q676 106 763 269 Q796 333 828 484 Q856 614 856 696 Q856 944 632 944 Z M477 1259 L403 1326 Q493 1469 614 1469 Q662 1469 733 1438 Q793 1412 827 1412 Q891 1412 946 1480 L1017 1412 Q929 1269 811 1269 Q764 1269 692 1300 Q630 1326 595 1326 Q535 1326 477 1259 Z " />
<glyph glyph-name="uacute" unicode="&#xfa;" horiz-adv-x="1139" d="M256 1063 L442 1063 L305 356 Q290 278 290 243 Q290 114 419 114 Q502 114 594 165 Q643 193 737 260 L893 1063 L1079 1063 L873 0 L758 0 L731 158 Q633 75 561 34 Q444 -33 334 -33 Q215 -33 151 40 Q98 101 98 205 Q98 249 114 330 L256 1063 Z M589 1200 L806 1548 L1005 1548 L745 1200 L589 1200 Z " />
<glyph glyph-name="ugrave" unicode="&#xf9;" horiz-adv-x="1139" d="M256 1063 L442 1063 L305 356 Q290 278 290 243 Q290 114 419 114 Q502 114 594 165 Q643 193 737 260 L893 1063 L1079 1063 L873 0 L758 0 L731 158 Q633 75 561 34 Q444 -33 334 -33 Q215 -33 151 40 Q98 101 98 205 Q98 249 114 330 L256 1063 Z M798 1200 L652 1200 L472 1548 L665 1548 L798 1200 Z " />
<glyph glyph-name="ucircumflex" unicode="&#xfb;" horiz-adv-x="1139" d="M256 1063 L442 1063 L305 356 Q290 278 290 243 Q290 114 419 114 Q502 114 594 165 Q643 193 737 260 L893 1063 L1079 1063 L873 0 L758 0 L731 158 Q633 75 561 34 Q444 -33 334 -33 Q215 -33 151 40 Q98 101 98 205 Q98 249 114 330 L256 1063 Z M381 1208 L670 1534 L823 1534 L989 1208 L852 1208 L727 1399 L526 1208 L381 1208 Z " />
<glyph glyph-name="udieresis" unicode="&#xfc;" horiz-adv-x="1139" d="M256 1063 L442 1063 L305 356 Q290 278 290 243 Q290 114 419 114 Q502 114 594 165 Q643 193 737 260 L893 1063 L1079 1063 L873 0 L758 0 L731 158 Q633 75 561 34 Q444 -33 334 -33 Q215 -33 151 40 Q98 101 98 205 Q98 249 114 330 L256 1063 Z M551 1482 Q599 1482 631 1450 Q660 1420 660 1373 Q660 1322 629 1289 Q595 1253 541 1253 Q492 1253 460 1285 Q431 1315 431 1362 Q431 1413 462 1446 Q497 1482 551 1482 Z M899 1482 Q949 1482 981 1450 Q1010 1420 1010 1373 Q1010 1322 979 1289 Q945 1253 892 1253 Q842 1253 810 1285 Q781 1315 781 1364 Q781 1414 812 1446 Q847 1482 899 1482 Z " />
<glyph glyph-name="dagger" unicode="&#x2020;" horiz-adv-x="1139" d="M343 -205 L562 929 L251 929 L294 1083 L592 1083 L671 1489 L847 1489 L768 1083 L1076 1083 L1046 929 L738 929 L519 -205 L343 -205 Z " />
<glyph glyph-name="degree" unicode="&#xb0;" horiz-adv-x="819" d="M533 1483 Q678 1483 776 1384 Q867 1292 867 1158 Q867 1024 776 930 Q679 832 534 832 Q387 832 290 930 Q199 1023 199 1162 Q199 1294 290 1384 Q390 1483 533 1483 Z M533 1356 Q449 1356 395 1297 Q344 1241 344 1160 Q344 1074 395 1018 Q449 959 533 959 Q617 959 671 1018 Q722 1075 722 1158 Q722 1241 671 1297 Q616 1356 533 1356 Z " />
<glyph glyph-name="cent" unicode="&#xa2;" horiz-adv-x="1139" d="M235 -293 L369 6 Q283 47 239 111 Q174 203 174 358 Q174 505 224 668 Q348 1079 740 1079 Q779 1079 848 1071 L936 1266 L1061 1266 L962 1045 L1014 1024 L985 875 Q934 897 899 907 L547 123 Q559 120 573 120 Q716 120 879 190 L850 47 Q702 -29 553 -29 Q520 -29 481 -23 L360 -293 L235 -293 Z M784 928 Q760 930 739 930 Q608 930 530 872 Q458 818 423 707 Q396 621 371 493 Q352 398 352 336 Q352 256 381 206 Q397 178 436 154 L784 928 Z " />
<glyph glyph-name="sterling" unicode="&#xa3;" horiz-adv-x="1139" d="M175 666 L204 811 L341 811 L390 1067 Q426 1254 535 1362 Q658 1483 855 1483 Q991 1483 1121 1421 L1088 1262 Q973 1327 854 1327 Q739 1327 671 1264 Q602 1200 572 1049 L525 811 L855 811 L826 666 L497 666 L398 154 L937 154 L896 0 L48 0 L77 154 L214 154 L312 666 L175 666 Z " />
<glyph glyph-name="section" unicode="&#xa7;" horiz-adv-x="1139" d="M731 256 Q805 159 805 49 Q805 -111 695 -211 Q583 -313 384 -313 Q193 -313 41 -215 L71 -59 Q143 -105 191 -126 Q278 -163 380 -163 Q494 -163 558 -108 Q619 -55 619 36 Q619 120 554 182 Q523 213 483 239 Q476 244 369 310 Q281 364 228 421 Q147 507 147 618 Q147 738 231 823 Q302 895 448 928 Q390 1013 390 1115 Q390 1293 504 1391 Q608 1481 795 1481 Q941 1481 1075 1413 L1044 1254 Q977 1290 935 1305 Q862 1330 778 1330 Q577 1330 577 1145 Q577 1067 629 1012 Q668 971 708 947 L808 886 Q903 829 954 775 Q1030 696 1030 586 Q1030 426 919 336 Q854 283 731 256 Z M639 344 Q715 356 760 384 Q791 402 818 441 Q860 502 860 551 Q860 646 694 748 L545 840 Q329 812 329 650 Q329 536 477 445 L639 344 Z " />
<glyph glyph-name="bullet" unicode="&#x2022;" horiz-adv-x="717" d="M389 1013 Q522 1013 612 920 Q696 833 696 706 Q696 580 612 492 Q522 399 390 399 Q256 399 166 492 Q82 580 82 710 Q82 835 166 920 Q258 1013 389 1013 Z " />
<glyph glyph-name="paragraph" unicode="&#xb6;" horiz-adv-x="1100" d="M618 -215 L920 1337 L753 1337 L619 649 Q587 645 557 645 Q350 645 254 765 Q182 853 182 996 Q182 1180 271 1313 Q389 1489 646 1489 L1126 1489 L797 -215 L618 -215 Z " />
<glyph glyph-name="germandbls" unicode="&#xdf;" horiz-adv-x="1251" d="M61 0 L283 1141 Q323 1348 464 1451 Q596 1548 806 1548 Q996 1548 1094 1467 Q1181 1395 1181 1277 Q1181 1160 1101 1068 Q1053 1012 938 924 Q859 865 834 839 Q790 795 790 750 Q790 708 840 662 Q866 639 960 572 Q1044 512 1081 454 Q1124 387 1124 300 Q1124 163 1031 74 Q925 -27 733 -27 Q576 -27 453 45 L481 188 Q539 154 567 142 Q637 112 725 112 Q847 112 901 170 Q942 214 942 281 Q942 351 895 400 Q875 422 784 485 Q707 539 667 587 Q616 650 616 722 Q616 807 674 875 Q712 919 810 1000 Q909 1083 939 1118 Q997 1187 997 1268 Q997 1331 955 1370 Q904 1417 799 1417 Q657 1417 576 1346 Q495 1276 465 1120 L247 0 L61 0 Z " />
<glyph glyph-name="registered" unicode="&#xae;" horiz-adv-x="1509" d="M567 438 L567 1087 L833 1087 Q1036 1087 1036 906 Q1036 768 891 736 Q934 716 966 664 L1106 438 L958 438 L839 637 Q817 675 801 688 Q781 705 745 705 L696 705 L696 438 L567 438 Z M696 795 L809 795 Q905 795 905 887 Q905 987 813 987 L696 987 L696 795 Z M797 1425 Q1065 1425 1242 1249 Q1339 1153 1390 1019 Q1439 890 1439 745 Q1439 538 1343 373 Q1261 231 1123 152 Q977 68 791 68 Q529 68 352 243 Q155 437 155 745 Q155 1052 352 1249 Q528 1425 797 1425 Z M796 1345 Q566 1345 419 1197 Q251 1028 251 745 Q251 463 419 295 Q566 148 791 148 Q1027 148 1175 296 Q1343 464 1343 746 Q1343 1026 1174 1197 Q1027 1345 796 1345 Z " />
<glyph glyph-name="copyright" unicode="&#xa9;" horiz-adv-x="1509" d="M1013 428 Q926 389 828 389 Q661 389 574 495 Q503 582 503 742 Q503 918 590 1010 Q678 1104 831 1104 Q920 1104 1005 1073 L1005 967 Q928 1002 847 1002 Q748 1002 698 947 Q646 889 646 743 Q646 602 700 544 Q750 491 844 491 Q926 491 1013 535 L1013 428 Z M797 1425 Q1065 1425 1242 1249 Q1339 1153 1390 1019 Q1439 890 1439 745 Q1439 538 1343 373 Q1261 231 1123 152 Q977 68 791 68 Q529 68 352 243 Q155 437 155 745 Q155 1052 352 1249 Q528 1425 797 1425 Z M796 1345 Q566 1345 419 1197 Q251 1028 251 745 Q251 463 419 295 Q566 148 791 148 Q1027 148 1175 296 Q1343 464 1343 746 Q1343 1026 1174 1197 Q1027 1345 796 1345 Z " />
<glyph glyph-name="trademark" unicode="&#x2122;" horiz-adv-x="2048" d="M467 1391 L492 1489 L1036 1489 L1018 1391 L807 1391 L686 768 L555 768 L676 1391 L467 1391 Z M1012 768 L1169 1489 L1315 1489 L1419 1022 L1710 1489 L1876 1489 L1737 768 L1604 768 L1710 1311 L1413 842 L1339 842 L1237 1301 L1122 768 L1012 768 Z " />
<glyph glyph-name="acute" unicode="&#xb4;" horiz-adv-x="682" d="M378 1200 L595 1548 L794 1548 L534 1200 L378 1200 Z " />
<glyph glyph-name="dieresis" unicode="&#xa8;" horiz-adv-x="682" d="M337 1482 Q385 1482 417 1450 Q446 1420 446 1373 Q446 1322 415 1289 Q381 1253 327 1253 Q278 1253 246 1285 Q217 1315 217 1362 Q217 1413 248 1446 Q283 1482 337 1482 Z M685 1482 Q735 1482 767 1450 Q796 1420 796 1373 Q796 1322 765 1289 Q731 1253 678 1253 Q628 1253 596 1285 Q567 1315 567 1364 Q567 1414 598 1446 Q633 1482 685 1482 Z " />
<glyph glyph-name="notequal" unicode="&#x2260;" horiz-adv-x="1124" d="M146 775 L175 922 L682 922 L852 1176 L960 1126 L823 922 L1105 922 L1076 775 L724 775 L604 595 L1041 595 L1013 448 L506 448 L336 194 L228 244 L365 448 L83 448 L112 595 L463 595 L583 775 L146 775 Z " />
<glyph glyph-name="AE" unicode="&#xc6;" horiz-adv-x="2048" d="M1007 406 L479 406 L172 0 L-33 0 L1116 1489 L2119 1489 L2090 1339 L1385 1339 L1288 838 L1859 838 L1830 688 L1259 688 L1154 150 L1931 150 L1882 0 L928 0 L1007 406 Z M1037 558 L1190 1345 L593 558 L1037 558 Z " />
<glyph glyph-name="Oslash" unicode="&#xd8;" horiz-adv-x="1593" d="M296 196 Q213 335 213 530 Q213 737 287 962 Q376 1234 570 1383 Q752 1524 997 1524 Q1230 1524 1373 1393 L1520 1556 L1684 1556 L1450 1297 Q1532 1156 1532 960 Q1532 750 1446 495 Q1356 228 1151 86 Q981 -31 756 -31 Q522 -31 374 100 L201 -92 L37 -92 L296 196 Z M1315 1146 L489 228 Q583 116 758 116 Q991 116 1133 299 Q1221 413 1278 630 Q1333 845 1333 992 Q1333 1077 1315 1146 Z M431 346 L1257 1264 Q1163 1377 983 1377 Q747 1377 610 1197 Q526 1086 470 873 Q412 650 412 504 Q412 419 431 346 Z " />
<glyph glyph-name="infinity" unicode="&#x221e;" horiz-adv-x="1460" d="M766 612 Q729 555 708 531 Q572 367 389 367 Q218 367 127 480 Q54 570 54 713 Q54 855 127 945 Q218 1058 389 1058 Q573 1058 708 894 Q730 868 766 813 Q803 868 824 894 Q959 1058 1144 1058 Q1314 1058 1406 945 Q1478 855 1478 713 Q1478 570 1406 480 Q1314 367 1144 367 Q959 367 824 531 Q802 558 766 612 Z M689 713 L677 733 Q624 823 548 883 Q474 942 395 942 Q301 942 249 877 Q197 812 197 713 Q197 607 255 541 Q306 483 395 483 Q481 483 571 563 Q641 626 678 692 L689 713 Z M843 713 L854 693 Q888 626 978 549 Q1056 483 1137 483 Q1226 483 1277 541 Q1335 607 1335 712 Q1335 812 1283 877 Q1231 942 1138 942 Q1053 942 974 876 Q902 816 855 733 L843 713 Z " />
<glyph glyph-name="plusminus" unicode="&#xb1;" horiz-adv-x="1124" d="M115 611 L143 758 L524 758 L606 1180 L774 1180 L692 758 L1073 758 L1044 611 L664 611 L590 231 L422 231 L496 611 L115 611 Z M-4 0 L25 147 L954 147 L926 0 L-4 0 Z " />
<glyph glyph-name="lessequal" unicode="&#x2264;" horiz-adv-x="1124" d="M949 246 L113 592 L148 774 L1119 1122 L1086 952 L285 684 L982 416 L949 246 Z M-2 0 L27 147 L930 147 L901 0 L-2 0 Z " />
<glyph glyph-name="greaterequal" unicode="&#x2265;" horiz-adv-x="1124" d="M69 246 L102 416 L904 684 L206 952 L239 1122 L1075 776 L1040 594 L69 246 Z M21 0 L50 147 L953 147 L924 0 L21 0 Z " />
<glyph glyph-name="yen" unicode="&#xa5;" horiz-adv-x="1139" d="M162 559 L187 690 L504 690 L248 1446 L439 1446 L635 823 L1037 1446 L1223 1446 L721 690 L1037 690 L1012 559 L678 559 L648 399 L982 399 L955 268 L623 268 L572 0 L388 0 L439 268 L105 268 L132 399 L463 399 L494 559 L162 559 Z " />
<glyph glyph-name="mu" unicode="&#xb5;" horiz-adv-x="1180" d="M909 0 L785 0 L766 154 Q679 85 611 44 Q481 -33 357 -33 Q299 -33 248 -15 L174 -397 L-13 -397 L268 1051 L459 1071 L321 363 Q306 285 306 245 Q306 122 450 122 Q547 122 659 179 Q703 201 770 244 L927 1051 L1117 1071 L909 0 Z " />
<glyph glyph-name="partialdiff" unicode="&#x2202;" horiz-adv-x="1012" d="M405 1548 L612 1548 Q750 1438 828 1325 Q984 1099 984 812 Q984 642 928 436 Q882 267 818 175 Q675 -33 429 -33 Q261 -33 163 65 Q52 176 52 366 Q52 549 121 732 Q196 931 351 1021 Q451 1079 566 1079 Q704 1079 778 969 Q698 1302 405 1548 Z M577 944 Q412 944 332 770 Q297 697 265 534 Q242 422 242 350 Q242 106 439 106 Q615 106 693 303 Q722 378 748 507 Q772 631 772 705 Q772 798 735 862 Q688 944 577 944 Z " />
<glyph glyph-name="summation" unicode="&#x2211;" horiz-adv-x="1460" d="M1549 1690 L1520 1540 L1388 1540 L1024 -332 L825 -332 L1189 1540 L669 1540 L305 -332 L106 -332 L470 1540 L337 1540 L366 1690 L1549 1690 Z " />
<glyph glyph-name="product" unicode="&#x220f;" horiz-adv-x="1686" d="M177 -332 L211 -156 L818 732 L577 1546 L605 1690 L1546 1690 L1517 1541 L781 1541 L1025 717 L407 -182 L1252 -182 L1223 -332 L177 -332 Z " />
<glyph glyph-name="integral" unicode="&#x222b;" horiz-adv-x="561" d="M5 -332 L5 -193 Q61 -209 105 -209 Q184 -209 204 -135 Q213 -105 213 5 L213 1309 Q213 1537 242 1601 Q299 1723 486 1723 Q558 1723 621 1700 L621 1561 Q563 1577 520 1577 Q441 1577 421 1504 Q412 1472 412 1364 L412 60 Q412 -170 382 -233 Q325 -355 139 -355 Q67 -355 5 -332 Z " />
<glyph glyph-name="ordfeminine" unicode="&#xaa;" horiz-adv-x="758" d="M604 807 Q488 675 347 675 Q242 675 185 742 Q131 807 131 926 Q131 1030 169 1169 Q255 1483 525 1483 Q645 1483 725 1394 L770 1468 L858 1468 L754 927 Q743 872 743 829 Q743 759 768 727 L762 700 L618 700 L604 807 Z M690 1329 Q625 1374 547 1374 Q401 1374 346 1242 Q315 1167 293 1052 Q278 975 278 907 Q278 779 386 779 Q456 779 522 824 Q558 849 608 901 L690 1329 Z " />
<glyph glyph-name="ordmasculine" unicode="&#xba;" horiz-adv-x="748" d="M535 1483 Q695 1483 770 1389 Q829 1315 829 1192 Q829 1046 776 912 Q739 820 670 761 Q572 678 426 678 Q279 678 204 767 Q141 843 141 971 Q141 1123 190 1252 Q235 1369 334 1430 Q420 1483 535 1483 Z M534 1381 Q394 1381 340 1250 Q312 1183 292 1079 Q278 1003 278 956 Q278 784 431 784 Q582 784 635 929 Q657 989 673 1081 Q686 1161 686 1212 Q686 1381 534 1381 Z " />
<glyph glyph-name="Omega" unicode="&#x2126;" horiz-adv-x="1573" d="M-63 0 L-37 132 L271 132 Q100 299 100 542 Q100 768 188 985 Q287 1231 481 1378 Q674 1524 943 1524 Q1241 1524 1399 1357 Q1473 1280 1513 1173 Q1556 1058 1556 936 Q1556 708 1475 507 Q1385 281 1176 132 L1460 132 L1434 0 L806 0 L833 139 L865 139 Q1015 139 1160 316 Q1256 435 1304 600 Q1357 779 1357 947 Q1357 1136 1264 1251 Q1163 1377 945 1377 Q654 1377 488 1141 Q389 999 341 809 Q299 646 299 510 Q299 322 402 211 Q469 139 560 139 L592 139 L566 0 L-63 0 Z " />
<glyph glyph-name="ae" unicode="&#xe6;" horiz-adv-x="1821" d="M838 191 Q666 -33 405 -33 Q253 -33 166 50 Q90 122 90 241 Q90 436 262 535 Q373 598 588 613 Q627 615 826 621 L836 677 Q849 742 849 771 Q849 934 626 934 Q461 934 266 854 L295 1004 Q474 1081 657 1081 Q820 1081 905 1019 Q951 985 981 922 Q1128 1079 1357 1079 Q1558 1079 1653 963 Q1726 872 1726 715 Q1726 619 1697 486 L985 486 Q971 417 971 357 Q971 234 1036 176 Q1102 117 1249 117 Q1367 117 1485 162 Q1536 181 1612 219 L1581 62 Q1423 -31 1220 -31 Q1033 -31 930 56 Q874 103 838 191 Z M799 486 L763 485 Q541 475 481 464 Q372 443 323 388 Q277 337 277 246 Q277 102 441 102 Q565 102 648 158 Q696 191 756 264 L799 486 Z M1534 623 Q1547 695 1547 752 Q1547 846 1502 892 Q1452 944 1339 944 Q1190 944 1104 839 Q1057 781 1028 684 Q1022 664 1012 623 L1534 623 Z " />
<glyph glyph-name="oslash" unicode="&#xf8;" horiz-adv-x="1251" d="M218 127 Q146 234 146 393 Q146 535 195 688 Q261 899 417 1003 Q531 1079 689 1079 Q858 1079 961 999 L1058 1112 L1219 1112 L1043 906 Q1105 803 1105 670 Q1105 518 1047 348 Q979 150 839 50 Q722 -33 555 -33 Q409 -33 304 39 L193 -92 L31 -92 L218 127 Z M343 274 L859 879 Q802 944 688 944 Q503 944 420 753 Q382 665 354 517 Q336 419 336 348 Q336 315 343 274 Z M909 748 L404 156 Q462 106 554 106 Q732 106 819 269 Q852 332 885 485 Q912 613 912 696 Q912 719 909 748 Z " />
<glyph glyph-name="questiondown" unicode="&#xbf;" horiz-adv-x="1251" d="M806 1282 Q866 1282 904 1243 Q940 1206 940 1150 Q940 1089 901 1048 Q860 1004 796 1004 Q735 1004 697 1043 Q662 1080 662 1136 Q662 1198 700 1238 Q743 1282 806 1282 Z M658 803 L818 803 L797 692 Q780 607 731 544 Q683 482 533 385 Q404 301 362 255 Q287 172 287 62 Q287 -114 519 -114 Q679 -114 890 -24 L856 -196 Q661 -272 475 -272 Q273 -272 170 -167 Q89 -84 89 50 Q89 195 175 301 Q231 369 409 481 Q518 549 559 583 Q626 638 641 715 L658 803 Z " />
<glyph glyph-name="exclamdown" unicode="&#xa1;" horiz-adv-x="682" d="M472 1283 Q532 1283 571 1243 Q606 1207 606 1150 Q606 1089 567 1048 Q526 1004 461 1004 Q401 1004 363 1044 Q327 1080 327 1137 Q327 1199 366 1239 Q409 1283 472 1283 Z M467 805 L305 -236 L88 -236 L338 805 L467 805 Z " />
<glyph glyph-name="logicalnot" unicode="&#xac;" horiz-adv-x="1196" d="M877 298 L709 298 L770 611 L207 611 L236 758 L966 758 L877 298 Z " />
<glyph glyph-name="radical" unicode="&#x221a;" horiz-adv-x="1124" d="M326 0 L252 666 L101 666 L127 801 L417 801 L468 252 L1251 1806 L1839 1806 L1813 1674 L1371 1674 L526 0 L326 0 Z " />
<glyph glyph-name="florin" unicode="&#x192;" horiz-adv-x="1139" d="M256 709 L283 846 L496 846 L551 1135 Q617 1479 958 1479 L1053 1479 L1025 1331 Q996 1336 967 1336 Q769 1336 729 1125 L676 846 L940 846 L913 709 L651 709 L449 -381 L264 -381 L469 709 L256 709 Z " />
<glyph glyph-name="approxequal" unicode="&#x2248;" horiz-adv-x="1124" d="M188 358 L108 432 Q267 615 426 615 Q487 615 598 581 Q692 553 737 553 Q815 553 930 649 L1009 573 Q942 496 883 454 Q791 389 692 389 Q630 389 520 422 Q425 451 380 451 Q301 451 188 358 Z M260 727 L180 801 Q338 983 497 983 Q558 983 670 950 Q764 922 809 922 Q888 922 1001 1018 L1081 942 Q1014 865 955 823 Q863 758 763 758 Q702 758 592 791 Q496 819 452 819 Q372 819 260 727 Z " />
<glyph glyph-name="increment" unicode="&#x2206;" horiz-adv-x="1253" d="M1170 0 L-119 0 L711 1489 L925 1489 L1170 0 Z M164 144 L944 144 L773 1272 L164 144 Z " />
<glyph glyph-name="guillemotleft" unicode="&#xab;" horiz-adv-x="1139" d="M504 104 L371 104 L169 504 L186 592 L510 977 L658 977 L353 536 L504 104 Z M898 104 L764 104 L564 504 L581 592 L904 977 L1051 977 L748 536 L898 104 Z " />
<glyph glyph-name="guillemotright" unicode="&#xbb;" horiz-adv-x="1139" d="M488 104 L793 545 L642 977 L775 977 L977 577 L960 489 L636 104 L488 104 Z M95 104 L398 545 L249 977 L382 977 L582 577 L565 489 L242 104 L95 104 Z " />
<glyph glyph-name="ellipsis" unicode="&#x2026;" horiz-adv-x="2048" d="M266 248 Q326 248 365 208 Q400 172 400 116 Q400 54 362 13 Q320 -31 256 -31 Q196 -31 157 8 Q122 45 122 102 Q122 164 161 204 Q203 248 266 248 Z M949 248 Q1009 248 1048 208 Q1083 172 1083 116 Q1083 54 1045 13 Q1003 -31 939 -31 Q879 -31 840 8 Q805 45 805 102 Q805 164 844 204 Q886 248 949 248 Z M1632 248 Q1692 248 1731 208 Q1766 172 1766 116 Q1766 54 1727 13 Q1686 -31 1621 -31 Q1561 -31 1523 8 Q1487 45 1487 102 Q1487 164 1526 204 Q1568 248 1632 248 Z " />
<glyph glyph-name="Agrave" unicode="&#xc0;" horiz-adv-x="1366" d="M989 406 L385 406 L167 0 L-17 0 L804 1497 L1011 1497 L1243 0 L1048 0 L989 406 Z M968 547 L859 1289 L461 547 L968 547 Z M989 1612 L843 1612 L674 1931 L867 1931 L989 1612 Z " />
<glyph glyph-name="Atilde" unicode="&#xc3;" horiz-adv-x="1366" d="M989 406 L385 406 L167 0 L-17 0 L804 1497 L1011 1497 L1243 0 L1048 0 L989 406 Z M968 547 L859 1289 L461 547 L968 547 Z M703 1641 L629 1709 Q720 1852 840 1852 Q887 1852 959 1821 Q1019 1795 1053 1795 Q1116 1795 1172 1863 L1244 1795 Q1155 1652 1037 1652 Q989 1652 918 1683 Q856 1709 821 1709 Q761 1709 703 1641 Z " />
<glyph glyph-name="Otilde" unicode="&#xd5;" horiz-adv-x="1593" d="M987 1524 Q1268 1524 1411 1348 Q1532 1198 1532 949 Q1532 735 1447 488 Q1355 221 1155 84 Q988 -31 754 -31 Q477 -31 332 147 Q213 292 213 541 Q213 753 285 970 Q375 1243 565 1387 Q745 1524 987 1524 Z M982 1370 Q661 1370 526 1046 Q474 920 439 749 Q412 614 412 504 Q412 299 521 201 Q608 123 758 123 Q993 123 1134 304 Q1225 420 1279 632 Q1333 840 1333 992 Q1333 1182 1241 1277 Q1150 1370 982 1370 Z M812 1641 L738 1709 Q829 1852 949 1852 Q996 1852 1068 1821 Q1128 1795 1162 1795 Q1225 1795 1281 1863 L1353 1795 Q1264 1652 1146 1652 Q1098 1652 1027 1683 Q965 1709 930 1709 Q870 1709 812 1641 Z " />
<glyph glyph-name="OE" unicode="&#x152;" horiz-adv-x="2048" d="M1270 688 L1166 150 L1930 150 L1885 0 L761 0 Q503 0 365 118 Q217 246 217 503 Q217 700 271 904 Q371 1280 631 1412 Q729 1463 856 1480 Q918 1489 1051 1489 L2113 1489 L2084 1339 L1397 1339 L1300 838 L1853 838 L1824 688 L1270 688 Z M1200 1339 L998 1339 Q721 1339 583 1153 Q501 1043 458 842 Q415 640 415 489 Q415 309 513 226 Q604 150 791 150 L969 150 L1200 1339 Z " />
<glyph glyph-name="oe" unicode="&#x153;" horiz-adv-x="1933" d="M1035 863 L1040 870 Q1122 979 1209 1024 Q1315 1079 1456 1079 Q1667 1079 1764 963 Q1839 872 1839 715 Q1839 619 1811 488 L1070 488 Q1056 422 1056 364 Q1056 235 1130 176 Q1202 117 1360 117 Q1480 117 1598 162 Q1649 181 1724 219 L1694 62 Q1536 -31 1333 -31 Q1132 -31 1028 69 Q981 114 943 207 Q867 100 790 48 Q670 -33 512 -33 Q306 -33 193 89 Q91 199 91 383 Q91 542 150 706 Q218 893 369 993 Q500 1079 669 1079 Q869 1079 977 956 Q1016 910 1035 863 Z M658 944 Q457 944 368 758 Q330 679 299 516 Q282 422 282 363 Q282 106 519 106 Q713 106 805 269 Q843 336 877 501 Q900 613 900 690 Q900 792 854 857 Q793 944 658 944 Z M1647 623 Q1660 694 1660 746 Q1660 846 1612 892 Q1557 944 1438 944 Q1281 944 1192 839 Q1142 781 1113 684 Q1107 664 1097 623 L1647 623 Z " />
<glyph glyph-name="endash" unicode="&#x2013;" horiz-adv-x="1139" d="M122 611 L151 758 L1080 758 L1052 611 L122 611 Z " />
<glyph glyph-name="emdash" unicode="&#x2014;" horiz-adv-x="2048" d="M319 611 L348 758 L1794 758 L1765 611 L319 611 Z " />
<glyph glyph-name="quotedblleft" unicode="&#x201c;" horiz-adv-x="682" d="M656 1309 Q767 1310 767 1216 Q767 1167 734 1134 Q701 1100 648 1100 Q589 1100 555 1147 Q529 1183 529 1238 Q529 1385 654 1476 Q726 1529 855 1550 L837 1471 Q771 1451 734 1423 Q683 1384 656 1309 Z M319 1309 Q429 1310 429 1216 Q429 1167 396 1134 Q363 1100 311 1100 Q251 1100 218 1147 Q192 1183 192 1238 Q192 1384 317 1476 Q389 1529 517 1550 L499 1471 Q433 1451 397 1423 Q346 1384 319 1309 Z " />
<glyph glyph-name="quotedblright" unicode="&#x201d;" horiz-adv-x="682" d="M340 1342 Q326 1341 317 1341 Q281 1341 256 1365 Q229 1390 229 1434 Q229 1483 262 1516 Q295 1550 348 1550 Q408 1550 441 1504 Q467 1467 467 1411 Q467 1266 342 1174 Q270 1121 141 1100 L159 1180 Q225 1199 262 1228 Q313 1266 340 1342 Z M677 1342 Q663 1341 654 1341 Q619 1341 594 1365 Q567 1390 567 1434 Q567 1483 600 1516 Q633 1550 685 1550 Q745 1550 778 1504 Q804 1467 804 1411 Q804 1266 679 1174 Q607 1121 479 1100 L497 1180 Q562 1199 599 1228 Q650 1266 677 1342 Z " />
<glyph glyph-name="quoteleft" unicode="&#x2018;" horiz-adv-x="455" d="M374 1309 Q484 1310 484 1216 Q484 1167 451 1134 Q418 1100 366 1100 Q306 1100 273 1147 Q247 1183 247 1238 Q247 1384 372 1476 Q444 1529 572 1550 L554 1471 Q488 1451 452 1423 Q401 1384 374 1309 Z " />
<glyph glyph-name="quoteright" unicode="&#x2019;" horiz-adv-x="455" d="M395 1342 Q381 1341 372 1341 Q336 1341 311 1365 Q284 1390 284 1434 Q284 1483 317 1516 Q350 1550 403 1550 Q463 1550 496 1504 Q522 1467 522 1411 Q522 1266 397 1174 Q325 1121 196 1100 L214 1180 Q280 1199 317 1228 Q368 1266 395 1342 Z " />
<glyph glyph-name="divide" unicode="&#xf7;" horiz-adv-x="1124" d="M115 611 L144 758 L1073 758 L1045 611 L115 611 Z M675 1208 Q734 1208 773 1168 Q808 1131 808 1075 Q808 1019 773 982 Q735 942 675 942 Q615 942 577 982 Q542 1019 542 1077 Q542 1132 577 1168 Q616 1208 675 1208 Z M513 426 Q572 426 611 386 Q646 349 646 293 Q646 237 611 200 Q572 160 513 160 Q454 160 415 200 Q380 237 380 295 Q380 350 415 386 Q455 426 513 426 Z " />
<glyph glyph-name="lozenge" unicode="&#x25ca;" horiz-adv-x="1012" d="M550 -86 L-57 744 L550 1573 L1157 744 L550 -86 Z M550 191 L942 744 L550 1296 L158 744 L550 191 Z " />
<glyph glyph-name="ydieresis" unicode="&#xff;" horiz-adv-x="1024" d="M21 -399 L351 129 L154 1061 L343 1061 L478 344 L904 1061 L1080 1061 L199 -399 L21 -399 Z M484 1482 Q532 1482 564 1450 Q593 1420 593 1373 Q593 1322 562 1289 Q528 1253 474 1253 Q425 1253 393 1285 Q364 1315 364 1362 Q364 1413 395 1446 Q430 1482 484 1482 Z M832 1482 Q882 1482 914 1450 Q943 1420 943 1373 Q943 1322 912 1289 Q878 1253 825 1253 Q775 1253 743 1285 Q714 1315 714 1364 Q714 1414 745 1446 Q780 1482 832 1482 Z " />
<glyph glyph-name="Ydieresis" unicode="&#x178;" horiz-adv-x="1366" d="M529 0 L647 608 L329 1489 L528 1489 L784 770 L1271 1489 L1466 1489 L836 586 L723 0 L529 0 Z M744 1866 Q792 1866 824 1833 Q853 1803 853 1756 Q853 1706 821 1672 Q787 1636 734 1636 Q684 1636 652 1669 Q623 1699 623 1745 Q623 1797 654 1830 Q689 1866 744 1866 Z M1092 1865 Q1141 1865 1173 1833 Q1202 1802 1202 1756 Q1202 1705 1170 1672 Q1136 1636 1084 1636 Q1034 1636 1002 1668 Q973 1698 973 1747 Q973 1797 1004 1829 Q1039 1865 1092 1865 Z " />
<glyph glyph-name="fraction" unicode="&#x2044;" horiz-adv-x="342" d="M-493 0 L762 1446 L914 1446 L-343 0 L-493 0 Z " />
<glyph glyph-name="Euro" unicode="&#x20ac;" horiz-adv-x="1139" d="M151 811 L178 942 L323 942 Q354 1054 382 1124 Q529 1483 899 1483 Q1054 1483 1203 1417 L1173 1268 Q1035 1333 900 1333 Q720 1333 631 1218 Q559 1126 510 942 L878 942 L854 811 L483 811 L448 629 L819 629 L792 498 L428 498 Q423 459 423 425 Q423 294 461 226 Q518 121 698 121 Q829 121 983 189 L950 33 Q816 -31 666 -31 Q239 -31 239 411 Q239 444 244 498 L92 498 L119 629 L260 629 L295 811 L151 811 Z " />
<glyph glyph-name="guilsinglleft" unicode="&#x2039;" horiz-adv-x="682" d="M473 104 L340 104 L138 504 L155 592 L479 977 L627 977 L322 536 L473 104 Z " />
<glyph glyph-name="guilsinglright" unicode="&#x203a;" horiz-adv-x="682" d="M63 104 L368 545 L217 977 L350 977 L552 577 L535 489 L210 104 L63 104 Z " />
<glyph glyph-name="fi" unicode="&#xfb01;" horiz-adv-x="1024" d="M234 924 L129 924 L156 1061 L260 1061 L289 1219 Q349 1548 649 1548 L742 1548 L713 1398 Q678 1403 648 1403 Q553 1403 511 1347 Q482 1307 463 1210 L434 1061 L809 1061 Q925 1061 964 1084 L1005 1073 L797 0 L611 0 L790 924 L410 924 L176 -279 L0 -279 L234 924 Z M975 1458 Q1028 1458 1063 1423 Q1094 1391 1094 1340 Q1094 1285 1059 1248 Q1022 1208 964 1208 Q910 1208 875 1243 Q844 1275 844 1328 Q844 1382 879 1418 Q917 1458 975 1458 Z " />
<glyph glyph-name="fl" unicode="&#xfb02;" horiz-adv-x="1024" d="M234 924 L129 924 L156 1061 L260 1061 L284 1184 Q320 1369 440 1459 Q559 1549 768 1549 Q939 1549 1084 1510 L789 0 L606 0 L877 1391 Q810 1403 743 1403 Q603 1403 534 1336 Q479 1282 459 1178 L436 1061 L649 1061 L622 924 L410 924 L176 -279 L0 -279 L234 924 Z " />
<glyph glyph-name="daggerdbl" unicode="&#x2021;" horiz-adv-x="1139" d="M114 201 L144 355 L451 355 L563 929 L251 929 L294 1083 L592 1083 L671 1489 L848 1489 L769 1083 L1076 1083 L1046 929 L739 929 L627 355 L939 355 L896 201 L597 201 L519 -205 L342 -205 L421 201 L114 201 Z " />
<glyph glyph-name="periodcentered" unicode="&#xb7;" horiz-adv-x="569" d="M321 819 Q381 819 420 780 Q455 744 455 687 Q455 626 417 585 Q375 541 310 541 Q250 541 212 580 Q176 617 176 673 Q176 735 215 775 Q258 819 321 819 Z " />
<glyph glyph-name="quotesinglbase" unicode="&#x201a;" horiz-adv-x="455" d="M142 39 Q128 38 119 38 Q83 38 58 62 Q31 88 31 131 Q31 181 64 214 Q97 248 150 248 Q210 248 243 201 Q269 165 269 109 Q269 -37 144 -128 Q72 -181 -57 -203 L-39 -123 Q27 -103 64 -75 Q116 -36 142 39 Z " />
<glyph glyph-name="quotedblbase" unicode="&#x201e;" horiz-adv-x="682" d="M87 39 Q73 38 64 38 Q28 38 3 62 Q-24 88 -24 131 Q-24 181 9 214 Q42 248 95 248 Q155 248 188 201 Q214 165 214 109 Q214 -37 89 -128 Q17 -181 -112 -203 L-94 -123 Q-28 -103 9 -75 Q61 -36 87 39 Z M424 39 Q410 38 401 38 Q366 38 341 62 Q314 88 314 131 Q314 181 347 214 Q380 248 432 248 Q492 248 525 201 Q551 165 551 109 Q551 -37 426 -128 Q354 -181 226 -203 L244 -123 Q310 -103 346 -75 Q398 -36 424 39 Z " />
<glyph glyph-name="perthousand" unicode="&#x2030;" horiz-adv-x="2048" d="M486 1477 Q607 1477 676 1404 Q738 1337 738 1228 Q738 1144 707 1025 Q637 762 421 762 Q287 762 220 845 Q166 912 166 1023 Q166 1117 195 1224 Q264 1477 486 1477 Z M486 1362 Q386 1362 351 1243 Q311 1104 311 995 Q311 879 417 879 Q502 879 537 964 Q559 1017 574 1116 Q588 1202 588 1241 Q588 1362 486 1362 Z M107 0 L1223 1446 L1364 1446 L246 0 L107 0 Z M1060 688 Q1181 688 1250 615 Q1312 549 1312 439 Q1312 354 1281 236 Q1212 -27 996 -27 Q861 -27 794 56 Q740 123 740 235 Q740 327 769 435 Q838 688 1060 688 Z M1061 573 Q960 573 926 454 Q885 313 885 205 Q885 90 991 90 Q1077 90 1112 175 Q1134 228 1149 327 Q1163 415 1163 453 Q1163 573 1061 573 Z M1709 688 Q1830 688 1898 615 Q1960 549 1960 439 Q1960 354 1929 236 Q1860 -27 1644 -27 Q1509 -27 1443 56 Q1389 123 1389 235 Q1389 326 1418 435 Q1486 688 1709 688 Z M1709 573 Q1609 573 1574 454 Q1534 313 1534 205 Q1534 90 1640 90 Q1725 90 1760 175 Q1782 228 1797 327 Q1811 415 1811 453 Q1811 573 1709 573 Z " />
<glyph glyph-name="Acircumflex" unicode="&#xc2;" horiz-adv-x="1366" d="M989 406 L385 406 L167 0 L-17 0 L804 1497 L1011 1497 L1243 0 L1048 0 L989 406 Z M968 547 L859 1289 L461 547 L968 547 Z M605 1612 L893 1931 L1046 1931 L1213 1612 L1076 1612 L951 1802 L750 1612 L605 1612 Z " />
<glyph glyph-name="Ecircumflex" unicode="&#xca;" horiz-adv-x="1366" d="M153 0 L442 1489 L1413 1489 L1384 1339 L610 1339 L512 838 L1149 838 L1120 688 L483 688 L379 150 L1224 150 L1179 0 L153 0 Z M624 1612 L912 1931 L1065 1931 L1232 1612 L1095 1612 L970 1802 L769 1612 L624 1612 Z " />
<glyph glyph-name="Aacute" unicode="&#xc1;" horiz-adv-x="1366" d="M989 406 L385 406 L167 0 L-17 0 L804 1497 L1011 1497 L1243 0 L1048 0 L989 406 Z M968 547 L859 1289 L461 547 L968 547 Z M849 1612 L1044 1931 L1243 1931 L1005 1612 L849 1612 Z " />
<glyph glyph-name="Edieresis" unicode="&#xcb;" horiz-adv-x="1366" d="M153 0 L442 1489 L1413 1489 L1384 1339 L610 1339 L512 838 L1149 838 L1120 688 L483 688 L379 150 L1224 150 L1179 0 L153 0 Z M787 1866 Q835 1866 867 1833 Q896 1803 896 1756 Q896 1706 864 1672 Q830 1636 777 1636 Q727 1636 695 1669 Q666 1699 666 1745 Q666 1797 697 1830 Q732 1866 787 1866 Z M1135 1865 Q1184 1865 1216 1833 Q1245 1802 1245 1756 Q1245 1705 1213 1672 Q1179 1636 1127 1636 Q1077 1636 1045 1668 Q1016 1698 1016 1747 Q1016 1797 1047 1829 Q1082 1865 1135 1865 Z " />
<glyph glyph-name="Egrave" unicode="&#xc8;" horiz-adv-x="1366" d="M153 0 L442 1489 L1413 1489 L1384 1339 L610 1339 L512 838 L1149 838 L1120 688 L483 688 L379 150 L1224 150 L1179 0 L153 0 Z M1050 1612 L904 1612 L735 1931 L928 1931 L1050 1612 Z " />
<glyph glyph-name="Iacute" unicode="&#xcd;" horiz-adv-x="569" d="M116 0 L405 1489 L602 1489 L313 0 L116 0 Z M451 1612 L646 1931 L845 1931 L607 1612 L451 1612 Z " />
<glyph glyph-name="Icircumflex" unicode="&#xce;" horiz-adv-x="569" d="M116 0 L405 1489 L602 1489 L313 0 L116 0 Z M225 1612 L513 1931 L666 1931 L833 1612 L696 1612 L571 1802 L370 1612 L225 1612 Z " />
<glyph glyph-name="Idieresis" unicode="&#xcf;" horiz-adv-x="569" d="M116 0 L405 1489 L602 1489 L313 0 L116 0 Z M388 1866 Q436 1866 468 1833 Q497 1803 497 1756 Q497 1706 465 1672 Q431 1636 378 1636 Q328 1636 296 1669 Q267 1699 267 1745 Q267 1797 298 1830 Q333 1866 388 1866 Z M736 1865 Q785 1865 817 1833 Q846 1802 846 1756 Q846 1705 814 1672 Q780 1636 728 1636 Q678 1636 646 1668 Q617 1698 617 1747 Q617 1797 648 1829 Q683 1865 736 1865 Z " />
<glyph glyph-name="Igrave" unicode="&#xcc;" horiz-adv-x="569" d="M116 0 L405 1489 L602 1489 L313 0 L116 0 Z M603 1612 L457 1612 L288 1931 L481 1931 L603 1612 Z " />
<glyph glyph-name="Oacute" unicode="&#xd3;" horiz-adv-x="1593" d="M987 1524 Q1268 1524 1411 1348 Q1532 1198 1532 949 Q1532 735 1447 488 Q1355 221 1155 84 Q988 -31 754 -31 Q477 -31 332 147 Q213 292 213 541 Q213 753 285 970 Q375 1243 565 1387 Q745 1524 987 1524 Z M982 1370 Q661 1370 526 1046 Q474 920 439 749 Q412 614 412 504 Q412 299 521 201 Q608 123 758 123 Q993 123 1134 304 Q1225 420 1279 632 Q1333 840 1333 992 Q1333 1182 1241 1277 Q1150 1370 982 1370 Z M963 1612 L1158 1931 L1357 1931 L1119 1612 L963 1612 Z " />
<glyph glyph-name="Ocircumflex" unicode="&#xd4;" horiz-adv-x="1593" d="M987 1524 Q1268 1524 1411 1348 Q1532 1198 1532 949 Q1532 735 1447 488 Q1355 221 1155 84 Q988 -31 754 -31 Q477 -31 332 147 Q213 292 213 541 Q213 753 285 970 Q375 1243 565 1387 Q745 1524 987 1524 Z M982 1370 Q661 1370 526 1046 Q474 920 439 749 Q412 614 412 504 Q412 299 521 201 Q608 123 758 123 Q993 123 1134 304 Q1225 420 1279 632 Q1333 840 1333 992 Q1333 1182 1241 1277 Q1150 1370 982 1370 Z M732 1612 L1020 1931 L1173 1931 L1340 1612 L1203 1612 L1078 1802 L877 1612 L732 1612 Z " />
<glyph glyph-name="Ograve" unicode="&#xd2;" horiz-adv-x="1593" d="M987 1524 Q1268 1524 1411 1348 Q1532 1198 1532 949 Q1532 735 1447 488 Q1355 221 1155 84 Q988 -31 754 -31 Q477 -31 332 147 Q213 292 213 541 Q213 753 285 970 Q375 1243 565 1387 Q745 1524 987 1524 Z M982 1370 Q661 1370 526 1046 Q474 920 439 749 Q412 614 412 504 Q412 299 521 201 Q608 123 758 123 Q993 123 1134 304 Q1225 420 1279 632 Q1333 840 1333 992 Q1333 1182 1241 1277 Q1150 1370 982 1370 Z M1152 1612 L1006 1612 L837 1931 L1030 1931 L1152 1612 Z " />
<glyph glyph-name="Uacute" unicode="&#xda;" horiz-adv-x="1479" d="M413 1489 L610 1489 L430 559 Q413 473 413 408 Q413 270 488 201 Q566 129 737 129 Q859 129 934 168 Q1034 221 1087 345 Q1121 427 1142 537 L1327 1489 L1502 1489 L1314 522 Q1268 289 1174 161 Q1032 -31 733 -31 Q219 -31 219 411 Q219 490 236 575 L413 1489 Z M870 1612 L1065 1931 L1264 1931 L1026 1612 L870 1612 Z " />
<glyph glyph-name="Ucircumflex" unicode="&#xdb;" horiz-adv-x="1479" d="M413 1489 L610 1489 L430 559 Q413 473 413 408 Q413 270 488 201 Q566 129 737 129 Q859 129 934 168 Q1034 221 1087 345 Q1121 427 1142 537 L1327 1489 L1502 1489 L1314 522 Q1268 289 1174 161 Q1032 -31 733 -31 Q219 -31 219 411 Q219 490 236 575 L413 1489 Z M662 1612 L950 1931 L1103 1931 L1270 1612 L1133 1612 L1008 1802 L807 1612 L662 1612 Z " />
<glyph glyph-name="Ugrave" unicode="&#xd9;" horiz-adv-x="1479" d="M413 1489 L610 1489 L430 559 Q413 473 413 408 Q413 270 488 201 Q566 129 737 129 Q859 129 934 168 Q1034 221 1087 345 Q1121 427 1142 537 L1327 1489 L1502 1489 L1314 522 Q1268 289 1174 161 Q1032 -31 733 -31 Q219 -31 219 411 Q219 490 236 575 L413 1489 Z M1094 1612 L948 1612 L779 1931 L972 1931 L1094 1612 Z " />
<glyph glyph-name="dotlessi" unicode="&#x131;" horiz-adv-x="569" d="M89 0 L290 1032 Q390 1036 443 1084 L484 1073 L276 0 L89 0 Z " />
<glyph glyph-name="circumflex" unicode="&#x2c6;" horiz-adv-x="682" d="M171 1208 L460 1534 L613 1534 L779 1208 L642 1208 L517 1399 L316 1208 L171 1208 Z " />
<glyph glyph-name="tilde" unicode="&#x2dc;" horiz-adv-x="682" d="M273 1259 L199 1326 Q289 1469 410 1469 Q458 1469 529 1438 Q589 1412 623 1412 Q687 1412 742 1480 L813 1412 Q725 1269 607 1269 Q560 1269 488 1300 Q426 1326 391 1326 Q331 1326 273 1259 Z " />
<glyph glyph-name="overscore" unicode="&#xaf;" horiz-adv-x="682" d="M233 1288 L263 1444 L777 1444 L747 1288 L233 1288 Z " />
<glyph glyph-name="breve" unicode="&#x2d8;" horiz-adv-x="682" d="M262 1507 L399 1507 Q402 1380 515 1380 Q630 1380 666 1507 L805 1507 Q784 1412 737 1352 Q650 1241 506 1241 Q392 1241 324 1312 Q261 1378 261 1475 Q261 1485 262 1507 Z " />
<glyph glyph-name="dotaccent" unicode="&#x2d9;" horiz-adv-x="682" d="M512 1489 Q564 1489 597 1455 Q627 1424 627 1375 Q627 1321 593 1286 Q557 1247 501 1247 Q448 1247 415 1281 Q385 1312 385 1363 Q385 1416 419 1450 Q456 1489 512 1489 Z " />
<glyph glyph-name="ring" unicode="&#x2da;" horiz-adv-x="682" d="M522 1630 Q624 1630 686 1568 Q742 1512 742 1426 Q742 1334 682 1272 Q616 1204 508 1204 Q405 1204 343 1266 Q287 1322 287 1411 Q287 1502 347 1562 Q415 1630 522 1630 Z M522 1538 Q461 1538 427 1493 Q402 1460 402 1409 Q402 1362 424 1334 Q453 1296 507 1296 Q568 1296 602 1341 Q627 1374 627 1427 Q627 1473 605 1500 Q575 1538 522 1538 Z " />
<glyph glyph-name="cedilla" unicode="&#xb8;" horiz-adv-x="682" d="M32 -348 L206 0 L358 0 L222 -348 L32 -348 Z " />
<glyph glyph-name="hungarumlaut" unicode="&#x2dd;" horiz-adv-x="682" d="M552 1200 L702 1548 L880 1548 L700 1200 L552 1200 Z M237 1200 L389 1548 L567 1548 L384 1200 L237 1200 Z " />
<glyph glyph-name="ogonek" unicode="&#x2db;" horiz-adv-x="682" d="M408 -410 Q337 -428 292 -428 Q183 -428 128 -367 Q84 -318 84 -247 Q84 -108 266 0 L371 0 Q310 -61 284 -99 Q244 -154 244 -210 Q244 -289 338 -289 Q378 -289 434 -276 L408 -410 Z " />
<glyph glyph-name="caron" unicode="&#x2c7;" horiz-adv-x="682" d="M401 1212 L235 1538 L372 1538 L497 1349 L698 1538 L843 1538 L557 1212 L401 1212 Z " />
<glyph glyph-name="currency" unicode="&#xa4;" horiz-adv-x="1139" d="M162 179 L52 290 L179 419 Q149 468 131 510 Q92 601 92 720 Q92 851 142 955 Q157 984 179 1021 L52 1149 L162 1261 L285 1136 Q426 1229 601 1229 Q775 1229 917 1137 L1040 1261 L1150 1149 L1023 1020 Q1110 883 1110 720 Q1110 588 1060 485 Q1045 455 1023 419 L1150 290 L1040 179 L917 303 Q781 211 600 211 Q462 211 353 264 Q322 279 285 303 L162 179 Z M601 1060 Q464 1060 378 970 Q288 875 288 725 Q288 566 378 470 Q464 380 602 380 Q739 380 824 471 Q914 567 914 720 Q914 876 824 970 Q736 1060 601 1060 Z " />
<glyph glyph-name="brokenbar" unicode="&#xa6;" horiz-adv-x="532" d="M66 0 L184 606 L382 606 L265 0 L66 0 Z M238 883 L355 1489 L554 1489 L436 883 L238 883 Z " />
<glyph glyph-name="uni00AD" unicode="&#xad;" horiz-adv-x="682" d="M106 604 L136 758 L638 758 L608 604 L106 604 Z " />
<glyph glyph-name="twosuperior" unicode="&#xb2;" horiz-adv-x="682" d="M74 724 L94 822 Q325 964 426 1041 Q587 1163 587 1264 Q587 1366 455 1366 Q358 1366 204 1292 L231 1432 Q347 1490 491 1490 Q603 1490 672 1449 Q758 1397 758 1290 Q758 1141 634 1034 Q537 950 366 846 L695 846 L654 724 L74 724 Z " />
<glyph glyph-name="threesuperior" unicode="&#xb3;" horiz-adv-x="682" d="M85 680 L111 805 Q547 839 547 989 Q547 1069 440 1069 Q407 1069 341 1060 L290 1054 L312 1168 L389 1178 Q486 1191 528 1219 Q569 1245 569 1295 Q569 1372 452 1372 Q362 1372 223 1317 L247 1442 Q380 1490 487 1490 Q732 1490 732 1321 Q732 1194 624 1140 Q717 1103 717 1011 Q717 866 588 790 Q481 727 292 699 Q236 690 85 680 Z " />
<glyph glyph-name="onesuperior" unicode="&#xb9;" horiz-adv-x="682" d="M139 724 L161 834 L341 834 L437 1328 L233 1270 L257 1393 L533 1481 L632 1481 L507 834 L679 834 L658 724 L139 724 Z " />
<glyph glyph-name="onequarter" unicode="&#xbc;" horiz-adv-x="1708" d="M181 724 L203 834 L383 834 L479 1328 L275 1270 L299 1393 L575 1481 L674 1481 L549 834 L721 834 L700 724 L181 724 Z M190 0 L1445 1446 L1597 1446 L340 0 L190 0 Z M1255 0 L1284 153 L858 153 L876 245 L1361 793 L1541 793 L1080 269 L1307 269 L1352 502 L1499 519 L1451 269 L1550 269 L1527 153 L1428 153 L1398 0 L1255 0 Z " />
<glyph glyph-name="onehalf" unicode="&#xbd;" horiz-adv-x="1708" d="M181 724 L203 834 L383 834 L479 1328 L275 1270 L299 1393 L575 1481 L674 1481 L549 834 L721 834 L700 724 L181 724 Z M178 0 L1433 1446 L1585 1446 L328 0 L178 0 Z M918 0 L937 98 Q1167 240 1269 317 Q1430 439 1430 540 Q1430 642 1298 642 Q1202 642 1048 568 L1075 708 Q1191 766 1334 766 Q1446 766 1515 725 Q1601 673 1601 566 Q1601 416 1477 310 Q1380 225 1210 122 L1539 122 L1498 0 L918 0 Z " />
<glyph glyph-name="threequarters" unicode="&#xbe;" horiz-adv-x="1708" d="M139 680 L165 805 Q601 839 601 989 Q601 1069 494 1069 Q461 1069 395 1060 L344 1054 L366 1168 L443 1178 Q540 1191 582 1219 Q623 1245 623 1295 Q623 1372 506 1372 Q416 1372 277 1317 L301 1442 Q434 1490 541 1490 Q786 1490 786 1321 Q786 1194 678 1140 Q771 1103 771 1011 Q771 866 642 790 Q535 727 346 699 Q290 690 139 680 Z M202 0 L1457 1446 L1609 1446 L351 0 L202 0 Z M1230 0 L1260 153 L833 153 L851 245 L1336 793 L1516 793 L1055 269 L1282 269 L1327 502 L1474 519 L1426 269 L1525 269 L1502 153 L1403 153 L1373 0 L1230 0 Z " />
<glyph glyph-name="Eth" unicode="&#xd0;" horiz-adv-x="1479" d="M267 688 L127 688 L156 840 L296 840 L423 1489 L862 1489 Q1076 1489 1209 1411 Q1425 1283 1425 976 Q1425 817 1381 630 Q1231 0 610 0 L133 0 L267 688 Z M465 688 L360 150 L607 150 Q906 150 1055 346 Q1138 455 1182 654 Q1222 836 1222 973 Q1222 1182 1099 1271 Q1005 1339 829 1339 L592 1339 L495 840 L875 840 L846 688 L465 688 Z " />
<glyph glyph-name="multiply" unicode="&#xd7;" horiz-adv-x="1196" d="M628 565 L311 248 L200 358 L517 676 L198 997 L309 1110 L630 788 L950 1110 L1060 997 L741 678 L1060 358 L950 246 L628 565 Z " />
<glyph glyph-name="Yacute" unicode="&#xdd;" horiz-adv-x="1366" d="M529 0 L647 608 L329 1489 L528 1489 L784 770 L1271 1489 L1466 1489 L836 586 L723 0 L529 0 Z M807 1612 L1002 1931 L1201 1931 L963 1612 L807 1612 Z " />
<glyph glyph-name="Thorn" unicode="&#xde;" horiz-adv-x="1366" d="M557 1188 L890 1188 Q1113 1188 1217 1105 Q1331 1013 1331 836 Q1331 704 1270 576 Q1145 313 739 313 Q592 313 404 344 L393 346 L326 0 L129 0 L418 1489 L615 1489 L557 1188 Z M528 1038 L421 492 Q427 491 436 489 Q615 460 732 460 Q967 460 1062 588 Q1132 682 1132 831 Q1132 954 1052 1004 Q997 1038 882 1038 L528 1038 Z " />
<glyph glyph-name="eth" unicode="&#xf0;" horiz-adv-x="1139" d="M425 1163 L448 1284 L668 1362 Q581 1461 469 1548 L676 1548 Q757 1488 828 1419 L1115 1519 L1091 1399 L903 1331 Q1060 1092 1060 816 Q1060 638 996 412 Q936 201 818 91 Q685 -33 493 -33 Q297 -33 191 90 Q96 199 96 370 Q96 554 165 732 Q242 931 404 1021 Q508 1079 632 1079 Q787 1079 875 969 Q832 1127 735 1272 L425 1163 Z M643 944 Q469 944 382 783 Q343 712 309 541 Q286 425 286 356 Q286 106 500 106 Q670 106 754 269 Q791 341 824 514 Q847 630 847 698 Q847 828 783 893 Q732 944 643 944 Z " />
<glyph glyph-name="yacute" unicode="&#xfd;" horiz-adv-x="1024" d="M21 -399 L351 129 L154 1061 L343 1061 L478 344 L904 1061 L1080 1061 L199 -399 L21 -399 Z M562 1200 L779 1548 L978 1548 L718 1200 L562 1200 Z " />
<glyph glyph-name="thorn" unicode="&#xfe;" horiz-adv-x="1139" d="M266 92 L171 -397 L-16 -397 L353 1499 Q454 1503 505 1550 L550 1550 L421 887 Q605 1079 776 1079 Q902 1079 977 983 Q1051 888 1051 718 Q1051 566 994 380 Q936 191 827 86 Q703 -33 537 -33 Q382 -33 266 92 Z M287 199 Q385 112 501 112 Q641 112 729 235 Q788 320 824 477 Q857 622 857 712 Q857 808 812 867 Q772 921 694 921 Q613 921 524 864 Q479 836 397 766 L287 199 Z " />
<glyph glyph-name="Amacron" unicode="&#x100;" horiz-adv-x="1366" d="M989 406 L385 406 L167 0 L-17 0 L804 1497 L1011 1497 L1243 0 L1048 0 L989 406 Z M968 547 L859 1289 L461 547 L968 547 Z M658 1671 L688 1827 L1202 1827 L1172 1671 L658 1671 Z " />
<glyph glyph-name="amacron" unicode="&#x101;" horiz-adv-x="1139" d="M684 131 Q529 -33 365 -33 Q239 -33 159 35 Q78 105 78 228 Q78 446 267 533 Q361 576 542 598 Q587 603 736 614 L771 617 L787 697 Q797 745 797 775 Q797 929 611 929 Q497 929 388 893 Q327 872 238 832 L266 985 Q458 1079 637 1079 Q819 1079 907 990 Q981 914 981 789 Q981 740 971 688 L883 238 Q875 196 875 182 Q875 129 941 129 Q970 129 1002 137 L977 10 Q913 -14 854 -14 Q708 -14 684 131 Z M746 487 Q478 464 395 438 Q260 395 260 246 Q260 106 408 106 Q563 106 701 262 L746 487 Z M419 1288 L449 1444 L963 1444 L933 1288 L419 1288 Z " />
<glyph glyph-name="Abreve" unicode="&#x102;" horiz-adv-x="1366" d="M989 406 L385 406 L167 0 L-17 0 L804 1497 L1011 1497 L1243 0 L1048 0 L989 406 Z M968 547 L859 1289 L461 547 L968 547 Z M693 1894 L830 1894 Q832 1767 946 1767 Q1061 1767 1097 1894 L1236 1894 Q1216 1800 1168 1739 Q1082 1628 937 1628 Q823 1628 755 1699 Q692 1765 692 1861 Q692 1871 693 1894 Z " />
<glyph glyph-name="abreve" unicode="&#x103;" horiz-adv-x="1139" d="M684 131 Q529 -33 365 -33 Q239 -33 159 35 Q78 105 78 228 Q78 446 267 533 Q361 576 542 598 Q587 603 736 614 L771 617 L787 697 Q797 745 797 775 Q797 929 611 929 Q497 929 388 893 Q327 872 238 832 L266 985 Q458 1079 637 1079 Q819 1079 907 990 Q981 914 981 789 Q981 740 971 688 L883 238 Q875 196 875 182 Q875 129 941 129 Q970 129 1002 137 L977 10 Q913 -14 854 -14 Q708 -14 684 131 Z M746 487 Q478 464 395 438 Q260 395 260 246 Q260 106 408 106 Q563 106 701 262 L746 487 Z M454 1507 L591 1507 Q594 1380 707 1380 Q822 1380 858 1507 L997 1507 Q976 1412 929 1352 Q842 1241 698 1241 Q584 1241 516 1312 Q453 1378 453 1475 Q453 1485 454 1507 Z " />
<glyph glyph-name="Aogonek" unicode="&#x104;" horiz-adv-x="1366" d="M989 406 L385 406 L167 0 L-17 0 L804 1497 L1011 1497 L1243 0 L1195 0 Q1131 -65 1108 -99 Q1068 -154 1068 -210 Q1068 -289 1162 -289 Q1202 -289 1258 -276 L1232 -410 Q1162 -428 1115 -428 Q1007 -428 952 -367 Q908 -318 908 -247 Q908 -110 1090 0 L1048 0 L989 406 Z M968 547 L859 1289 L461 547 L968 547 Z " />
<glyph glyph-name="aogonek" unicode="&#x105;" horiz-adv-x="1139" d="M684 131 Q529 -33 365 -33 Q239 -33 159 35 Q78 105 78 228 Q78 446 267 533 Q386 588 695 611 L771 617 L787 697 Q797 745 797 775 Q797 929 611 929 Q497 929 388 893 Q327 872 238 832 L266 985 Q458 1079 637 1079 Q819 1079 907 990 Q981 914 981 789 Q981 740 971 688 L883 238 Q875 196 875 182 Q875 129 941 129 Q970 129 1002 137 L977 10 Q926 -9 876 -14 Q833 -57 807 -92 Q762 -152 762 -210 Q762 -289 857 -289 Q896 -289 952 -276 L926 -410 Q856 -428 810 -428 Q701 -428 646 -367 Q602 -318 602 -247 Q602 -110 781 -2 Q701 31 684 131 Z M746 487 Q479 465 395 438 Q260 395 260 246 Q260 106 408 106 Q563 106 701 262 L746 487 Z " />
<glyph glyph-name="Cacute" unicode="&#x106;" horiz-adv-x="1479" d="M1528 1347 L1423 1205 Q1247 1370 997 1370 Q697 1370 557 1109 Q490 983 447 777 Q414 618 414 494 Q414 324 512 230 Q625 122 846 122 Q1082 122 1277 284 L1369 129 Q1294 77 1221 45 Q1053 -31 830 -31 Q637 -31 516 20 Q349 89 274 227 Q211 341 211 528 Q211 771 308 1029 Q416 1315 614 1434 Q765 1524 979 1524 Q1321 1524 1528 1347 Z M955 1612 L1150 1931 L1349 1931 L1111 1612 L955 1612 Z " />
<glyph glyph-name="cacute" unicode="&#x107;" horiz-adv-x="1024" d="M838 238 L923 99 Q756 -33 514 -33 Q309 -33 201 69 Q90 175 90 364 Q90 555 160 739 Q290 1079 634 1079 Q931 1079 1032 848 L888 772 Q871 819 854 846 Q793 944 646 944 Q454 944 371 764 Q324 664 297 524 Q278 430 278 359 Q278 228 350 164 Q413 108 523 108 Q699 108 838 238 Z M574 1200 L791 1548 L990 1548 L730 1200 L574 1200 Z " />
<glyph glyph-name="Ccircumflex" unicode="&#x108;" horiz-adv-x="1479" d="M1528 1347 L1423 1205 Q1247 1370 997 1370 Q697 1370 557 1109 Q490 983 447 777 Q414 618 414 494 Q414 324 512 230 Q625 122 846 122 Q1082 122 1277 284 L1369 129 Q1294 77 1221 45 Q1053 -31 830 -31 Q637 -31 516 20 Q349 89 274 227 Q211 341 211 528 Q211 771 308 1029 Q416 1315 614 1434 Q765 1524 979 1524 Q1321 1524 1528 1347 Z M711 1612 L999 1931 L1152 1931 L1319 1612 L1182 1612 L1057 1802 L856 1612 L711 1612 Z " />
<glyph glyph-name="ccircumflex" unicode="&#x109;" horiz-adv-x="1024" d="M838 238 L923 99 Q756 -33 514 -33 Q309 -33 201 69 Q90 175 90 364 Q90 555 160 739 Q290 1079 634 1079 Q931 1079 1032 848 L888 772 Q871 819 854 846 Q793 944 646 944 Q454 944 371 764 Q324 664 297 524 Q278 430 278 359 Q278 228 350 164 Q413 108 523 108 Q699 108 838 238 Z M372 1208 L661 1534 L814 1534 L980 1208 L843 1208 L718 1399 L517 1208 L372 1208 Z " />
<glyph glyph-name="Cdotaccent" unicode="&#x10a;" horiz-adv-x="1479" d="M1528 1347 L1423 1205 Q1247 1370 997 1370 Q697 1370 557 1109 Q490 983 447 777 Q414 618 414 494 Q414 324 512 230 Q625 122 846 122 Q1082 122 1277 284 L1369 129 Q1294 77 1221 45 Q1053 -31 830 -31 Q637 -31 516 20 Q349 89 274 227 Q211 341 211 528 Q211 771 308 1029 Q416 1315 614 1434 Q765 1524 979 1524 Q1321 1524 1528 1347 Z M1066 1872 Q1117 1872 1151 1838 Q1181 1808 1181 1758 Q1181 1704 1147 1669 Q1110 1630 1055 1630 Q1002 1630 969 1664 Q939 1695 939 1746 Q939 1799 973 1833 Q1010 1872 1066 1872 Z " />
<glyph glyph-name="cdotaccent" unicode="&#x10b;" horiz-adv-x="1024" d="M838 238 L923 99 Q756 -33 514 -33 Q309 -33 201 69 Q90 175 90 364 Q90 555 160 739 Q290 1079 634 1079 Q931 1079 1032 848 L888 772 Q871 819 854 846 Q793 944 646 944 Q454 944 371 764 Q324 664 297 524 Q278 430 278 359 Q278 228 350 164 Q413 108 523 108 Q699 108 838 238 Z M726 1489 Q778 1489 811 1455 Q841 1424 841 1375 Q841 1321 807 1286 Q771 1247 715 1247 Q662 1247 629 1281 Q599 1312 599 1363 Q599 1416 633 1450 Q670 1489 726 1489 Z " />
<glyph glyph-name="Ccaron" unicode="&#x10c;" horiz-adv-x="1479" d="M1528 1347 L1423 1205 Q1247 1370 997 1370 Q697 1370 557 1109 Q490 983 447 777 Q414 618 414 494 Q414 324 512 230 Q625 122 846 122 Q1082 122 1277 284 L1369 129 Q1294 77 1221 45 Q1053 -31 830 -31 Q637 -31 516 20 Q349 89 274 227 Q211 341 211 528 Q211 771 308 1029 Q416 1315 614 1434 Q765 1524 979 1524 Q1321 1524 1528 1347 Z M976 1612 L809 1931 L946 1931 L1071 1743 L1272 1931 L1417 1931 L1132 1612 L976 1612 Z " />
<glyph glyph-name="ccaron" unicode="&#x10d;" horiz-adv-x="1024" d="M838 238 L923 99 Q756 -33 514 -33 Q309 -33 201 69 Q90 175 90 364 Q90 555 160 739 Q290 1079 634 1079 Q931 1079 1032 848 L888 772 Q871 819 854 846 Q793 944 646 944 Q454 944 371 764 Q324 664 297 524 Q278 430 278 359 Q278 228 350 164 Q413 108 523 108 Q699 108 838 238 Z M596 1212 L430 1538 L567 1538 L692 1349 L893 1538 L1038 1538 L752 1212 L596 1212 Z " />
<glyph glyph-name="Dcaron" unicode="&#x10e;" horiz-adv-x="1479" d="M133 0 L422 1489 L862 1489 Q1076 1489 1209 1411 Q1425 1283 1425 975 Q1425 817 1381 630 Q1231 0 610 0 L133 0 Z M360 150 L607 150 Q906 150 1055 347 Q1138 455 1182 655 Q1222 836 1222 972 Q1222 1182 1099 1271 Q1006 1339 829 1339 L591 1339 L360 150 Z M795 1612 L628 1931 L765 1931 L890 1743 L1091 1931 L1236 1931 L951 1612 L795 1612 Z " />
<glyph glyph-name="dcaron" unicode="&#x10f;" horiz-adv-x="1280" d="M838 0 L723 0 L703 166 Q523 -33 337 -33 Q207 -33 130 53 Q48 144 48 307 Q48 476 109 672 Q179 898 327 1001 Q439 1079 581 1079 Q727 1079 840 971 L943 1499 Q1043 1503 1094 1550 L1139 1550 L838 0 Z M818 854 Q722 925 606 925 Q426 925 336 752 Q295 673 266 521 Q242 394 242 321 Q242 231 281 171 Q319 112 404 112 Q489 112 587 176 Q626 201 703 264 L818 854 Z M1223 1171 L1362 1548 L1567 1548 L1377 1171 L1223 1171 Z " />
<glyph glyph-name="Dcroat" unicode="&#x110;" horiz-adv-x="1479" d="M267 688 L127 688 L156 840 L296 840 L423 1489 L862 1489 Q1076 1489 1209 1411 Q1425 1283 1425 976 Q1425 817 1381 630 Q1231 0 610 0 L133 0 L267 688 Z M465 688 L360 150 L607 150 Q906 150 1055 346 Q1138 455 1182 654 Q1222 836 1222 973 Q1222 1182 1099 1271 Q1005 1339 829 1339 L592 1339 L495 840 L875 840 L846 688 L465 688 Z " />
<glyph glyph-name="dcroat" unicode="&#x111;" horiz-adv-x="1139" d="M873 0 L758 0 L738 166 Q558 -33 372 -33 Q242 -33 165 53 Q83 144 83 307 Q83 476 144 672 Q214 898 362 1001 Q474 1079 616 1079 Q762 1079 875 971 L920 1200 L623 1200 L651 1345 L948 1345 L978 1499 Q1078 1503 1129 1550 L1174 1550 L1134 1345 L1279 1345 L1251 1200 L1106 1200 L873 0 Z M853 854 Q757 925 641 925 Q461 925 371 752 Q330 673 301 521 Q277 394 277 321 Q277 231 316 171 Q354 112 439 112 Q524 112 622 176 Q661 201 738 264 L853 854 Z " />
<glyph glyph-name="Emacron" unicode="&#x112;" horiz-adv-x="1366" d="M153 0 L442 1489 L1413 1489 L1384 1339 L610 1339 L512 838 L1149 838 L1120 688 L483 688 L379 150 L1224 150 L1179 0 L153 0 Z M665 1671 L695 1827 L1209 1827 L1179 1671 L665 1671 Z " />
<glyph glyph-name="emacron" unicode="&#x113;" horiz-adv-x="1139" d="M1016 488 L304 488 Q289 420 289 354 Q289 236 351 179 Q419 117 565 117 Q680 117 790 157 Q848 178 930 219 L900 62 Q743 -31 536 -31 Q310 -31 199 88 Q105 189 105 365 Q105 531 159 699 Q219 889 355 989 Q480 1080 662 1080 Q1045 1080 1045 712 Q1045 618 1016 488 Z M853 623 Q865 697 865 750 Q865 945 661 945 Q483 945 394 794 Q358 732 330 623 L853 623 Z M444 1288 L474 1444 L988 1444 L958 1288 L444 1288 Z " />
<glyph glyph-name="Ebreve" unicode="&#x114;" horiz-adv-x="1366" d="M153 0 L442 1489 L1413 1489 L1384 1339 L610 1339 L512 838 L1149 838 L1120 688 L483 688 L379 150 L1224 150 L1179 0 L153 0 Z M694 1894 L831 1894 Q833 1767 947 1767 Q1062 1767 1098 1894 L1237 1894 Q1217 1800 1169 1739 Q1083 1628 938 1628 Q824 1628 756 1699 Q693 1765 693 1861 Q693 1871 694 1894 Z " />
<glyph glyph-name="Edotaccent" unicode="&#x116;" horiz-adv-x="1366" d="M153 0 L442 1489 L1413 1489 L1384 1339 L610 1339 L512 838 L1149 838 L1120 688 L483 688 L379 150 L1224 150 L1179 0 L153 0 Z M980 1872 Q1031 1872 1065 1838 Q1095 1808 1095 1758 Q1095 1704 1061 1669 Q1024 1630 969 1630 Q916 1630 883 1664 Q853 1695 853 1746 Q853 1799 887 1833 Q924 1872 980 1872 Z " />
<glyph glyph-name="edotaccent" unicode="&#x117;" horiz-adv-x="1139" d="M1016 488 L304 488 Q289 420 289 354 Q289 236 351 179 Q419 117 565 117 Q680 117 790 157 Q848 178 930 219 L900 62 Q743 -31 536 -31 Q310 -31 199 88 Q105 189 105 365 Q105 531 159 699 Q219 889 355 989 Q480 1080 662 1080 Q1045 1080 1045 712 Q1045 618 1016 488 Z M853 623 Q865 697 865 750 Q865 945 661 945 Q483 945 394 794 Q358 732 330 623 L853 623 Z M729 1489 Q781 1489 814 1455 Q844 1424 844 1375 Q844 1321 810 1286 Q774 1247 718 1247 Q665 1247 632 1281 Q602 1312 602 1363 Q602 1416 636 1450 Q673 1489 729 1489 Z " />
<glyph glyph-name="Eogonek" unicode="&#x118;" horiz-adv-x="1366" d="M153 0 L442 1489 L1413 1489 L1384 1339 L610 1339 L512 838 L1149 838 L1120 688 L483 688 L379 150 L1224 150 L1179 0 L1078 0 Q1022 -59 996 -93 Q952 -152 952 -210 Q952 -289 1046 -289 Q1086 -289 1142 -276 L1116 -410 Q1046 -428 999 -428 Q891 -428 836 -367 Q792 -318 792 -247 Q792 -109 974 0 L153 0 Z " />
<glyph glyph-name="eogonek" unicode="&#x119;" horiz-adv-x="1139" d="M1016 488 L304 488 Q289 420 289 354 Q289 236 351 179 Q419 117 565 117 Q680 117 790 157 Q848 178 930 219 L900 62 Q837 25 775 4 Q717 -54 688 -92 Q644 -152 644 -210 Q644 -289 738 -289 Q778 -289 834 -276 L808 -410 Q738 -428 692 -428 Q583 -428 528 -367 Q484 -318 484 -247 Q484 -125 624 -26 Q582 -31 537 -31 Q310 -31 199 88 Q105 189 105 365 Q105 531 159 699 Q219 889 355 989 Q480 1080 662 1080 Q1045 1080 1045 712 Q1045 618 1016 488 Z M853 623 Q865 697 865 750 Q865 945 661 945 Q483 945 394 794 Q358 732 330 623 L853 623 Z " />
<glyph glyph-name="Ecaron" unicode="&#x11a;" horiz-adv-x="1366" d="M153 0 L442 1489 L1413 1489 L1384 1339 L610 1339 L512 838 L1149 838 L1120 688 L483 688 L379 150 L1224 150 L1179 0 L153 0 Z M865 1612 L698 1931 L835 1931 L960 1743 L1161 1931 L1306 1931 L1021 1612 L865 1612 Z " />
<glyph glyph-name="ecaron" unicode="&#x11b;" horiz-adv-x="1139" d="M1016 488 L304 488 Q289 420 289 354 Q289 236 351 179 Q419 117 565 117 Q680 117 790 157 Q848 178 930 219 L900 62 Q743 -31 536 -31 Q310 -31 199 88 Q105 189 105 365 Q105 531 159 699 Q219 889 355 989 Q480 1080 662 1080 Q1045 1080 1045 712 Q1045 618 1016 488 Z M853 623 Q865 697 865 750 Q865 945 661 945 Q483 945 394 794 Q358 732 330 623 L853 623 Z M612 1212 L446 1538 L583 1538 L708 1349 L909 1538 L1054 1538 L768 1212 L612 1212 Z " />
<glyph glyph-name="Gcircumflex" unicode="&#x11c;" horiz-adv-x="1593" d="M951 569 L980 719 L1441 719 L1314 66 Q1087 -31 841 -31 Q534 -31 378 119 Q298 195 265 300 Q235 392 235 523 Q235 771 333 1029 Q440 1315 639 1434 Q789 1524 1003 1524 Q1346 1524 1553 1347 L1447 1205 Q1273 1370 1021 1370 Q719 1370 578 1109 Q508 981 467 778 Q431 603 431 491 Q431 385 470 298 Q548 123 864 123 Q1007 123 1144 168 L1222 569 L951 569 Z M725 1612 L1013 1931 L1166 1931 L1333 1612 L1196 1612 L1071 1802 L870 1612 L725 1612 Z " />
<glyph glyph-name="gcircumflex" unicode="&#x11d;" horiz-adv-x="1139" d="M896 950 L962 1063 L1079 1063 L872 -2 Q789 -430 362 -430 Q173 -430 10 -356 L39 -209 Q125 -243 153 -252 Q245 -281 349 -281 Q507 -281 591 -197 Q661 -127 687 6 L724 199 Q550 2 377 2 Q253 2 177 76 Q86 165 86 336 Q86 489 144 675 Q213 900 363 1002 Q476 1079 620 1079 Q774 1079 896 950 Z M851 850 Q762 925 645 925 Q506 925 421 829 Q353 751 316 591 Q280 436 280 344 Q280 259 317 205 Q356 147 444 147 Q529 147 619 206 Q662 235 745 307 L851 850 Z M399 1208 L688 1534 L841 1534 L1007 1208 L870 1208 L745 1399 L544 1208 L399 1208 Z " />
<glyph glyph-name="Gbreve" unicode="&#x11e;" horiz-adv-x="1593" d="M951 569 L980 719 L1441 719 L1314 66 Q1087 -31 841 -31 Q534 -31 378 119 Q298 195 265 300 Q235 392 235 523 Q235 771 333 1029 Q440 1315 639 1434 Q789 1524 1003 1524 Q1346 1524 1553 1347 L1447 1205 Q1273 1370 1021 1370 Q719 1370 578 1109 Q508 981 467 778 Q431 603 431 491 Q431 385 470 298 Q548 123 864 123 Q1007 123 1144 168 L1222 569 L951 569 Z M807 1894 L944 1894 Q946 1767 1060 1767 Q1175 1767 1211 1894 L1350 1894 Q1330 1800 1282 1739 Q1196 1628 1051 1628 Q937 1628 869 1699 Q806 1765 806 1861 Q806 1871 807 1894 Z " />
<glyph glyph-name="gbreve" unicode="&#x11f;" horiz-adv-x="1139" d="M896 950 L962 1063 L1079 1063 L872 -2 Q789 -430 362 -430 Q173 -430 10 -356 L39 -209 Q125 -243 153 -252 Q245 -281 349 -281 Q507 -281 591 -197 Q661 -127 687 6 L724 199 Q550 2 377 2 Q253 2 177 76 Q86 165 86 336 Q86 489 144 675 Q213 900 363 1002 Q476 1079 620 1079 Q774 1079 896 950 Z M851 850 Q762 925 645 925 Q506 925 421 829 Q353 751 316 591 Q280 436 280 344 Q280 259 317 205 Q356 147 444 147 Q529 147 619 206 Q662 235 745 307 L851 850 Z M460 1507 L597 1507 Q600 1380 713 1380 Q828 1380 864 1507 L1003 1507 Q982 1412 935 1352 Q848 1241 704 1241 Q590 1241 522 1312 Q459 1378 459 1475 Q459 1485 460 1507 Z " />
<glyph glyph-name="Gdotaccent" unicode="&#x120;" horiz-adv-x="1593" d="M951 569 L980 719 L1441 719 L1314 66 Q1087 -31 841 -31 Q534 -31 378 119 Q298 195 265 300 Q235 392 235 523 Q235 771 333 1029 Q440 1315 639 1434 Q789 1524 1003 1524 Q1346 1524 1553 1347 L1447 1205 Q1273 1370 1021 1370 Q719 1370 578 1109 Q508 981 467 778 Q431 603 431 491 Q431 385 470 298 Q548 123 864 123 Q1007 123 1144 168 L1222 569 L951 569 Z M1075 1872 Q1126 1872 1160 1838 Q1190 1808 1190 1758 Q1190 1704 1156 1669 Q1119 1630 1064 1630 Q1011 1630 978 1664 Q948 1695 948 1746 Q948 1799 982 1833 Q1019 1872 1075 1872 Z " />
<glyph glyph-name="gdotaccent" unicode="&#x121;" horiz-adv-x="1139" d="M896 950 L962 1063 L1079 1063 L872 -2 Q789 -430 362 -430 Q173 -430 10 -356 L39 -209 Q125 -243 153 -252 Q245 -281 349 -281 Q507 -281 591 -197 Q661 -127 687 6 L724 199 Q550 2 377 2 Q253 2 177 76 Q86 165 86 336 Q86 489 144 675 Q213 900 363 1002 Q476 1079 620 1079 Q774 1079 896 950 Z M851 850 Q762 925 645 925 Q506 925 421 829 Q353 751 316 591 Q280 436 280 344 Q280 259 317 205 Q356 147 444 147 Q529 147 619 206 Q662 235 745 307 L851 850 Z M735 1489 Q787 1489 820 1455 Q850 1424 850 1375 Q850 1321 816 1286 Q780 1247 724 1247 Q671 1247 638 1281 Q608 1312 608 1363 Q608 1416 642 1450 Q679 1489 735 1489 Z " />
<glyph glyph-name="Gcommaaccent" unicode="&#x122;" horiz-adv-x="1593" d="M951 569 L980 719 L1441 719 L1314 66 Q1087 -31 841 -31 Q534 -31 378 119 Q298 195 265 300 Q235 392 235 523 Q235 771 333 1029 Q440 1315 639 1434 Q789 1524 1003 1524 Q1346 1524 1553 1347 L1447 1205 Q1273 1370 1021 1370 Q719 1370 578 1109 Q508 981 467 778 Q431 603 431 491 Q431 385 470 298 Q548 123 864 123 Q1007 123 1144 168 L1222 569 L951 569 Z M528 -430 L702 -82 L854 -82 L718 -430 L528 -430 Z " />
<glyph glyph-name="gcommaaccent" unicode="&#x123;" horiz-adv-x="1139" d="M896 950 L962 1063 L1079 1063 L872 -2 Q789 -430 362 -430 Q173 -430 10 -356 L39 -209 Q125 -243 153 -252 Q245 -281 349 -281 Q507 -281 591 -197 Q661 -127 687 6 L724 199 Q550 2 377 2 Q253 2 177 76 Q86 165 86 336 Q86 489 144 675 Q213 900 363 1002 Q476 1079 620 1079 Q774 1079 896 950 Z M851 850 Q762 925 645 925 Q506 925 421 829 Q353 751 316 591 Q280 436 280 344 Q280 259 317 205 Q356 147 444 147 Q529 147 619 206 Q662 235 745 307 L851 850 Z M988 1548 L771 1200 L572 1200 L832 1548 L988 1548 Z " />
<glyph glyph-name="Hcircumflex" unicode="&#x124;" horiz-adv-x="1479" d="M128 0 L417 1489 L614 1489 L487 838 L1178 838 L1305 1489 L1501 1489 L1212 0 L1015 0 L1149 688 L458 688 L325 0 L128 0 Z M656 1612 L944 1931 L1097 1931 L1264 1612 L1127 1612 L1002 1802 L801 1612 L656 1612 Z " />
<glyph glyph-name="hcircumflex" unicode="&#x125;" horiz-adv-x="1139" d="M64 0 L355 1497 Q462 1501 513 1548 L551 1548 L420 875 Q515 959 583 1001 Q707 1079 818 1079 Q933 1079 992 1011 Q1040 954 1040 858 Q1040 810 1029 754 L883 0 L696 0 L833 704 Q846 771 846 805 Q846 921 738 921 Q646 921 544 861 Q487 827 397 756 L251 0 L64 0 Z M209 1612 L497 1931 L650 1931 L817 1612 L680 1612 L555 1802 L354 1612 L209 1612 Z " />
<glyph glyph-name="Imacron" unicode="&#x12a;" horiz-adv-x="569" d="M116 0 L405 1489 L602 1489 L313 0 L116 0 Z M272 1671 L302 1827 L816 1827 L786 1671 L272 1671 Z " />
<glyph glyph-name="imacron" unicode="&#x12b;" horiz-adv-x="569" d="M89 0 L290 1032 Q390 1036 443 1084 L484 1073 L276 0 L89 0 Z M165 1288 L195 1444 L709 1444 L679 1288 L165 1288 Z " />
<glyph glyph-name="ibreve" unicode="&#x12d;" horiz-adv-x="569" d="M89 0 L290 1032 Q390 1036 443 1084 L484 1073 L276 0 L89 0 Z M193 1507 L330 1507 Q333 1380 446 1380 Q561 1380 597 1507 L736 1507 Q715 1412 668 1352 Q581 1241 437 1241 Q323 1241 255 1312 Q192 1378 192 1475 Q192 1485 193 1507 Z " />
<glyph glyph-name="Iogonek" unicode="&#x12e;" horiz-adv-x="569" d="M116 0 L406 1489 L602 1489 L313 0 L289 0 Q231 -60 206 -93 Q162 -152 162 -210 Q162 -289 256 -289 Q296 -289 352 -276 L326 -410 Q256 -428 209 -428 Q101 -428 46 -367 Q2 -318 2 -247 Q2 -110 184 0 L116 0 Z " />
<glyph glyph-name="iogonek" unicode="&#x12f;" horiz-adv-x="455" d="M32 0 L233 1032 Q332 1036 386 1084 L427 1073 L218 0 L179 0 Q135 -54 113 -93 Q77 -152 77 -209 Q77 -289 171 -289 Q211 -289 267 -276 L241 -410 Q171 -428 124 -428 Q16 -428 -39 -367 Q-83 -318 -83 -245 Q-83 -114 75 0 L32 0 Z M396 1489 Q447 1489 481 1455 Q511 1424 511 1375 Q511 1321 477 1286 Q441 1247 385 1247 Q332 1247 299 1281 Q269 1312 269 1363 Q269 1416 303 1450 Q340 1489 396 1489 Z " />
<glyph glyph-name="Idot" unicode="&#x130;" horiz-adv-x="569" d="M116 0 L405 1489 L602 1489 L313 0 L116 0 Z M562 1872 Q613 1872 647 1838 Q677 1808 677 1758 Q677 1704 643 1669 Q606 1630 551 1630 Q498 1630 465 1664 Q435 1695 435 1746 Q435 1799 469 1833 Q506 1872 562 1872 Z " />
<glyph glyph-name="Jcircumflex" unicode="&#x134;" horiz-adv-x="1024" d="M851 1489 L1048 1489 L855 494 Q811 262 719 143 Q584 -31 321 -31 Q152 -31 24 55 L53 211 Q187 123 327 123 Q463 123 532 188 Q585 238 619 341 Q643 417 661 508 L851 1489 Z M628 1612 L916 1931 L1069 1931 L1236 1612 L1099 1612 L974 1802 L773 1612 L628 1612 Z " />
<glyph glyph-name="jcircumflex" unicode="&#x135;" horiz-adv-x="455" d="M-239 -418 L-210 -270 Q-127 -257 -79 -223 Q2 -165 28 -31 L235 1032 Q334 1036 388 1084 L429 1073 L213 -37 Q170 -258 13 -348 Q-78 -400 -239 -418 Z M45 1208 L334 1534 L487 1534 L653 1208 L516 1208 L391 1399 L190 1208 L45 1208 Z " />
<glyph glyph-name="Kcommaaccent" unicode="&#x136;" horiz-adv-x="1366" d="M128 0 L417 1489 L614 1489 L473 766 L1255 1489 L1476 1489 L668 746 L1251 0 L1030 0 L466 728 L325 0 L128 0 Z M391 -430 L565 -82 L717 -82 L581 -430 L391 -430 Z " />
<glyph glyph-name="kcommaaccent" unicode="&#x137;" horiz-adv-x="1024" d="M63 0 L353 1493 Q453 1496 505 1544 L549 1544 L353 535 L858 1061 L1055 1061 L629 627 L893 0 L699 0 L486 508 L315 338 L249 0 L63 0 Z M205 -430 L379 -82 L531 -82 L395 -430 L205 -430 Z " />
<glyph glyph-name="Lacute" unicode="&#x139;" horiz-adv-x="1139" d="M153 0 L442 1489 L639 1489 L379 150 L1082 150 L1037 0 L153 0 Z M495 1612 L690 1931 L889 1931 L651 1612 L495 1612 Z " />
<glyph glyph-name="lacute" unicode="&#x13a;" horiz-adv-x="455" d="M32 0 L323 1497 Q430 1501 481 1548 L519 1548 L219 0 L32 0 Z M382 1654 L578 1974 L776 1974 L538 1654 L382 1654 Z " />
<glyph glyph-name="Lcommaaccent" unicode="&#x13b;" horiz-adv-x="1139" d="M153 0 L442 1489 L639 1489 L379 150 L1082 150 L1037 0 L153 0 Z M380 -430 L554 -82 L706 -82 L570 -430 L380 -430 Z " />
<glyph glyph-name="lcommaaccent" unicode="&#x13c;" horiz-adv-x="455" d="M32 0 L323 1497 Q430 1501 481 1548 L519 1548 L219 0 L32 0 Z M-140 -430 L34 -82 L186 -82 L50 -430 L-140 -430 Z " />
<glyph glyph-name="Lcaron" unicode="&#x13d;" horiz-adv-x="1139" d="M153 0 L442 1489 L639 1489 L379 150 L1082 150 L1037 0 L153 0 Z M760 1171 L899 1548 L1104 1548 L914 1171 L760 1171 Z " />
<glyph glyph-name="lcaron" unicode="&#x13e;" horiz-adv-x="576" d="M-13 0 L278 1497 Q385 1501 436 1548 L474 1548 L174 0 L-13 0 Z M529 1171 L668 1548 L873 1548 L683 1171 L529 1171 Z " />
<glyph glyph-name="Lslash" unicode="&#x141;" horiz-adv-x="1139" d="M467 607 L378 150 L1082 150 L1037 0 L153 0 L252 510 L74 430 L107 600 L285 680 L442 1489 L639 1489 L500 776 L998 1000 L965 830 L467 607 Z " />
<glyph glyph-name="lslash" unicode="&#x142;" horiz-adv-x="455" d="M372 791 L218 0 L31 0 L160 663 L-9 561 L22 723 L192 825 L322 1497 Q429 1501 480 1548 L519 1548 L403 952 L572 1055 L541 893 L372 791 Z " />
<glyph glyph-name="Nacute" unicode="&#x143;" horiz-adv-x="1479" d="M129 0 L418 1489 L587 1489 L1109 358 L1329 1489 L1499 1489 L1209 0 L1077 0 L528 1176 L299 0 L129 0 Z M894 1612 L1089 1931 L1288 1931 L1050 1612 L894 1612 Z " />
<glyph glyph-name="nacute" unicode="&#x144;" horiz-adv-x="1139" d="M64 0 L265 1032 Q365 1036 418 1084 L459 1073 L420 875 Q649 1079 819 1079 Q934 1079 991 1011 Q1039 955 1039 856 Q1039 812 1022 725 L881 0 L695 0 L833 711 Q845 773 845 804 Q845 921 738 921 Q648 921 545 861 Q489 828 397 756 L251 0 L64 0 Z M607 1200 L824 1548 L1023 1548 L763 1200 L607 1200 Z " />
<glyph glyph-name="Ncommaaccent" unicode="&#x145;" horiz-adv-x="1479" d="M129 0 L418 1489 L587 1489 L1109 358 L1329 1489 L1499 1489 L1209 0 L1077 0 L528 1176 L299 0 L129 0 Z M423 -430 L597 -82 L749 -82 L613 -430 L423 -430 Z " />
<glyph glyph-name="ncommaaccent" unicode="&#x146;" horiz-adv-x="1139" d="M64 0 L265 1032 Q365 1036 418 1084 L459 1073 L420 875 Q649 1079 819 1079 Q934 1079 991 1011 Q1039 955 1039 856 Q1039 812 1022 725 L881 0 L695 0 L833 711 Q845 773 845 804 Q845 921 738 921 Q648 921 545 861 Q489 828 397 756 L251 0 L64 0 Z M257 -430 L431 -82 L583 -82 L447 -430 L257 -430 Z " />
<glyph glyph-name="Ncaron" unicode="&#x147;" horiz-adv-x="1479" d="M129 0 L418 1489 L587 1489 L1109 358 L1329 1489 L1499 1489 L1209 0 L1077 0 L528 1176 L299 0 L129 0 Z M909 1612 L742 1931 L879 1931 L1004 1743 L1205 1931 L1350 1931 L1065 1612 L909 1612 Z " />
<glyph glyph-name="ncaron" unicode="&#x148;" horiz-adv-x="1139" d="M64 0 L265 1032 Q365 1036 418 1084 L459 1073 L420 875 Q649 1079 819 1079 Q934 1079 991 1011 Q1039 955 1039 856 Q1039 812 1022 725 L881 0 L695 0 L833 711 Q845 773 845 804 Q845 921 738 921 Q648 921 545 861 Q489 828 397 756 L251 0 L64 0 Z M605 1212 L439 1538 L576 1538 L701 1349 L902 1538 L1047 1538 L761 1212 L605 1212 Z " />
<glyph glyph-name="Omacron" unicode="&#x14c;" horiz-adv-x="1593" d="M987 1524 Q1268 1524 1411 1348 Q1532 1198 1532 949 Q1532 735 1447 488 Q1355 221 1155 84 Q988 -31 754 -31 Q477 -31 332 147 Q213 292 213 541 Q213 753 285 970 Q375 1243 565 1387 Q745 1524 987 1524 Z M982 1370 Q661 1370 526 1046 Q474 920 439 749 Q412 614 412 504 Q412 299 521 201 Q608 123 758 123 Q993 123 1134 304 Q1225 420 1279 632 Q1333 840 1333 992 Q1333 1182 1241 1277 Q1150 1370 982 1370 Z M754 1671 L784 1827 L1298 1827 L1268 1671 L754 1671 Z " />
<glyph glyph-name="omacron" unicode="&#x14d;" horiz-adv-x="1139" d="M633 1079 Q839 1079 947 960 Q1049 848 1049 671 Q1049 517 991 348 Q860 -33 495 -33 Q302 -33 193 88 Q90 201 90 392 Q90 535 139 688 Q205 899 361 1003 Q476 1079 633 1079 Z M632 944 Q447 944 364 753 Q325 665 298 516 Q280 418 280 357 Q280 106 497 106 Q676 106 763 269 Q796 333 828 484 Q856 614 856 696 Q856 944 632 944 Z M432 1288 L462 1444 L976 1444 L946 1288 L432 1288 Z " />
<glyph glyph-name="Ohungarumlaut" unicode="&#x150;" horiz-adv-x="1593" d="M987 1524 Q1268 1524 1411 1348 Q1532 1198 1532 949 Q1532 735 1447 488 Q1355 221 1155 84 Q988 -31 754 -31 Q477 -31 332 147 Q213 292 213 541 Q213 753 285 970 Q375 1243 565 1387 Q745 1524 987 1524 Z M982 1370 Q661 1370 526 1046 Q474 920 439 749 Q412 614 412 504 Q412 299 521 201 Q608 123 758 123 Q993 123 1134 304 Q1225 420 1279 632 Q1333 840 1333 992 Q1333 1182 1241 1277 Q1150 1370 982 1370 Z M1125 1612 L1253 1931 L1431 1931 L1273 1612 L1125 1612 Z M810 1612 L940 1931 L1118 1931 L957 1612 L810 1612 Z " />
<glyph glyph-name="ohungarumlaut" unicode="&#x151;" horiz-adv-x="1139" d="M633 1079 Q839 1079 947 960 Q1049 848 1049 671 Q1049 517 991 348 Q860 -33 495 -33 Q302 -33 193 88 Q90 201 90 392 Q90 535 139 688 Q205 899 361 1003 Q476 1079 633 1079 Z M632 944 Q447 944 364 753 Q325 665 298 516 Q280 418 280 357 Q280 106 497 106 Q676 106 763 269 Q796 333 828 484 Q856 614 856 696 Q856 944 632 944 Z M762 1200 L912 1548 L1090 1548 L910 1200 L762 1200 Z M447 1200 L599 1548 L777 1548 L594 1200 L447 1200 Z " />
<glyph glyph-name="Racute" unicode="&#x154;" horiz-adv-x="1479" d="M146 0 L435 1489 L954 1489 Q1083 1489 1159 1469 Q1298 1431 1360 1326 Q1400 1257 1400 1162 Q1400 1010 1333 899 Q1248 758 1017 712 Q1118 667 1168 532 L1367 0 L1162 0 L986 487 Q950 586 896 625 Q842 663 730 663 L472 663 L343 0 L146 0 Z M501 813 L859 813 Q1033 813 1115 893 Q1156 934 1181 1010 Q1203 1079 1203 1150 Q1203 1258 1118 1306 Q1062 1339 964 1339 L603 1339 L501 813 Z M786 1612 L981 1931 L1180 1931 L942 1612 L786 1612 Z " />
<glyph glyph-name="racute" unicode="&#x155;" horiz-adv-x="682" d="M53 0 L254 1032 Q354 1036 407 1084 L448 1073 L405 856 Q566 1047 734 1079 L698 895 Q532 863 385 754 L239 0 L53 0 Z M420 1200 L637 1548 L836 1548 L576 1200 L420 1200 Z " />
<glyph glyph-name="Rcommaaccent" unicode="&#x156;" horiz-adv-x="1479" d="M146 0 L435 1489 L954 1489 Q1083 1489 1159 1469 Q1298 1431 1360 1326 Q1400 1257 1400 1162 Q1400 1010 1333 899 Q1248 758 1017 712 Q1118 667 1168 532 L1367 0 L1162 0 L986 487 Q950 586 896 625 Q842 663 730 663 L472 663 L343 0 L146 0 Z M501 813 L859 813 Q1033 813 1115 893 Q1156 934 1181 1010 Q1203 1079 1203 1150 Q1203 1258 1118 1306 Q1062 1339 964 1339 L603 1339 L501 813 Z M477 -430 L651 -82 L803 -82 L667 -430 L477 -430 Z " />
<glyph glyph-name="rcommaaccent" unicode="&#x157;" horiz-adv-x="682" d="M54 0 L255 1032 Q355 1036 408 1084 L449 1073 L406 856 Q567 1047 735 1079 L699 895 Q533 863 386 754 L240 0 L54 0 Z M-123 -430 L51 -82 L203 -82 L67 -430 L-123 -430 Z " />
<glyph glyph-name="Rcaron" unicode="&#x158;" horiz-adv-x="1479" d="M146 0 L435 1489 L954 1489 Q1083 1489 1159 1469 Q1298 1431 1360 1326 Q1400 1257 1400 1162 Q1400 1010 1333 899 Q1248 758 1017 712 Q1118 667 1168 532 L1367 0 L1162 0 L986 487 Q950 586 896 625 Q842 663 730 663 L472 663 L343 0 L146 0 Z M501 813 L859 813 Q1033 813 1115 893 Q1156 934 1181 1010 Q1203 1079 1203 1150 Q1203 1258 1118 1306 Q1062 1339 964 1339 L603 1339 L501 813 Z M819 1612 L652 1931 L789 1931 L914 1743 L1115 1931 L1260 1931 L975 1612 L819 1612 Z " />
<glyph glyph-name="rcaron" unicode="&#x159;" horiz-adv-x="682" d="M53 0 L254 1032 Q354 1036 407 1084 L448 1073 L405 856 Q566 1047 734 1079 L698 895 Q532 863 385 754 L239 0 L53 0 Z M431 1212 L265 1538 L402 1538 L527 1349 L728 1538 L873 1538 L587 1212 L431 1212 Z " />
<glyph glyph-name="Sacute" unicode="&#x15a;" horiz-adv-x="1366" d="M41 138 L139 302 Q361 123 654 123 Q810 123 911 175 Q1038 241 1038 379 Q1038 477 952 546 Q900 588 840 620 Q792 646 688 700 Q504 795 421 877 Q319 977 319 1119 Q319 1313 467 1430 Q587 1524 806 1524 Q1140 1524 1349 1316 L1240 1187 Q1051 1370 809 1370 Q672 1370 593 1312 Q511 1251 511 1134 Q511 1042 579 982 Q619 948 664 924 Q706 901 807 850 Q1007 748 1111 658 Q1239 547 1239 389 Q1239 236 1132 128 Q974 -31 641 -31 Q286 -31 41 138 Z M795 1612 L990 1931 L1189 1931 L951 1612 L795 1612 Z " />
<glyph glyph-name="sacute" unicode="&#x15b;" horiz-adv-x="1024" d="M-38 103 L41 248 Q117 187 173 161 Q291 106 438 106 Q571 106 644 165 Q703 213 703 289 Q703 349 652 389 Q609 423 492 472 Q334 537 283 576 Q183 650 183 772 Q183 915 294 1003 Q390 1080 563 1080 Q733 1080 870 1014 Q923 989 965 952 L883 830 Q757 945 561 945 Q462 945 408 905 Q350 862 350 788 Q350 725 413 685 Q452 661 560 617 Q722 552 788 499 Q881 424 881 302 Q881 182 800 91 Q688 -33 439 -33 Q237 -33 85 32 Q32 55 -38 103 Z M531 1200 L748 1548 L947 1548 L687 1200 L531 1200 Z " />
<glyph glyph-name="Scircumflex" unicode="&#x15c;" horiz-adv-x="1366" d="M41 138 L139 302 Q361 123 654 123 Q810 123 911 175 Q1038 241 1038 379 Q1038 477 952 546 Q900 588 840 620 Q792 646 688 700 Q504 795 421 877 Q319 977 319 1119 Q319 1313 467 1430 Q587 1524 806 1524 Q1140 1524 1349 1316 L1240 1187 Q1051 1370 809 1370 Q672 1370 593 1312 Q511 1251 511 1134 Q511 1042 579 982 Q619 948 664 924 Q706 901 807 850 Q1007 748 1111 658 Q1239 547 1239 389 Q1239 236 1132 128 Q974 -31 641 -31 Q286 -31 41 138 Z M588 1612 L876 1931 L1029 1931 L1196 1612 L1059 1612 L934 1802 L733 1612 L588 1612 Z " />
<glyph glyph-name="scircumflex" unicode="&#x15d;" horiz-adv-x="1024" d="M-38 103 L41 248 Q117 187 173 161 Q291 106 438 106 Q571 106 644 165 Q703 213 703 289 Q703 349 652 389 Q609 423 492 472 Q334 537 283 576 Q183 650 183 772 Q183 915 294 1003 Q390 1080 563 1080 Q733 1080 870 1014 Q923 989 965 952 L883 830 Q757 945 561 945 Q462 945 408 905 Q350 862 350 788 Q350 725 413 685 Q452 661 560 617 Q722 552 788 499 Q881 424 881 302 Q881 182 800 91 Q688 -33 439 -33 Q237 -33 85 32 Q32 55 -38 103 Z M323 1208 L612 1534 L765 1534 L931 1208 L794 1208 L669 1399 L468 1208 L323 1208 Z " />
<glyph glyph-name="Scedilla" unicode="&#x15e;" horiz-adv-x="1366" d="M41 138 L139 302 Q360 124 654 124 Q810 124 911 176 Q1038 242 1038 380 Q1038 478 952 547 Q900 589 840 621 Q791 647 688 700 Q503 796 421 877 Q319 977 319 1119 Q319 1313 467 1430 Q587 1524 806 1524 Q1140 1524 1349 1316 L1240 1187 Q1053 1370 809 1370 Q672 1370 593 1312 Q511 1251 511 1134 Q511 1042 579 982 Q619 948 664 924 Q706 901 807 850 Q1007 748 1111 658 Q1239 547 1239 389 Q1239 213 1099 99 Q969 -6 721 -28 L597 -348 L406 -348 L566 -28 Q254 -9 41 138 Z " />
<glyph glyph-name="scedilla" unicode="&#x15f;" horiz-adv-x="1024" d="M-38 103 L41 248 Q117 187 173 161 Q291 107 438 107 Q571 107 644 165 Q703 213 703 290 Q703 350 652 389 Q609 423 492 472 Q334 538 283 576 Q183 651 183 773 Q183 915 294 1003 Q391 1080 563 1080 Q733 1080 870 1014 Q923 989 965 952 L883 830 Q757 945 561 945 Q462 945 408 905 Q350 862 350 788 Q350 725 413 685 Q453 660 560 617 Q722 553 788 499 Q881 424 881 303 Q881 167 782 74 Q688 -16 510 -30 L387 -348 L196 -348 L356 -29 Q233 -19 136 13 Q53 41 -38 103 Z " />
<glyph glyph-name="Scaron" unicode="&#x160;" horiz-adv-x="1366" d="M41 138 L139 302 Q361 123 654 123 Q810 123 911 175 Q1038 241 1038 379 Q1038 477 952 546 Q900 588 840 620 Q792 646 688 700 Q504 795 421 877 Q319 977 319 1119 Q319 1313 467 1430 Q587 1524 806 1524 Q1140 1524 1349 1316 L1240 1187 Q1051 1370 809 1370 Q672 1370 593 1312 Q511 1251 511 1134 Q511 1042 579 982 Q619 948 664 924 Q706 901 807 850 Q1007 748 1111 658 Q1239 547 1239 389 Q1239 236 1132 128 Q974 -31 641 -31 Q286 -31 41 138 Z M817 1612 L650 1931 L787 1931 L912 1743 L1113 1931 L1258 1931 L973 1612 L817 1612 Z " />
<glyph glyph-name="scaron" unicode="&#x161;" horiz-adv-x="1024" d="M-38 103 L41 248 Q117 187 173 161 Q291 106 438 106 Q571 106 644 165 Q703 213 703 289 Q703 349 652 389 Q609 423 492 472 Q334 537 283 576 Q183 650 183 772 Q183 915 294 1003 Q390 1080 563 1080 Q733 1080 870 1014 Q923 989 965 952 L883 830 Q757 945 561 945 Q462 945 408 905 Q350 862 350 788 Q350 725 413 685 Q452 661 560 617 Q722 552 788 499 Q881 424 881 302 Q881 182 800 91 Q688 -33 439 -33 Q237 -33 85 32 Q32 55 -38 103 Z M547 1212 L381 1538 L518 1538 L643 1349 L844 1538 L989 1538 L703 1212 L547 1212 Z " />
<glyph glyph-name="uni021A" unicode="&#x162;" horiz-adv-x="1251" d="M457 0 L717 1339 L290 1339 L333 1489 L1356 1489 L1327 1339 L914 1339 L654 0 L457 0 Z M291 -430 L465 -82 L617 -82 L481 -430 L291 -430 Z " />
<glyph glyph-name="tcommaaccent" unicode="&#x163;" horiz-adv-x="569" d="M224 924 L133 924 L160 1061 L166 1061 Q250 1061 297 1165 L352 1290 L480 1290 L435 1061 L631 1061 L604 924 L409 924 L290 310 Q278 251 278 221 Q278 120 376 120 Q437 120 481 135 L452 -4 Q393 -23 334 -23 Q222 -23 159 36 Q94 97 94 212 Q94 253 106 313 L224 924 Z M-59 -430 L115 -82 L267 -82 L131 -430 L-59 -430 Z " />
<glyph glyph-name="Tcaron" unicode="&#x164;" horiz-adv-x="1251" d="M457 0 L717 1339 L290 1339 L333 1489 L1356 1489 L1327 1339 L914 1339 L654 0 L457 0 Z M777 1612 L610 1931 L747 1931 L872 1743 L1073 1931 L1218 1931 L933 1612 L777 1612 Z " />
<glyph glyph-name="tcaron" unicode="&#x165;" horiz-adv-x="725" d="M286 924 L195 924 L222 1061 L228 1061 Q312 1061 359 1165 L414 1290 L542 1290 L497 1061 L693 1061 L666 924 L471 924 L352 310 Q340 251 340 221 Q340 120 438 120 Q499 120 543 135 L514 -4 Q455 -23 396 -23 Q284 -23 221 36 Q156 97 156 212 Q156 253 168 313 L286 924 Z M649 1214 L788 1591 L993 1591 L803 1214 L649 1214 Z " />
<glyph glyph-name="Umacron" unicode="&#x16a;" horiz-adv-x="1479" d="M413 1489 L610 1489 L430 559 Q413 473 413 408 Q413 270 488 201 Q566 129 737 129 Q859 129 934 168 Q1034 221 1087 345 Q1121 427 1142 537 L1327 1489 L1502 1489 L1314 522 Q1268 289 1174 161 Q1032 -31 733 -31 Q219 -31 219 411 Q219 490 236 575 L413 1489 Z M709 1671 L739 1827 L1253 1827 L1223 1671 L709 1671 Z " />
<glyph glyph-name="umacron" unicode="&#x16b;" horiz-adv-x="1139" d="M256 1063 L442 1063 L305 356 Q290 278 290 243 Q290 114 419 114 Q502 114 594 165 Q643 193 737 260 L893 1063 L1079 1063 L873 0 L758 0 L731 158 Q633 75 561 34 Q444 -33 334 -33 Q215 -33 151 40 Q98 101 98 205 Q98 249 114 330 L256 1063 Z M444 1288 L474 1444 L988 1444 L958 1288 L444 1288 Z " />
<glyph glyph-name="Ubreve" unicode="&#x16c;" horiz-adv-x="1479" d="M413 1489 L610 1489 L430 559 Q413 473 413 408 Q413 270 488 201 Q566 129 737 129 Q859 129 934 168 Q1034 221 1087 345 Q1121 427 1142 537 L1327 1489 L1502 1489 L1314 522 Q1268 289 1174 161 Q1032 -31 733 -31 Q219 -31 219 411 Q219 490 236 575 L413 1489 Z M744 1894 L881 1894 Q883 1767 997 1767 Q1112 1767 1148 1894 L1287 1894 Q1267 1800 1219 1739 Q1133 1628 988 1628 Q874 1628 806 1699 Q743 1765 743 1861 Q743 1871 744 1894 Z " />
<glyph glyph-name="ubreve" unicode="&#x16d;" horiz-adv-x="1139" d="M256 1063 L442 1063 L305 356 Q290 278 290 243 Q290 114 419 114 Q502 114 594 165 Q643 193 737 260 L893 1063 L1079 1063 L873 0 L758 0 L731 158 Q633 75 561 34 Q444 -33 334 -33 Q215 -33 151 40 Q98 101 98 205 Q98 249 114 330 L256 1063 Z M460 1507 L597 1507 Q600 1380 713 1380 Q828 1380 864 1507 L1003 1507 Q982 1412 935 1352 Q848 1241 704 1241 Q590 1241 522 1312 Q459 1378 459 1475 Q459 1485 460 1507 Z " />
<glyph glyph-name="Uring" unicode="&#x16e;" horiz-adv-x="1479" d="M413 1489 L610 1489 L430 559 Q413 473 413 408 Q413 270 488 201 Q566 129 737 129 Q859 129 934 168 Q1034 221 1087 345 Q1121 427 1142 537 L1327 1489 L1502 1489 L1314 522 Q1268 289 1174 161 Q1032 -31 733 -31 Q219 -31 219 411 Q219 490 236 575 L413 1489 Z M1016 2013 Q1118 2013 1180 1951 Q1236 1895 1236 1809 Q1236 1717 1176 1655 Q1110 1587 1002 1587 Q899 1587 837 1649 Q781 1705 781 1794 Q781 1885 841 1945 Q909 2013 1016 2013 Z M1016 1921 Q955 1921 921 1876 Q896 1843 896 1792 Q896 1745 918 1717 Q947 1679 1001 1679 Q1062 1679 1096 1724 Q1121 1757 1121 1809 Q1121 1856 1099 1883 Q1069 1921 1016 1921 Z " />
<glyph glyph-name="uring" unicode="&#x16f;" horiz-adv-x="1139" d="M256 1063 L442 1063 L305 356 Q290 278 290 243 Q290 114 419 114 Q502 114 594 165 Q643 193 737 260 L893 1063 L1079 1063 L873 0 L758 0 L731 158 Q633 75 561 34 Q444 -33 334 -33 Q215 -33 151 40 Q98 101 98 205 Q98 249 114 330 L256 1063 Z M727 1630 Q829 1630 891 1568 Q947 1512 947 1426 Q947 1334 887 1272 Q821 1204 713 1204 Q610 1204 548 1266 Q492 1322 492 1411 Q492 1502 552 1562 Q620 1630 727 1630 Z M727 1538 Q666 1538 632 1493 Q607 1460 607 1409 Q607 1362 629 1334 Q658 1296 712 1296 Q773 1296 807 1341 Q832 1374 832 1427 Q832 1473 810 1500 Q780 1538 727 1538 Z " />
<glyph glyph-name="Uhungarumlaut" unicode="&#x170;" horiz-adv-x="1479" d="M413 1489 L610 1489 L430 559 Q413 473 413 408 Q413 270 488 201 Q566 129 737 129 Q859 129 934 168 Q1034 221 1087 345 Q1121 427 1142 537 L1327 1489 L1502 1489 L1314 522 Q1268 289 1174 161 Q1032 -31 733 -31 Q219 -31 219 411 Q219 490 236 575 L413 1489 Z M1061 1612 L1189 1931 L1367 1931 L1209 1612 L1061 1612 Z M746 1612 L876 1931 L1054 1931 L893 1612 L746 1612 Z " />
<glyph glyph-name="uhungarumlaut" unicode="&#x171;" horiz-adv-x="1139" d="M256 1063 L442 1063 L305 356 Q290 278 290 243 Q290 114 419 114 Q502 114 594 165 Q643 193 737 260 L893 1063 L1079 1063 L873 0 L758 0 L731 158 Q633 75 561 34 Q444 -33 334 -33 Q215 -33 151 40 Q98 101 98 205 Q98 249 114 330 L256 1063 Z M772 1200 L922 1548 L1100 1548 L920 1200 L772 1200 Z M457 1200 L609 1548 L787 1548 L604 1200 L457 1200 Z " />
<glyph glyph-name="Uogonek" unicode="&#x172;" horiz-adv-x="1479" d="M413 1489 L610 1489 L430 559 Q413 474 413 408 Q413 270 488 201 Q566 129 737 129 Q859 129 934 168 Q1034 221 1087 345 Q1121 427 1142 537 L1327 1489 L1502 1489 L1314 522 Q1251 200 1087 72 Q967 -22 761 -30 Q725 -68 703 -99 Q663 -154 663 -210 Q663 -289 757 -289 Q800 -289 853 -276 L827 -409 Q757 -428 711 -428 Q602 -428 547 -367 Q503 -318 503 -247 Q503 -127 643 -26 Q219 18 219 412 Q219 490 236 576 L413 1489 Z " />
<glyph glyph-name="uogonek" unicode="&#x173;" horiz-adv-x="1139" d="M256 1063 L442 1063 L305 356 Q290 278 290 243 Q290 114 419 114 Q502 114 594 165 Q643 193 737 260 L893 1063 L1079 1063 L873 0 L862 0 Q809 -55 783 -88 Q736 -151 736 -210 Q736 -289 830 -289 Q870 -289 925 -276 L900 -410 Q830 -428 783 -428 Q675 -428 620 -367 Q576 -318 576 -247 Q576 -109 758 0 L731 158 Q633 75 561 34 Q444 -33 334 -33 Q215 -33 151 40 Q98 101 98 205 Q98 249 114 330 L256 1063 Z " />
<glyph glyph-name="Wcircumflex" unicode="&#x174;" horiz-adv-x="1933" d="M405 0 L319 1489 L509 1489 L563 307 L1110 1489 L1261 1489 L1348 309 L1875 1489 L2056 1489 L1368 0 L1200 0 L1121 1178 L569 0 L405 0 Z M877 1612 L1165 1931 L1318 1931 L1485 1612 L1348 1612 L1223 1802 L1022 1612 L877 1612 Z " />
<glyph glyph-name="Ycircumflex" unicode="&#x176;" horiz-adv-x="1366" d="M529 0 L647 608 L329 1489 L528 1489 L784 770 L1271 1489 L1466 1489 L836 586 L723 0 L529 0 Z M593 1612 L881 1931 L1034 1931 L1201 1612 L1064 1612 L939 1802 L738 1612 L593 1612 Z " />
<glyph glyph-name="ycircumflex" unicode="&#x177;" horiz-adv-x="1024" d="M21 -399 L351 129 L154 1061 L343 1061 L478 344 L904 1061 L1080 1061 L199 -399 L21 -399 Z M324 1208 L613 1534 L766 1534 L932 1208 L795 1208 L670 1399 L469 1208 L324 1208 Z " />
<glyph glyph-name="Zacute" unicode="&#x179;" horiz-adv-x="1251" d="M36 0 L61 125 L1083 1339 L347 1339 L388 1489 L1351 1489 L1326 1366 L298 150 L1095 150 L1054 0 L36 0 Z M768 1612 L963 1931 L1162 1931 L924 1612 L768 1612 Z " />
<glyph glyph-name="zacute" unicode="&#x17a;" horiz-adv-x="1024" d="M11 0 L34 116 L759 920 L237 920 L264 1061 L1012 1061 L990 947 L259 141 L837 141 L809 0 L11 0 Z M550 1200 L767 1548 L966 1548 L706 1200 L550 1200 Z " />
<glyph glyph-name="Zdotaccent" unicode="&#x17b;" horiz-adv-x="1251" d="M36 0 L61 125 L1083 1339 L347 1339 L388 1489 L1351 1489 L1326 1366 L298 150 L1095 150 L1054 0 L36 0 Z M903 1872 Q954 1872 988 1838 Q1018 1808 1018 1758 Q1018 1704 984 1669 Q947 1630 892 1630 Q839 1630 806 1664 Q776 1695 776 1746 Q776 1799 810 1833 Q847 1872 903 1872 Z " />
<glyph glyph-name="zdotaccent" unicode="&#x17c;" horiz-adv-x="1024" d="M11 0 L34 116 L759 920 L237 920 L264 1061 L1012 1061 L990 947 L259 141 L837 141 L809 0 L11 0 Z M689 1489 Q741 1489 774 1455 Q804 1424 804 1375 Q804 1321 770 1286 Q734 1247 678 1247 Q625 1247 592 1281 Q562 1312 562 1363 Q562 1416 596 1450 Q633 1489 689 1489 Z " />
<glyph glyph-name="Zcaron" unicode="&#x17d;" horiz-adv-x="1251" d="M36 0 L61 125 L1083 1339 L347 1339 L388 1489 L1351 1489 L1326 1366 L298 150 L1095 150 L1054 0 L36 0 Z M795 1612 L628 1931 L765 1931 L890 1743 L1091 1931 L1236 1931 L951 1612 L795 1612 Z " />
<glyph glyph-name="zcaron" unicode="&#x17e;" horiz-adv-x="1024" d="M11 0 L34 116 L759 920 L237 920 L264 1061 L1012 1061 L990 947 L259 141 L837 141 L809 0 L11 0 Z M566 1212 L400 1538 L537 1538 L662 1349 L863 1538 L1008 1538 L722 1212 L566 1212 Z " />
<glyph glyph-name="uni01CD" unicode="&#x1cd;" horiz-adv-x="1366" d="M989 406 L385 406 L167 0 L-17 0 L804 1497 L1011 1497 L1243 0 L1048 0 L989 406 Z M968 547 L859 1289 L461 547 L968 547 Z M831 1612 L664 1931 L801 1931 L926 1743 L1127 1931 L1272 1931 L987 1612 L831 1612 Z " />
<glyph glyph-name="uni01CE" unicode="&#x1ce;" horiz-adv-x="1139" d="M684 131 Q529 -33 365 -33 Q239 -33 159 35 Q78 105 78 228 Q78 446 267 533 Q361 576 542 598 Q587 603 736 614 L771 617 L787 697 Q797 745 797 775 Q797 929 611 929 Q497 929 388 893 Q327 872 238 832 L266 985 Q458 1079 637 1079 Q819 1079 907 990 Q981 914 981 789 Q981 740 971 688 L883 238 Q875 196 875 182 Q875 129 941 129 Q970 129 1002 137 L977 10 Q913 -14 854 -14 Q708 -14 684 131 Z M746 487 Q478 464 395 438 Q260 395 260 246 Q260 106 408 106 Q563 106 701 262 L746 487 Z M611 1212 L445 1538 L582 1538 L707 1349 L908 1538 L1053 1538 L767 1212 L611 1212 Z " />
<glyph glyph-name="uni01D3" unicode="&#x1d3;" horiz-adv-x="1479" d="M413 1489 L610 1489 L430 559 Q413 473 413 408 Q413 270 488 201 Q566 129 737 129 Q859 129 934 168 Q1034 221 1087 345 Q1121 427 1142 537 L1327 1489 L1502 1489 L1314 522 Q1268 289 1174 161 Q1032 -31 733 -31 Q219 -31 219 411 Q219 490 236 575 L413 1489 Z M885 1612 L718 1931 L855 1931 L980 1743 L1181 1931 L1326 1931 L1041 1612 L885 1612 Z " />
<glyph glyph-name="Gcaron" unicode="&#x1e6;" horiz-adv-x="1593" d="M951 569 L980 719 L1441 719 L1314 66 Q1087 -31 841 -31 Q534 -31 378 119 Q298 195 265 300 Q235 392 235 523 Q235 771 333 1029 Q440 1315 639 1434 Q789 1524 1003 1524 Q1346 1524 1553 1347 L1447 1205 Q1273 1370 1021 1370 Q719 1370 578 1109 Q508 981 467 778 Q431 603 431 491 Q431 385 470 298 Q548 123 864 123 Q1007 123 1144 168 L1222 569 L951 569 Z M966 1612 L799 1931 L936 1931 L1061 1743 L1262 1931 L1407 1931 L1122 1612 L966 1612 Z " />
<glyph glyph-name="gcaron" unicode="&#x1e7;" horiz-adv-x="1139" d="M896 950 L962 1063 L1079 1063 L872 -2 Q789 -430 362 -430 Q173 -430 10 -356 L39 -209 Q125 -243 153 -252 Q245 -281 349 -281 Q507 -281 591 -197 Q661 -127 687 6 L724 199 Q550 2 377 2 Q253 2 177 76 Q86 165 86 336 Q86 489 144 675 Q213 900 363 1002 Q476 1079 620 1079 Q774 1079 896 950 Z M851 850 Q762 925 645 925 Q506 925 421 829 Q353 751 316 591 Q280 436 280 344 Q280 259 317 205 Q356 147 444 147 Q529 147 619 206 Q662 235 745 307 L851 850 Z M629 1212 L463 1538 L600 1538 L725 1349 L926 1538 L1071 1538 L785 1212 L629 1212 Z " />
<glyph glyph-name="Gacute" unicode="&#x1f4;" horiz-adv-x="1593" d="M951 569 L980 719 L1441 719 L1314 66 Q1087 -31 841 -31 Q534 -31 378 119 Q298 195 265 300 Q235 392 235 523 Q235 771 333 1029 Q440 1315 639 1434 Q789 1524 1003 1524 Q1346 1524 1553 1347 L1447 1205 Q1273 1370 1021 1370 Q719 1370 578 1109 Q508 981 467 778 Q431 603 431 491 Q431 385 470 298 Q548 123 864 123 Q1007 123 1144 168 L1222 569 L951 569 Z M945 1612 L1140 1931 L1339 1931 L1101 1612 L945 1612 Z " />
<glyph glyph-name="afii57929" unicode="&#x2bc;" horiz-adv-x="455" d="M395 1342 Q381 1341 372 1341 Q336 1341 311 1365 Q284 1390 284 1434 Q284 1483 317 1516 Q350 1550 403 1550 Q463 1550 496 1504 Q522 1467 522 1411 Q522 1266 397 1174 Q325 1121 196 1100 L214 1180 Q280 1199 317 1228 Q368 1266 395 1342 Z " />
<glyph glyph-name="uni02C9" unicode="&#x2c9;" horiz-adv-x="682" d="M233 1288 L263 1444 L777 1444 L747 1288 L233 1288 Z " />
<glyph glyph-name="anoteleia" unicode="&#x387;" horiz-adv-x="569" d="M321 819 Q381 819 420 780 Q455 744 455 687 Q455 626 417 585 Q375 541 310 541 Q250 541 212 580 Q176 617 176 673 Q176 735 215 775 Q258 819 321 819 Z " />
<glyph glyph-name="Wdieresis" unicode="&#x1e84;" horiz-adv-x="1933" d="M405 0 L319 1489 L509 1489 L563 307 L1110 1489 L1261 1489 L1348 309 L1875 1489 L2056 1489 L1368 0 L1200 0 L1121 1178 L569 0 L405 0 Z M1040 1866 Q1088 1866 1120 1833 Q1149 1803 1149 1756 Q1149 1706 1117 1672 Q1083 1636 1030 1636 Q980 1636 948 1669 Q919 1699 919 1745 Q919 1797 950 1830 Q985 1866 1040 1866 Z M1388 1865 Q1437 1865 1469 1833 Q1498 1802 1498 1756 Q1498 1705 1466 1672 Q1432 1636 1380 1636 Q1330 1636 1298 1668 Q1269 1698 1269 1747 Q1269 1797 1300 1829 Q1335 1865 1388 1865 Z " />
<glyph glyph-name="uni2011" unicode="&#x2011;" horiz-adv-x="682" d="M106 604 L136 758 L638 758 L608 604 L106 604 Z " />
<glyph glyph-name="figuredash" unicode="&#x2012;" horiz-adv-x="1139" d="M122 611 L151 758 L1080 758 L1052 611 L122 611 Z " />
<glyph glyph-name="afii00208" unicode="&#x2015;" horiz-adv-x="2048" d="M319 611 L348 758 L1794 758 L1765 611 L319 611 Z " />
<glyph glyph-name="underscoredbl" unicode="&#x2017;" horiz-adv-x="1131" d="M6 -277 L24 -184 L831 -184 L813 -277 L6 -277 Z M-30 -463 L-12 -370 L795 -370 L777 -463 L-30 -463 Z " />
<glyph glyph-name="uni203E" unicode="&#x203e;" horiz-adv-x="1131" d="M413 1747 L439 1881 L1217 1881 L1191 1747 L413 1747 Z " />
<glyph glyph-name="zerosuperior" unicode="&#x2070;" horiz-adv-x="778" d="M548 1489 Q700 1489 774 1409 Q835 1343 835 1232 Q835 1113 791 969 Q759 865 715 814 Q630 714 455 714 Q316 714 239 783 Q167 848 167 959 Q167 1078 213 1229 Q257 1374 346 1433 Q429 1489 548 1489 Z M541 1371 Q457 1371 414 1304 Q384 1258 359 1131 Q334 1010 334 968 Q334 832 465 832 Q554 832 598 908 Q624 953 649 1083 Q670 1192 670 1242 Q670 1301 639 1334 Q604 1371 541 1371 Z " />
<glyph glyph-name="foursuperior" unicode="&#x2074;" horiz-adv-x="778" d="M520 724 L550 877 L123 877 L141 969 L626 1516 L806 1516 L345 993 L572 993 L617 1226 L764 1242 L716 993 L815 993 L792 877 L693 877 L663 724 L520 724 Z " />
<glyph glyph-name="fivesuperior" unicode="&#x2075;" horiz-adv-x="778" d="M819 1476 L778 1354 L468 1354 L420 1195 Q469 1202 509 1202 Q739 1202 739 1027 Q739 842 558 763 Q412 699 131 683 L154 807 Q323 821 416 853 Q572 908 572 1005 Q572 1043 538 1065 Q500 1090 429 1090 Q346 1090 242 1066 L365 1476 L819 1476 Z " />
<glyph glyph-name="sixsuperior" unicode="&#x2076;" horiz-adv-x="778" d="M832 1521 L807 1397 Q650 1383 573 1350 Q477 1309 428 1241 Q404 1208 383 1150 Q473 1196 566 1196 Q669 1196 730 1150 Q794 1101 794 997 Q794 879 722 803 Q637 714 469 714 Q333 714 258 776 Q182 839 182 963 Q182 1119 249 1249 Q319 1386 492 1457 Q580 1494 699 1509 Q758 1516 832 1521 Z M352 1028 Q352 1024 351 1021 Q347 997 347 969 Q347 827 481 827 Q554 827 594 877 Q629 920 629 980 Q629 1083 513 1083 Q450 1083 391 1053 Q353 1033 352 1028 Z " />
<glyph glyph-name="sevensuperior" unicode="&#x2077;" horiz-adv-x="778" d="M179 681 L677 1349 L231 1349 L273 1476 L872 1476 L856 1380 L372 681 L179 681 Z " />
<glyph glyph-name="eightsuperior" unicode="&#x2078;" horiz-adv-x="778" d="M335 1121 Q253 1184 253 1274 Q253 1376 334 1435 Q412 1491 554 1491 Q681 1491 756 1438 Q825 1389 825 1301 Q825 1234 782 1190 Q749 1155 675 1123 Q716 1100 735 1081 Q787 1033 787 951 Q787 855 725 796 Q691 764 638 745 Q551 713 455 713 Q324 713 239 759 Q151 807 151 908 Q151 1008 236 1069 Q273 1096 335 1121 Z M454 1068 Q448 1066 442 1063 Q441 1063 436 1061 Q383 1042 344 1006 Q310 976 310 934 Q310 881 354 854 Q401 826 469 826 Q533 826 581 853 Q628 879 628 929 Q628 976 581 1007 Q550 1028 502 1049 Q456 1069 454 1068 Z M552 1172 Q557 1174 563 1177 Q669 1224 669 1285 Q669 1331 633 1354 Q595 1378 540 1378 Q490 1378 453 1357 Q412 1334 412 1292 Q412 1249 461 1217 Q482 1203 518 1187 Q551 1172 552 1172 Z " />
<glyph glyph-name="ninesuperior" unicode="&#x2079;" horiz-adv-x="778" d="M156 681 L180 806 Q405 823 506 894 Q569 938 599 995 Q609 1014 623 1051 Q533 1006 441 1006 Q338 1006 278 1052 Q213 1102 213 1198 Q213 1322 278 1395 Q361 1488 533 1488 Q703 1488 773 1396 Q825 1327 825 1232 Q825 1108 777 983 Q704 795 457 723 Q358 694 156 681 Z M655 1175 Q656 1178 656 1181 Q656 1182 657 1185 Q660 1205 660 1235 Q660 1375 527 1375 Q438 1375 404 1314 Q378 1267 378 1214 Q378 1169 409 1144 Q440 1119 492 1119 Q557 1119 617 1149 Q654 1168 655 1175 Z " />
<glyph glyph-name="zeroinferior" unicode="&#x2080;" horiz-adv-x="778" d="M407 765 Q560 765 633 685 Q695 619 695 509 Q695 390 651 245 Q619 141 575 90 Q490 -10 314 -10 Q175 -10 98 59 Q26 124 26 235 Q26 354 72 505 Q116 649 206 709 Q289 765 407 765 Z M401 647 Q317 647 273 580 Q243 534 217 407 Q193 287 193 243 Q193 108 325 108 Q413 108 458 184 Q484 229 509 359 Q530 467 530 518 Q530 577 499 610 Q464 647 401 647 Z " />
<glyph glyph-name="oneinferior" unicode="&#x2081;" horiz-adv-x="778" d="M46 0 L68 110 L248 110 L344 605 L140 546 L164 670 L440 758 L539 758 L413 110 L586 110 L565 0 L46 0 Z " />
<glyph glyph-name="twoinferior" unicode="&#x2082;" horiz-adv-x="778" d="M-18 0 L1 98 Q235 242 334 317 Q495 439 495 540 Q495 642 363 642 Q294 642 217 614 Q183 602 112 568 L139 708 Q255 766 399 766 Q511 766 580 725 Q666 673 666 566 Q666 417 542 310 Q446 226 274 122 L603 122 L562 0 L-18 0 Z " />
<glyph glyph-name="threeinferior" unicode="&#x2083;" horiz-adv-x="778" d="M-7 -44 L18 81 Q455 115 455 265 Q455 345 348 345 Q314 345 249 337 L198 330 L220 444 L297 454 Q394 467 436 495 Q477 521 477 571 Q477 648 360 648 Q270 648 131 593 L155 718 Q288 766 395 766 Q542 766 598 710 Q640 669 640 596 Q640 529 602 474 Q578 439 532 416 Q625 380 625 287 Q625 142 496 66 Q389 3 200 -25 Q144 -34 -7 -44 Z " />
<glyph glyph-name="fourinferior" unicode="&#x2084;" horiz-adv-x="778" d="M379 0 L409 153 L-18 153 L0 245 L485 793 L665 793 L204 269 L431 269 L476 502 L623 519 L575 269 L674 269 L651 153 L552 153 L522 0 L379 0 Z " />
<glyph glyph-name="fiveinferior" unicode="&#x2085;" horiz-adv-x="778" d="M679 753 L638 631 L328 631 L280 471 Q327 478 369 478 Q599 478 599 303 Q599 118 418 39 Q272 -25 -9 -41 L14 83 Q183 97 276 129 Q356 157 395 200 Q432 239 432 281 Q432 318 398 340 Q361 365 289 365 Q207 365 102 342 L225 753 L679 753 Z " />
<glyph glyph-name="sixinferior" unicode="&#x2086;" horiz-adv-x="778" d="M692 797 L667 673 Q510 659 433 626 Q337 585 287 517 Q264 485 243 426 Q333 472 426 472 Q529 472 590 426 Q654 377 654 274 Q654 156 582 79 Q497 -10 329 -10 Q193 -10 118 52 Q42 115 42 240 Q42 395 109 525 Q203 707 455 767 Q533 786 692 797 Z M212 304 Q212 301 211 297 Q207 274 207 245 Q207 103 340 103 Q414 103 454 153 Q488 196 488 256 Q488 359 373 359 Q310 359 251 329 Q213 309 212 304 Z " />
<glyph glyph-name="seveninferior" unicode="&#x2087;" horiz-adv-x="778" d="M38 -42 L536 626 L90 626 L132 753 L731 753 L714 657 L231 -42 L38 -42 Z " />
<glyph glyph-name="eightinferior" unicode="&#x2088;" horiz-adv-x="778" d="M196 397 Q113 460 113 550 Q113 652 194 711 Q272 767 414 767 Q541 767 616 714 Q685 665 685 577 Q685 510 642 466 Q609 431 535 399 Q576 376 595 358 Q647 310 647 228 Q647 132 585 73 Q551 41 498 22 Q411 -10 315 -10 Q184 -10 100 36 Q11 84 11 185 Q11 284 96 345 Q133 372 196 397 Z M314 344 Q308 342 302 339 Q301 339 296 337 Q170 291 170 211 Q170 158 214 131 Q261 103 329 103 Q393 103 441 130 Q488 156 488 205 Q488 252 441 284 Q411 304 362 325 Q316 345 314 344 Z M412 448 Q417 450 423 453 Q529 500 529 561 Q529 607 492 630 Q454 654 400 654 Q350 654 313 633 Q272 610 272 569 Q272 525 321 493 Q342 479 378 463 Q411 448 412 448 Z " />
<glyph glyph-name="nineinferior" unicode="&#x2089;" horiz-adv-x="778" d="M15 -43 L39 82 Q264 99 365 170 Q444 225 482 327 Q392 282 300 282 Q197 282 137 328 Q72 378 72 474 Q72 552 105 623 Q172 764 392 764 Q562 764 632 672 Q684 603 684 508 Q684 383 636 259 Q563 71 316 -1 Q217 -30 15 -43 Z M514 451 Q519 487 519 510 Q519 651 386 651 Q297 651 263 590 Q237 543 237 489 Q237 445 268 420 Q299 395 351 395 Q415 395 476 426 Q513 444 514 451 Z " />
<glyph glyph-name="minus" unicode="&#x2212;" horiz-adv-x="1196" d="M151 611 L180 758 L1109 758 L1081 611 L151 611 Z " />
<glyph glyph-name="uni2243" unicode="&#x2243;" horiz-adv-x="1229" d="M136 448 L165 595 L1094 595 L1066 448 L136 448 Z M313 727 L233 801 Q391 983 550 983 Q611 983 723 950 Q816 922 862 922 Q940 922 1054 1018 L1134 942 Q1067 865 1008 823 Q915 758 816 758 Q755 758 645 791 Q549 819 505 819 Q425 819 313 727 Z " />
<glyph glyph-name="dotmath" unicode="&#x22c5;" horiz-adv-x="569" d="M321 819 Q381 819 420 780 Q455 744 455 687 Q455 626 417 585 Q375 541 310 541 Q250 541 212 580 Q176 617 176 673 Q176 735 215 775 Q258 819 321 819 Z " />
<glyph glyph-name="uniEA3F" unicode="&#xea3f;" horiz-adv-x="211" d="M119 1171 L258 1548 L463 1548 L273 1171 L119 1171 Z " />
<glyph glyph-name="uniEA4F" unicode="&#xea4f;" horiz-adv-x="682" d="M735 1548 L518 1200 L319 1200 L579 1548 L735 1548 Z " />
<glyph glyph-name="commaaccent.cap" unicode="&#xea66;" horiz-adv-x="682" d="M48 -430 L222 -82 L374 -82 L238 -430 L48 -430 Z " />
<glyph glyph-name="uniEA67" unicode="&#xea67;" horiz-adv-x="682" d="M411 1171 L550 1548 L755 1548 L565 1171 L411 1171 Z " />
<glyph glyph-name="commaaccent" unicode="&#xea69;" horiz-adv-x="682" d="M16 -430 L190 -82 L342 -82 L206 -430 L16 -430 Z " />
<glyph glyph-name="Scommaaccent" unicode="&#xea6d;" horiz-adv-x="1366" d="M41 138 L139 302 Q361 123 654 123 Q810 123 911 175 Q1038 241 1038 379 Q1038 477 952 546 Q900 588 840 620 Q792 646 688 700 Q504 795 421 877 Q319 977 319 1119 Q319 1313 467 1430 Q587 1524 806 1524 Q1140 1524 1349 1316 L1240 1187 Q1051 1370 809 1370 Q672 1370 593 1312 Q511 1251 511 1134 Q511 1042 579 982 Q619 948 664 924 Q706 901 807 850 Q1007 748 1111 658 Q1239 547 1239 389 Q1239 236 1132 128 Q974 -31 641 -31 Q286 -31 41 138 Z M391 -430 L565 -82 L717 -82 L581 -430 L391 -430 Z " />
<glyph glyph-name="scommaaccent" unicode="&#xea6e;" horiz-adv-x="1024" d="M-38 103 L41 248 Q117 187 173 161 Q291 106 438 106 Q571 106 644 165 Q703 213 703 289 Q703 349 652 389 Q609 423 492 472 Q334 537 283 576 Q183 650 183 772 Q183 915 294 1003 Q390 1080 563 1080 Q733 1080 870 1014 Q923 989 965 952 L883 830 Q757 945 561 945 Q462 945 408 905 Q350 862 350 788 Q350 725 413 685 Q452 661 560 617 Q722 552 788 499 Q881 424 881 302 Q881 182 800 91 Q688 -33 439 -33 Q237 -33 85 32 Q32 55 -38 103 Z M175 -430 L349 -82 L501 -82 L365 -430 L175 -430 Z " />
<glyph glyph-name="Dotaccent" unicode="&#xefed;" horiz-adv-x="682" d="M619 1872 Q670 1872 704 1838 Q734 1808 734 1758 Q734 1704 700 1669 Q663 1630 608 1630 Q555 1630 522 1664 Q492 1695 492 1746 Q492 1799 526 1833 Q563 1872 619 1872 Z " />
<glyph glyph-name="Breve" unicode="&#xefee;" horiz-adv-x="682" d="M370 1894 L507 1894 Q509 1767 623 1767 Q738 1767 774 1894 L913 1894 Q893 1800 845 1739 Q759 1628 614 1628 Q500 1628 432 1699 Q369 1765 369 1861 Q369 1871 370 1894 Z " />
<glyph glyph-name="Ogonek" unicode="&#xeff1;" horiz-adv-x="682" d="M441 -410 Q370 -428 325 -428 Q216 -428 161 -367 Q117 -318 117 -247 Q117 -108 299 0 L404 0 Q343 -61 317 -99 Q277 -154 277 -210 Q277 -289 371 -289 Q411 -289 467 -276 L441 -410 Z " />
<glyph glyph-name="Cedilla" unicode="&#xeff2;" horiz-adv-x="682" d="M64 -348 L238 0 L390 0 L254 -348 L64 -348 Z " />
<glyph glyph-name="Ring" unicode="&#xeff3;" horiz-adv-x="682" d="M629 2013 Q731 2013 793 1951 Q849 1895 849 1809 Q849 1717 789 1655 Q723 1587 615 1587 Q512 1587 450 1649 Q394 1705 394 1794 Q394 1885 454 1945 Q522 2013 629 2013 Z M629 1921 Q568 1921 534 1876 Q509 1843 509 1792 Q509 1745 531 1717 Q560 1679 614 1679 Q675 1679 709 1724 Q734 1757 734 1809 Q734 1856 712 1883 Q682 1921 629 1921 Z " />
<glyph glyph-name="Tilde" unicode="&#xeff5;" horiz-adv-x="682" d="M380 1641 L306 1709 Q397 1852 517 1852 Q564 1852 636 1821 Q696 1795 730 1795 Q793 1795 849 1863 L921 1795 Q832 1652 714 1652 Q666 1652 595 1683 Q533 1709 498 1709 Q438 1709 380 1641 Z " />
<glyph glyph-name="Circumflex" unicode="&#xeff7;" horiz-adv-x="682" d="M282 1612 L570 1931 L723 1931 L890 1612 L753 1612 L628 1802 L427 1612 L282 1612 Z " />
<glyph glyph-name="dotlessj" unicode="&#xf6be;" horiz-adv-x="455" d="M-239 -418 L-210 -270 Q-127 -257 -79 -223 Q2 -165 28 -31 L235 1032 Q334 1036 388 1084 L429 1073 L213 -37 Q170 -258 13 -348 Q-78 -400 -239 -418 Z " />
<glyph glyph-name="Acute" unicode="&#xf6c9;" horiz-adv-x="682" d="M508 1612 L703 1931 L902 1931 L664 1612 L508 1612 Z " />
<glyph glyph-name="Caron" unicode="&#xf6ca;" horiz-adv-x="682" d="M511 1612 L344 1931 L481 1931 L606 1743 L807 1931 L952 1931 L667 1612 L511 1612 Z " />
<glyph glyph-name="Dieresis" unicode="&#xf6cb;" horiz-adv-x="682" d="M445 1866 Q493 1866 525 1833 Q554 1803 554 1756 Q554 1706 522 1672 Q488 1636 435 1636 Q385 1636 353 1669 Q324 1699 324 1745 Q324 1797 355 1830 Q390 1866 445 1866 Z M793 1865 Q842 1865 874 1833 Q903 1802 903 1756 Q903 1705 871 1672 Q837 1636 785 1636 Q735 1636 703 1668 Q674 1698 674 1747 Q674 1797 705 1829 Q740 1865 793 1865 Z " />
<glyph glyph-name="Grave" unicode="&#xf6ce;" horiz-adv-x="682" d="M678 1612 L532 1612 L363 1931 L556 1931 L678 1612 Z " />
<glyph glyph-name="Hungarumlaut" unicode="&#xf6cf;" horiz-adv-x="682" d="M681 1612 L809 1931 L987 1931 L829 1612 L681 1612 Z M366 1612 L496 1931 L674 1931 L513 1612 L366 1612 Z " />
<glyph glyph-name="Macron" unicode="&#xf6d0;" horiz-adv-x="682" d="M341 1671 L371 1827 L885 1827 L855 1671 L341 1671 Z " />
<glyph glyph-name="ff" unicode="&#xfb00;" horiz-adv-x="1024" d="M197 924 L92 924 L119 1061 L223 1061 L252 1219 Q312 1548 612 1548 L705 1548 L676 1398 Q641 1403 611 1403 Q516 1403 474 1347 Q445 1307 426 1210 L397 1061 L752 1061 L781 1219 Q841 1548 1141 1548 L1233 1548 L1205 1398 Q1170 1403 1139 1403 Q1045 1403 1003 1347 Q973 1307 955 1210 L926 1061 L1117 1061 L1090 924 L902 924 L668 -279 L492 -279 L725 924 L373 924 L139 -279 L-37 -279 L197 924 Z " />
</font>
</svg>
