<?xml version="1.0" encoding="UTF-8" standalone="no"?>
<!-- Created with Inkscape (http://www.inkscape.org/) -->

<svg
   xmlns:dc="http://purl.org/dc/elements/1.1/"
   xmlns:cc="http://creativecommons.org/ns#"
   xmlns:rdf="http://www.w3.org/1999/02/22-rdf-syntax-ns#"
   xmlns:svg="http://www.w3.org/2000/svg"
   xmlns="http://www.w3.org/2000/svg"
   xmlns:sodipodi="http://sodipodi.sourceforge.net/DTD/sodipodi-0.dtd"
   xmlns:inkscape="http://www.inkscape.org/namespaces/inkscape"
   width="608.03528"
   height="589.49042"
   id="svg2994"
   version="1.1"
   inkscape:version="0.48.5 r10040"
   sodipodi:docname="Neues Dokument 2">
  <defs
     id="defs2996" />
  <sodipodi:namedview
     id="base"
     pagecolor="#ffffff"
     bordercolor="#666666"
     borderopacity="1.0"
     inkscape:pageopacity="0.0"
     inkscape:pageshadow="2"
     inkscape:zoom="0.50383782"
     inkscape:cx="220.02309"
     inkscape:cy="382.09659"
     inkscape:document-units="px"
     inkscape:current-layer="layer1"
     showgrid="false"
     fit-margin-top="5"
     fit-margin-left="5"
     fit-margin-right="5"
     fit-margin-bottom="5"
     inkscape:window-width="1232"
     inkscape:window-height="756"
     inkscape:window-x="48"
     inkscape:window-y="0"
     inkscape:window-maximized="1" />
  <metadata
     id="metadata2999">
    <rdf:RDF>
      <cc:Work
         rdf:about="">
        <dc:format>image/svg+xml</dc:format>
        <dc:type
           rdf:resource="http://purl.org/dc/dcmitype/StillImage" />
        <dc:title></dc:title>
      </cc:Work>
    </rdf:RDF>
  </metadata>
  <g
     inkscape:label="Ebene 1"
     inkscape:groupmode="layer"
     id="layer1"
     transform="translate(-57.587382,-435.30606)">
    <path
       style="fill:#22ee33;fill-opacity:1;stroke:none"
       d="m 469.21641,440.31758 c -42.52756,0.46753 -84.51499,15.17164 -118.375,43 l 25.78125,31.3125 c 51.15981,-42.26711 126.3467,-46.0004 182.03125,-4.6875 36.03251,26.73286 57.84054,68.28173 59.59375,112.8125 l 42.375,-0.3125 c -2.24212,-57.16935 -30.2067,-110.49023 -76.46875,-144.8125 -34.5613,-25.64135 -74.98737,-37.75169 -114.9375,-37.3125 z m -201.8125,1.53125 c -9.5072,0.23547 -18.88349,3.47732 -26.6875,9.90625 l -162.21875,133.625 c -19.209875,15.82504 -21.319566,44.75467 -4.71875,64.90625 l 289.78125,351.78117 c 16.60077,20.1516 45.41513,23.6377 64.625,7.8126 L 590.40391,876.25508 c 19.20987,-15.82505 21.31952,-44.78598 4.71875,-64.9375 L 305.31016,459.53633 c -9.85673,-11.96499 -24.01112,-18.03165 -37.90625,-17.6875 z m 30.625,46.125 267.8125,325.0625 -194.96875,160.625 -267.78125,-325.09375 194.9375,-160.59375 z m 170.8125,15.09375 c -28.07949,0.37311 -55.81119,10.21525 -78.09375,28.71875 l 21.84375,26.5 c 30.92526,-25.97119 76.7119,-28.39533 110.5625,-3.28125 21.78129,16.15974 34.97917,41.30104 36.03125,68.21875 l 35.875,-0.28125 c -1.46844,-37.61962 -19.86987,-72.69557 -50.3125,-95.28125 -22.82417,-16.93346 -49.52854,-24.94425 -75.90625,-24.59375 z m 1.78125,55.28125 c -15.56075,-0.19069 -31.0319,4.98642 -43.46875,15.0625 -0.42111,0.34172 -0.8044,0.70988 -1.21875,1.0625 l 18.71875,22.71875 c 12.89247,-11.47056 32.47126,-12.74878 46.875,-2.0625 9.08279,6.73861 14.53779,17.21295 14.96875,28.4375 l 30.78125,-0.21875 c -0.79658,-20.39798 -10.74619,-39.44318 -27.25,-51.6875 -11.86582,-8.80336 -25.67618,-13.14425 -39.40625,-13.3125 z"
       id="path3811"
       inkscape:connector-curvature="0" />
  </g>
</svg>
